<svg width="38" height="34" viewBox="0 0 38 34" fill="none" xmlns="http://www.w3.org/2000/svg">
<g filter="url(#filter0_d_468_1124)">
<path d="M14.5069 16.15C14.6641 16.1493 14.8199 16.1796 14.9652 16.2393C15.1106 16.2989 15.2427 16.3867 15.3538 16.4976L16.1265 17.2677C16.145 17.2862 16.167 17.3008 16.1912 17.3108C16.2153 17.3208 16.2413 17.3259 16.2675 17.3259C16.2937 17.3259 16.3196 17.3208 16.3438 17.3108C16.368 17.3008 16.3899 17.2862 16.4085 17.2677L17.1796 16.4976C17.2908 16.3867 17.4228 16.2989 17.5682 16.2393C17.7136 16.1796 17.8694 16.1493 18.0266 16.15H27.82C27.8723 16.1505 27.9242 16.1408 27.9728 16.1213C28.0213 16.1018 28.0656 16.073 28.1029 16.0365C28.1403 16 28.1701 15.9565 28.1906 15.9085C28.2111 15.8605 28.222 15.8089 28.2225 15.7567V15.7528C28.2219 15.2951 28.0631 14.8516 27.7727 14.497C27.4823 14.1425 27.0781 13.8986 26.6283 13.8064C26.5874 12.3322 25.9806 11.0983 24.8592 10.2314C23.822 9.42503 22.436 9 20.8493 9H17.2623C13.8637 9 11.5616 10.925 11.4834 13.8064C11.0336 13.8986 10.6294 14.1425 10.339 14.497C10.0486 14.8516 9.88972 15.2951 9.88916 15.7528C9.88916 15.8581 9.93115 15.9592 10.0059 16.0337C10.0806 16.1082 10.182 16.15 10.2877 16.15H14.5069ZM18.3554 17.7389C18.303 17.7388 18.2512 17.7491 18.2028 17.769C18.1544 17.789 18.1104 17.8182 18.0734 17.8551L16.9704 18.9549C16.7836 19.1411 16.5302 19.2456 16.266 19.2456C16.0018 19.2456 15.7484 19.1411 15.5615 18.9549L14.4585 17.8551C14.4215 17.8182 14.3775 17.789 14.3292 17.769C14.2808 17.7491 14.2289 17.7388 14.1766 17.7389H10.7191C10.5319 17.7381 10.3504 17.8032 10.2067 17.9229C10.063 18.0426 9.96644 18.209 9.934 18.3928C9.90407 18.5705 9.88907 18.7504 9.88916 18.9306C9.88916 20.4494 10.9418 21.6868 12.2436 21.7111C12.3647 22.4619 12.6576 23.1401 13.0985 23.6709C13.7506 24.4559 14.6987 24.8889 15.7678 24.8889H22.3439C23.413 24.8889 24.361 24.4559 25.0132 23.6699C25.4541 23.1391 25.747 22.4609 25.8681 21.7101C27.1698 21.6868 28.2225 20.4494 28.2225 18.9296C28.2226 18.7494 28.2076 18.5695 28.1777 18.3918C28.145 18.2082 28.0483 18.042 27.9047 17.9225C27.761 17.8031 27.5796 17.738 27.3925 17.7389H18.3554Z" fill="url(#paint0_linear_468_1124)" shape-rendering="crispEdges"/>
<path d="M18.0266 16.15H27.82C27.8723 16.1505 27.9242 16.1408 27.9728 16.1213C28.0213 16.1018 28.0656 16.073 28.1029 16.0365C28.1403 16 28.1701 15.9565 28.1906 15.9085C28.2111 15.8605 28.222 15.8089 28.2225 15.7567V15.7528M18.0266 16.15L18.0289 15.65C18.0285 15.65 18.0281 15.65 18.0277 15.65M18.0266 16.15C17.8694 16.1493 17.7136 16.1796 17.5682 16.2393C17.4228 16.2989 17.2908 16.3867 17.1796 16.4976L18.0277 15.65M18.0266 16.15V15.65H18.0277M18.0277 15.65H27.7188M27.7188 15.65C27.7212 15.6843 27.7225 15.7188 27.7225 15.7534V15.7567H27.82H27.8239H27.8265H27.8297H27.8356H28.2225L27.8682 15.7532L28.2225 15.7528M27.7188 15.65H27.82H27.825V15.65C27.8233 15.65 27.8216 15.65 27.82 15.6501C27.8086 15.6506 27.7973 15.653 27.7866 15.6572C27.7744 15.6621 27.7631 15.6695 27.7535 15.6788C27.744 15.6882 27.7362 15.6994 27.7309 15.712C27.7255 15.7245 27.7227 15.738 27.7225 15.7518L27.82 15.7527L27.8239 15.7528L14.5069 16.15V15.65H14.5057H10.3929C10.4146 15.3448 10.5303 15.0525 10.7258 14.8139C10.9433 14.5483 11.2462 14.3654 11.5837 14.2962L11.9724 14.2166L11.9832 13.82C12.0185 12.5186 12.5512 11.4536 13.4477 10.7069C14.3506 9.95478 15.6551 9.5 17.2623 9.5H20.8493C22.3489 9.5 23.6201 9.90141 24.5523 10.6261L24.5534 10.627C25.5497 11.3971 26.0916 12.4875 26.1285 13.8202L26.1395 14.2166L26.5279 14.2962C26.8654 14.3654 27.1684 14.5483 27.3859 14.8139C27.5813 15.0525 27.6971 15.3448 27.7188 15.65ZM28.2225 15.7528H27.8264H27.8258L27.8249 15.7528M28.2225 15.7528C28.2219 15.2951 28.0631 14.8516 27.7727 14.497C27.4823 14.1425 27.0781 13.8986 26.6283 13.8064C26.5874 12.3322 25.9806 11.0983 24.8592 10.2314L27.8249 15.7528M27.8249 15.7528L27.8246 15.7528L27.8249 15.7528ZM17.3233 19.3091L17.3235 19.3089L18.3966 18.2389L27.3925 18.2389L27.3948 18.2389C27.4645 18.2386 27.5318 18.2628 27.585 18.307C27.6375 18.3507 27.6728 18.4111 27.685 18.4775C27.71 18.6268 27.7226 18.7779 27.7225 18.9293V18.9296C27.7225 20.2476 26.8225 21.1929 25.8591 21.2102L25.441 21.2177L25.3744 21.6305C25.2658 22.3043 25.0054 22.8967 24.6285 23.3504L24.6284 23.3507C24.0762 24.0162 23.2722 24.3889 22.3439 24.3889H15.7678C14.8394 24.3889 14.0353 24.0161 13.4831 23.3514C13.1062 22.8977 12.8459 22.3053 12.7372 21.6315L12.6707 21.219L12.2529 21.2112C11.289 21.1932 10.3892 20.2473 10.3892 18.9306L10.3892 18.9303C10.3891 18.7788 10.4016 18.6276 10.4267 18.4782C10.4388 18.4116 10.474 18.351 10.5267 18.3071C10.5798 18.2629 10.6472 18.2386 10.7169 18.2389H10.7191H14.1353L15.2085 19.3089L15.2086 19.3091C15.4894 19.5888 15.8697 19.7456 16.266 19.7456C16.6622 19.7456 17.0426 19.5888 17.3233 19.3091ZM27.3925 17.7389H18.3554L28.2225 18.9296C28.2226 18.7494 28.2076 18.5695 28.1777 18.3918C28.145 18.2082 28.0483 18.042 27.9047 17.9225C27.761 17.8031 27.5796 17.738 27.3925 17.7389Z" stroke="white" shape-rendering="crispEdges"/>
</g>
<defs>
<filter id="filter0_d_468_1124" x="0.88916" y="0" width="36.3335" height="33.8887" filterUnits="userSpaceOnUse" color-interpolation-filters="sRGB">
<feFlood flood-opacity="0" result="BackgroundImageFix"/>
<feColorMatrix in="SourceAlpha" type="matrix" values="0 0 0 0 0 0 0 0 0 0 0 0 0 0 0 0 0 0 127 0" result="hardAlpha"/>
<feOffset/>
<feGaussianBlur stdDeviation="4.5"/>
<feComposite in2="hardAlpha" operator="out"/>
<feColorMatrix type="matrix" values="0 0 0 0 1 0 0 0 0 1 0 0 0 0 1 0 0 0 0.31 0"/>
<feBlend mode="normal" in2="BackgroundImageFix" result="effect1_dropShadow_468_1124"/>
<feBlend mode="normal" in="SourceGraphic" in2="effect1_dropShadow_468_1124" result="shape"/>
</filter>
<linearGradient id="paint0_linear_468_1124" x1="19.0558" y1="9" x2="19.0558" y2="24.8889" gradientUnits="userSpaceOnUse">
<stop stop-color="#EBAF68" stop-opacity="0.7"/>
<stop offset="1" stop-color="white" stop-opacity="0.4"/>
</linearGradient>
</defs>
</svg>
