<svg width="36" height="36" viewBox="0 0 36 36" fill="none" xmlns="http://www.w3.org/2000/svg">
<circle r="18" transform="matrix(-1 0 0 1 18 18)" fill="#FF6B00"/>
<path d="M15.3 9.5H19.95L19.175 20.925H16.075L15.3 9.5ZM17.625 27.2C16.9417 27.2 16.3667 26.9833 15.9 26.55C15.45 26.1 15.225 25.5583 15.225 24.925C15.225 24.2917 15.45 23.7667 15.9 23.35C16.35 22.9167 16.925 22.7 17.625 22.7C18.325 22.7 18.9 22.9167 19.35 23.35C19.8 23.7667 20.025 24.2917 20.025 24.925C20.025 25.5583 19.7917 26.1 19.325 26.55C18.875 26.9833 18.3083 27.2 17.625 27.2Z" fill="white"/>
</svg>
