<svg width="36" height="36" viewBox="0 0 36 36" fill="none" xmlns="http://www.w3.org/2000/svg">
<circle r="18" transform="matrix(-1 0 0 1 18 18)" fill="#A2E62E"/>
<path fill-rule="evenodd" clip-rule="evenodd" d="M23.5976 12.0379C23.5381 12.0561 23.4216 12.105 23.3388 12.1466C23.2558 12.1883 21.1735 14.2388 18.7113 16.7033L14.2347 21.1843L12.5196 19.47C11.3437 18.2947 10.7434 17.725 10.6103 17.6581C10.3167 17.5105 9.84499 17.4944 9.51003 17.6206C9.28847 17.7041 9.17594 17.7935 8.72966 18.2409C8.10565 18.8664 8.00852 19.0375 8.00334 19.5203C7.99661 20.1447 7.83386 19.9477 10.9283 23.0592C12.8121 24.9533 13.7505 25.8673 13.868 25.9225C14.0883 26.0259 14.3813 26.0258 14.6015 25.9224C14.7211 25.8662 16.4722 24.1369 20.3028 20.2921C26.4701 14.102 25.996 14.6277 25.9891 13.9863C25.984 13.5036 25.8868 13.3325 25.2628 12.707C24.822 12.265 24.7027 12.1697 24.4916 12.0909C24.2365 11.9955 23.8181 11.9707 23.5976 12.0379Z" fill="white"/>
</svg>
