<svg width="14" height="14" viewBox="0 0 14 14" fill="none" xmlns="http://www.w3.org/2000/svg">
	<path fill-rule="evenodd" clip-rule="evenodd" d="M5.43489 0.024187C4.40289 0.1677 3.53566 0.487782 2.74997 1.01515C1.3406 1.96115 0.428911 3.33441 0.0935927 5.01647C-0.0311976 5.64234 -0.0311976 6.66866 0.0935927 7.29454C0.216436 7.91079 0.375763 8.37856 0.647148 8.91986C1.82742 11.2739 4.35831 12.6161 6.96298 12.2695C7.93689 12.1398 8.95849 11.742 9.69193 11.2067L9.88019 11.0693L11.2688 12.4552C12.7086 13.892 12.837 13.998 13.1397 14C13.6133 14.0031 14.0031 13.6134 14 13.1398C13.998 12.837 13.8919 12.7085 12.4577 11.2716L11.0744 9.88552L11.3149 9.5195C12.418 7.84118 12.6298 5.71258 11.8789 3.85049C11.0884 1.89005 9.32188 0.457335 7.22646 0.0771381C6.83153 0.00549835 5.79065 -0.025299 5.43489 0.024187ZM6.93603 1.71839C7.86622 1.88059 8.64887 2.29194 9.33189 2.97754C9.73714 3.38433 9.95631 3.68366 10.1869 4.14515C10.7983 5.36898 10.8119 6.86836 10.2227 8.10473C9.80049 8.99069 8.96893 9.81256 8.05665 10.2454C6.94986 10.7706 5.52791 10.7886 4.35944 10.2921C3.43276 9.89837 2.52675 9.026 2.08775 8.10473C1.49856 6.86836 1.51215 5.36898 2.12353 4.14515C2.35395 3.68393 2.57316 3.38448 2.97853 2.97711C3.68693 2.26527 4.51938 1.84707 5.5517 1.68448C5.80844 1.64406 6.62427 1.66404 6.93603 1.71839Z" fill="white" fill-opacity="0.15" />
</svg>
