<svg width="15" height="11" viewBox="0 0 15 11" fill="none" xmlns="http://www.w3.org/2000/svg">
<path d="M2.99222 10.0079C2.40024 9.41588 1.93065 8.7131 1.61028 7.93965C1.2899 7.16619 1.125 6.3372 1.125 5.50002C1.125 4.66284 1.2899 3.83385 1.61028 3.0604C1.93065 2.28694 2.40024 1.58416 2.99222 0.992188M12.0079 0.992188C12.5999 1.58416 13.0695 2.28694 13.3898 3.0604C13.7102 3.83385 13.8751 4.66284 13.8751 5.50002C13.8751 6.3372 13.7102 7.16619 13.3898 7.93965C13.0695 8.7131 12.5999 9.41588 12.0079 10.0079M4.99539 8.00398C4.33143 7.33982 3.95844 6.43914 3.95844 5.50002C3.95844 4.5609 4.33143 3.66022 4.99539 2.99606M10.0047 2.99606C10.6687 3.66022 11.0417 4.5609 11.0417 5.50002C11.0417 6.43914 10.6687 7.33982 10.0047 8.00398M8.20839 5.50002C8.20839 5.68788 8.13376 5.86805 8.00092 6.00089C7.86808 6.13373 7.68792 6.20835 7.50006 6.20835C7.31219 6.20835 7.13203 6.13373 6.99919 6.00089C6.86635 5.86805 6.79172 5.68788 6.79172 5.50002C6.79172 5.31216 6.86635 5.13199 6.99919 4.99915C7.13203 4.86632 7.31219 4.79169 7.50006 4.79169C7.68792 4.79169 7.86808 4.86632 8.00092 4.99915C8.13376 5.13199 8.20839 5.31216 8.20839 5.50002V5.50002Z" stroke="#C3FF17" stroke-linecap="round" stroke-linejoin="round"/>
</svg>
