<svg width="26" height="25" viewBox="0 0 26 25" fill="none" xmlns="http://www.w3.org/2000/svg">
<g opacity="0.5">
<path d="M23.25 12.4583C22.9395 12.4606 22.6319 12.5187 22.342 12.6301L19.2445 10.0946C19.3208 9.81817 19.375 9.53142 19.375 9.22917C19.375 7.43892 17.9361 6 16.1458 6C14.3556 6 12.9167 7.43892 12.9167 9.22917C12.9167 9.74067 13.0458 10.2173 13.2551 10.6461L9.49763 15.0869C9.34722 15.0587 9.19467 15.0436 9.04167 15.0417C8.81046 15.0417 8.59217 15.0804 8.38033 15.1373L5.06979 11.8267C5.12792 11.6162 5.16667 11.3979 5.16667 11.1667C5.16667 9.7355 4.0145 8.58333 2.58333 8.58333C1.15217 8.58333 0 9.7355 0 11.1667C0 12.5978 1.15217 13.75 2.58333 13.75C2.81454 13.75 3.03283 13.7113 3.24467 13.6544L6.55521 16.965C6.49312 17.1796 6.46053 17.4016 6.45833 17.625C6.45833 19.0562 7.6105 20.2083 9.04167 20.2083C10.4728 20.2083 11.625 19.0562 11.625 17.625C11.625 17.3189 11.563 17.0308 11.4661 16.7583L15.2288 12.3124C15.522 12.3976 15.8255 12.4583 16.1458 12.4583C16.6556 12.4555 17.1573 12.3311 17.6093 12.0954L20.708 14.6309C20.6837 14.7666 20.6699 14.9039 20.6667 15.0417C20.6667 16.4728 21.8188 17.625 23.25 17.625C24.6812 17.625 25.8333 16.4728 25.8333 15.0417C25.8333 13.6105 24.6812 12.4583 23.25 12.4583Z" fill="white"/>
</g>
</svg>
