<svg width="34" height="34" viewBox="0 0 34 34" fill="none" xmlns="http://www.w3.org/2000/svg">
	<path d="M1.67656 5.4418L6.04473 1.07773C6.35286 0.768245 6.71911 0.522686 7.12243 0.355164C7.52575 0.187642 7.95819 0.101458 8.39492 0.101563C9.28496 0.101563 10.1217 0.450195 10.7492 1.07773L15.4496 5.77812C15.7591 6.08626 16.0047 6.45251 16.1722 6.85583C16.3397 7.25915 16.4259 7.69159 16.4258 8.12832C16.4258 9.01836 16.0771 9.85508 15.4496 10.4826L12.0125 13.9197C12.817 15.6931 13.9356 17.3063 15.3143 18.6816C16.6894 20.0636 18.3025 21.1863 20.0762 21.9957L23.5133 18.5586C23.8214 18.2491 24.1877 18.0035 24.591 17.836C24.9943 17.6685 25.4267 17.5823 25.8635 17.5824C26.7535 17.5824 27.5902 17.9311 28.2178 18.5586L32.9223 23.2549C33.2321 23.5636 33.4779 23.9305 33.6454 24.3346C33.813 24.7386 33.8989 25.1718 33.8984 25.6092C33.8984 26.4992 33.5498 27.3359 32.9223 27.9635L28.5623 32.3234C27.5615 33.3283 26.1793 33.8984 24.7602 33.8984C24.4607 33.8984 24.1736 33.8738 23.8906 33.8246C18.3617 32.9141 12.8779 29.9732 8.45234 25.5518C4.03086 21.1344 1.09414 15.6547 0.171288 10.1094C-0.10762 8.41543 0.454292 6.67227 1.67656 5.4418Z" fill="white" />
</svg>
