<svg width="22" height="22" viewBox="0 0 22 22" fill="none" xmlns="http://www.w3.org/2000/svg">
	<path d="M11 0C8.82441 0 6.69767 0.645139 4.88873 1.85383C3.07979 3.06253 1.66989 4.78049 0.83733 6.79048C0.00476611 8.80047 -0.213071 11.0122 0.211367 13.146C0.635804 15.2798 1.68345 17.2398 3.22183 18.7782C4.76021 20.3165 6.72022 21.3642 8.85401 21.7886C10.9878 22.2131 13.1995 21.9952 15.2095 21.1627C17.2195 20.3301 18.9375 18.9202 20.1462 17.1113C21.3549 15.3023 22 13.1756 22 11C21.9967 8.08364 20.8367 5.28768 18.7745 3.2255C16.7123 1.16332 13.9164 0.00332728 11 0ZM17.2794 18.0133C17.2638 16.9827 16.8439 15.9995 16.1102 15.2755C15.3766 14.5516 14.3879 14.1448 13.3571 14.1429H8.64286C7.61215 14.1448 6.62345 14.5516 5.88979 15.2755C5.15613 15.9995 4.73623 16.9827 4.72058 18.0133C3.29573 16.741 2.29094 15.066 1.83923 13.2099C1.38753 11.3539 1.51023 9.40448 2.19108 7.61974C2.87193 5.83501 4.07882 4.29917 5.65194 3.21559C7.22506 2.13201 9.0902 1.55181 11.0004 1.55181C12.9106 1.55181 14.7757 2.13201 16.3489 3.21559C17.922 4.29917 19.1289 5.83501 19.8097 7.61974C20.4906 9.40448 20.6133 11.3539 20.1616 13.2099C19.7099 15.066 18.7051 16.741 17.2802 18.0133H17.2794Z" fill="#333333" />
	<path d="M10.9999 4.71436C10.2229 4.71436 9.46332 4.94476 8.81726 5.37644C8.17121 5.80812 7.66768 6.42167 7.37034 7.13953C7.07299 7.85738 6.99519 8.64728 7.14678 9.40935C7.29836 10.1714 7.67252 10.8714 8.22194 11.4208C8.77136 11.9703 9.47137 12.3444 10.2334 12.496C10.9955 12.6476 11.7854 12.5698 12.5033 12.2725C13.2211 11.9751 13.8347 11.4716 14.2663 10.8255C14.698 10.1795 14.9284 9.41992 14.9284 8.64293C14.9284 7.601 14.5145 6.60176 13.7778 5.86501C13.041 5.12826 12.0418 4.71436 10.9999 4.71436Z" fill="#333333" />
</svg>
