<svg width="35" height="25" viewBox="0 0 35 25" fill="none" xmlns="http://www.w3.org/2000/svg">
	<rect x="14.7727" y="3.40918" width="14.7727" height="17.0455" fill="white" />
	<path d="M30.6819 0H14.3971C13.6471 0 12.5716 0.421429 12.0074 0.9375L0.42357 11.5589C0.291116 11.6732 0.184445 11.8167 0.111212 11.9793C0.0379792 12.1418 0 12.3194 0 12.4991C0 12.6789 0.0379792 12.8564 0.111212 13.0189C0.184445 13.1815 0.291116 13.325 0.42357 13.4393L12.0074 24.0589C12.5716 24.575 13.6471 25 14.3971 25H30.6819C32.5569 25 34.0909 23.3929 34.0909 21.4286V3.57143C34.0909 1.60714 32.5569 0 30.6819 0ZM25.894 19.6429L21.5355 15.0768L17.1788 19.6429L14.7192 17.0661L19.0759 12.5L14.7192 7.93393L17.1788 5.35714L21.5373 9.91964L25.8923 5.35714L28.3536 7.93393L23.9968 12.5L28.3553 17.0625L25.894 19.6429Z" fill="#333333" />
</svg>
