<svg width="30" height="30" viewBox="0 0 30 30" fill="currentColor" xmlns="http://www.w3.org/2000/svg">
	<g clip-path="url(#clip0_369_2479)">
		<path d="M4.35297 8.625C6.69206 8.625 8.58826 6.72221 8.58826 4.375C8.58826 2.02779 6.69206 0.125 4.35297 0.125C2.01388 0.125 0.117676 2.02779 0.117676 4.375C0.117676 6.72221 2.01388 8.625 4.35297 8.625Z" fill="currentColor" />
		<path d="M14.9412 8.625C17.2803 8.625 19.1765 6.72221 19.1765 4.375C19.1765 2.02779 17.2803 0.125 14.9412 0.125C12.6021 0.125 10.7059 2.02779 10.7059 4.375C10.7059 6.72221 12.6021 8.625 14.9412 8.625Z" fill="currentColor" />
		<path d="M25.5295 8.625C27.8685 8.625 29.7647 6.72221 29.7647 4.375C29.7647 2.02779 27.8685 0.125 25.5295 0.125C23.1904 0.125 21.2942 2.02779 21.2942 4.375C21.2942 6.72221 23.1904 8.625 25.5295 8.625Z" fill="currentColor" />
		<path d="M4.35297 19.25C6.69206 19.25 8.58826 17.3472 8.58826 15C8.58826 12.6528 6.69206 10.75 4.35297 10.75C2.01388 10.75 0.117676 12.6528 0.117676 15C0.117676 17.3472 2.01388 19.25 4.35297 19.25Z" fill="currentColor" />
		<path d="M14.9412 19.25C17.2803 19.25 19.1765 17.3472 19.1765 15C19.1765 12.6528 17.2803 10.75 14.9412 10.75C12.6021 10.75 10.7059 12.6528 10.7059 15C10.7059 17.3472 12.6021 19.25 14.9412 19.25Z" fill="currentColor" />
		<path d="M25.5295 19.25C27.8685 19.25 29.7647 17.3472 29.7647 15C29.7647 12.6528 27.8685 10.75 25.5295 10.75C23.1904 10.75 21.2942 12.6528 21.2942 15C21.2942 17.3472 23.1904 19.25 25.5295 19.25Z" fill="currentColor" />
		<path d="M4.35297 29.875C6.69206 29.875 8.58826 27.9722 8.58826 25.625C8.58826 23.2778 6.69206 21.375 4.35297 21.375C2.01388 21.375 0.117676 23.2778 0.117676 25.625C0.117676 27.9722 2.01388 29.875 4.35297 29.875Z" fill="currentColor" />
		<path d="M14.9412 29.875C17.2803 29.875 19.1765 27.9722 19.1765 25.625C19.1765 23.2778 17.2803 21.375 14.9412 21.375C12.6021 21.375 10.7059 23.2778 10.7059 25.625C10.7059 27.9722 12.6021 29.875 14.9412 29.875Z" fill="currentColor" />
		<path d="M25.5295 29.875C27.8685 29.875 29.7647 27.9722 29.7647 25.625C29.7647 23.2778 27.8685 21.375 25.5295 21.375C23.1904 21.375 21.2942 23.2778 21.2942 25.625C21.2942 27.9722 23.1904 29.875 25.5295 29.875Z" fill="currentColor" />
	</g>
	<defs>
		<clipPath id="clip0_369_2479">
			<rect width="30" height="30" fill="white" />
		</clipPath>
	</defs>
</svg>
