<svg width="28" height="28" viewBox="0 0 28 28" fill="currentColor" xmlns="http://www.w3.org/2000/svg">
	<path d="M14 0C11.2311 0 8.5243 0.821086 6.22202 2.35942C3.91973 3.89776 2.12531 6.08426 1.06569 8.64243C0.00606063 11.2006 -0.271186 14.0155 0.269007 16.7313C0.8092 19.447 2.14257 21.9416 4.10051 23.8995C6.05844 25.8574 8.553 27.1908 11.2687 27.731C13.9845 28.2712 16.7994 27.9939 19.3576 26.9343C21.9157 25.8747 24.1022 24.0803 25.6406 21.778C27.1789 19.4757 28 16.7689 28 14C28 12.1615 27.6379 10.341 26.9343 8.64243C26.2307 6.94387 25.1995 5.40052 23.8995 4.1005C22.5995 2.80048 21.0561 1.76925 19.3576 1.06569C17.659 0.362121 15.8385 0 14 0ZM19.6 15.4H14C13.6287 15.4 13.2726 15.2525 13.01 14.9899C12.7475 14.7274 12.6 14.3713 12.6 14V8.4C12.6 8.0287 12.6 5.6 12.6 5.6C12.6 5.6 12.6 4.2 14 4.2C15.4 4.2 15.4 4.9 15.4 5.6C15.4 6.3 15.4 8.0287 15.4 8.4V12.6H19.6C19.9713 12.6 20.3274 12.7475 20.5899 13.01C20.8525 13.2726 21 13.6287 21 14C21 14.3713 20.8525 14.7274 20.5899 14.9899C20.3274 15.2525 19.9713 15.4 19.6 15.4Z" fill="currentColor" />
</svg>
