<svg width="10" height="10" viewBox="0 0 10 10" fill="none" xmlns="http://www.w3.org/2000/svg">
	<path d="M9.81445 9.81427C9.69075 9.93809 9.54264 10 9.37012 10C9.19759 10 9.04948 9.93809 8.92578 9.81427L6.99219 7.87879C6.21094 8.45878 5.33854 8.74878 4.375 8.74878C3.78255 8.74878 3.21615 8.63311 2.67578 8.40176C2.13542 8.17041 1.66992 7.85924 1.2793 7.46823C0.888672 7.07722 0.577799 6.6129 0.34668 6.07527C0.11556 5.53763 0 4.97067 0 4.37439C0 3.7781 0.11556 3.20951 0.34668 2.66862C0.577799 2.12773 0.888672 1.66341 1.2793 1.27566C1.66992 0.887911 2.13542 0.578364 2.67578 0.347019C3.21615 0.115673 3.78255 0 4.375 0C4.96745 0 5.53385 0.115673 6.07422 0.347019C6.61458 0.578364 7.08008 0.887911 7.4707 1.27566C7.86133 1.66341 8.1722 2.12773 8.40332 2.66862C8.63444 3.20951 8.75 3.77647 8.75 4.3695C8.75 5.3405 8.46029 6.21375 7.88086 6.98925L9.81445 8.92473C9.93815 9.04855 10 9.19681 10 9.3695C10 9.5422 9.93815 9.69045 9.81445 9.81427ZM4.375 1.25122C3.80859 1.25122 3.28613 1.3897 2.80762 1.66667C2.3291 1.94363 1.94987 2.32323 1.66992 2.80547C1.38997 3.28772 1.25 3.81069 1.25 4.37439C1.25 4.93809 1.38997 5.46106 1.66992 5.9433C1.94987 6.42555 2.3291 6.80515 2.80762 7.08211C3.28613 7.35907 3.80859 7.49756 4.375 7.49756C4.94141 7.49756 5.46387 7.35907 5.94238 7.08211C6.4209 6.80515 6.80013 6.42555 7.08008 5.9433C7.36003 5.46106 7.5 4.93809 7.5 4.37439C7.5 3.81069 7.36003 3.28772 7.08008 2.80547C6.80013 2.32323 6.4209 1.94363 5.94238 1.66667C5.46387 1.3897 4.94141 1.25122 4.375 1.25122Z" fill="#727176" />
</svg>
