<svg width="18" height="9" viewBox="0 0 18 9" fill="none" xmlns="http://www.w3.org/2000/svg">
	<path d="M2.58691 2.1875H12.8994V6.3125H2.58691V2.1875Z" fill="white" />
	<path d="M2.58691 0.125C2.03991 0.125 1.5153 0.342298 1.12851 0.729092C0.741713 1.11589 0.524414 1.64049 0.524414 2.1875L0.524414 6.3125C0.524414 6.85951 0.741713 7.38411 1.12851 7.77091C1.5153 8.1577 2.03991 8.375 2.58691 8.375H12.8994C13.4464 8.375 13.971 8.1577 14.3578 7.77091C14.7446 7.38411 14.9619 6.85951 14.9619 6.3125V2.1875C14.9619 1.64049 14.7446 1.11589 14.3578 0.729092C13.971 0.342298 13.4464 0.125 12.8994 0.125H2.58691ZM12.8994 1.15625C13.1729 1.15625 13.4352 1.2649 13.6286 1.4583C13.822 1.65169 13.9307 1.914 13.9307 2.1875V6.3125C13.9307 6.586 13.822 6.84831 13.6286 7.0417C13.4352 7.2351 13.1729 7.34375 12.8994 7.34375H2.58691C2.31341 7.34375 2.05111 7.2351 1.85771 7.0417C1.66431 6.84831 1.55566 6.586 1.55566 6.3125V2.1875C1.55566 1.914 1.66431 1.65169 1.85771 1.4583C2.05111 1.2649 2.31341 1.15625 2.58691 1.15625H12.8994ZM17.0244 4.25C17.0244 4.66026 16.8614 5.05371 16.5713 5.34381C16.2812 5.6339 15.8878 5.79688 15.4775 5.79688V2.70312C15.8878 2.70312 16.2812 2.8661 16.5713 3.15619C16.8614 3.44629 17.0244 3.83974 17.0244 4.25Z" fill="white" />
</svg>
