<svg width="67" height="67" viewBox="0 0 67 67" fill="none" xmlns="http://www.w3.org/2000/svg">
	<rect width="67" height="67" rx="15" fill="url(#paint0_linear_369_504)" />
	<g clip-path="url(#clip0_369_504)">
		<g filter="url(#filter0_d_369_504)">
			<path d="M34 54.0156C45.2355 54.0156 54.3438 44.9074 54.3438 33.6719C54.3438 22.4363 45.2355 13.3281 34 13.3281C22.7645 13.3281 13.6562 22.4363 13.6562 33.6719C13.6562 44.9074 22.7645 54.0156 34 54.0156Z" fill="url(#paint1_linear_369_504)" />
		</g>
		<path d="M34 52.4899C44.3929 52.4899 52.818 44.0648 52.818 33.672C52.818 23.2791 44.3929 14.854 34 14.854C23.6071 14.854 15.182 23.2791 15.182 33.672C15.182 44.0648 23.6071 52.4899 34 52.4899Z" fill="url(#paint2_radial_369_504)" />
		<path d="M34.0318 19.4313C33.9047 19.4313 33.7934 19.3359 33.7934 19.2088V15.887C33.7934 15.7599 33.9047 15.6646 34.0318 15.6646C34.159 15.6646 34.2702 15.7599 34.2702 15.887V19.2088C34.2543 19.3359 34.159 19.4313 34.0318 19.4313Z" fill="#F3F3F3" />
		<path d="M34.0318 19.447C33.8888 19.447 33.7775 19.3357 33.7775 19.2086V15.8868C33.7775 15.7597 33.8888 15.6484 34.0318 15.6484C34.1749 15.6484 34.2861 15.7597 34.2861 15.8868V19.2086C34.2861 19.3357 34.159 19.447 34.0318 19.447ZM34.0318 15.6801C33.9206 15.6801 33.8094 15.7756 33.8094 15.8868V19.2086C33.8094 19.3198 33.9047 19.4153 34.0318 19.4153C34.1431 19.4153 34.2543 19.3198 34.2543 19.2086V15.8868C34.2385 15.7756 34.1431 15.6801 34.0318 15.6801V15.6801Z" fill="white" />
		<path d="M35.6213 17.651C35.4941 17.635 35.3988 17.5397 35.3988 17.4126L35.51 15.9344C35.5258 15.8074 35.6372 15.7119 35.7643 15.7278C35.8915 15.7437 35.9868 15.8392 35.9868 15.9664L35.8756 17.4444C35.8596 17.5715 35.7484 17.6669 35.6213 17.6511V17.651Z" fill="#F3F3F3" />
		<path d="M35.6213 17.6669C35.4782 17.651 35.3829 17.5398 35.3829 17.4126L35.4941 15.9344C35.51 15.8074 35.6213 15.6962 35.7643 15.7119C35.9072 15.7279 36.0027 15.8393 36.0027 15.9662L35.8915 17.4444C35.8756 17.5875 35.7643 17.6828 35.6213 17.6669ZM35.7643 15.7438C35.6531 15.7438 35.5417 15.8233 35.5417 15.9346L35.4305 17.4128C35.4305 17.5238 35.51 17.6193 35.6372 17.6351C35.7484 17.6351 35.8596 17.5557 35.8596 17.4444L35.9709 15.9662C35.9709 15.855 35.8756 15.7597 35.7642 15.7438H35.7643Z" fill="white" />
		<path d="M36.8133 19.7171C36.686 19.6852 36.6066 19.574 36.6225 19.4469L37.2742 16.1886C37.306 16.0616 37.4173 15.982 37.5444 16.0139C37.6716 16.0457 37.751 16.1569 37.735 16.2841L37.0834 19.5423C37.0675 19.6534 36.9403 19.733 36.8132 19.7171H36.8133Z" fill="#F3F3F3" />
		<path d="M36.8133 19.7334C36.6701 19.7016 36.5907 19.5744 36.6066 19.4473L37.2583 16.189C37.2901 16.062 37.4173 15.9665 37.5602 15.9984C37.7032 16.0302 37.7828 16.1573 37.7669 16.2845L37.1152 19.5428C37.0834 19.6697 36.9562 19.7493 36.8133 19.7334ZM37.5602 16.0302C37.4489 16.0143 37.3377 16.0778 37.3059 16.1892L36.6544 19.4474C36.6385 19.5585 36.7019 19.6697 36.8291 19.7017C36.9403 19.7175 37.0516 19.6538 37.0834 19.5426L37.7351 16.2845C37.751 16.1573 37.6716 16.062 37.5602 16.0302V16.0302Z" fill="white" />
		<path d="M38.7204 18.2868C38.6901 18.2795 38.6616 18.2663 38.6364 18.248C38.6113 18.2297 38.59 18.2066 38.5737 18.18C38.5575 18.1534 38.5467 18.1239 38.5419 18.0931C38.537 18.0624 38.5383 18.031 38.5457 18.0007L38.943 16.5704C38.9747 16.4433 39.1019 16.3796 39.229 16.4114C39.3562 16.4433 39.4357 16.5704 39.4039 16.6976L39.0065 18.128C38.9747 18.255 38.8476 18.3187 38.7204 18.2868Z" fill="#F3F3F3" />
		<path d="M38.7204 18.3029C38.5933 18.2711 38.4979 18.128 38.5457 18.001L38.943 16.5704C38.9747 16.4434 39.1178 16.3639 39.2449 16.3957C39.3721 16.4275 39.4674 16.5706 39.4198 16.6976L39.0224 18.1282C38.9906 18.2552 38.8635 18.3347 38.7206 18.3029H38.7204ZM39.2449 16.4434C39.1337 16.4116 39.0065 16.4753 38.9747 16.5865L38.5775 18.0168C38.5457 18.128 38.6092 18.2394 38.7363 18.2711C38.8476 18.3029 38.9747 18.2394 39.0065 18.1282L39.4039 16.6976C39.4198 16.5865 39.3563 16.4753 39.2449 16.4433V16.4434Z" fill="white" />
		<path d="M39.4992 20.528C39.3721 20.4803 39.3245 20.3372 39.3721 20.226L40.6435 17.1585C40.6911 17.0473 40.8343 16.9836 40.9454 17.0473C41.0727 17.0948 41.1205 17.2381 41.0727 17.3491L39.8012 20.4166C39.7537 20.528 39.6104 20.5915 39.4994 20.528H39.4992Z" fill="#F3F3F3" />
		<path d="M39.4992 20.5439C39.4381 20.5207 39.3888 20.4741 39.362 20.4145C39.3352 20.3549 39.3331 20.2871 39.3561 20.226L40.6276 17.1585C40.6754 17.0313 40.8184 16.9836 40.9615 17.0313C41.0226 17.0546 41.0719 17.1012 41.0987 17.1608C41.1256 17.2204 41.1276 17.2882 41.1046 17.3493L39.8331 20.4168C39.7694 20.5439 39.6264 20.6074 39.4992 20.5439ZM40.9456 17.0632C40.8344 17.0156 40.7072 17.0632 40.6595 17.1744L39.388 20.2419C39.3404 20.3531 39.4039 20.4644 39.5151 20.5121C39.6264 20.5597 39.7535 20.5121 39.8012 20.4009L41.0727 17.3334C41.1046 17.2379 41.0568 17.1108 40.9456 17.0632V17.0632Z" fill="white" />
		<path d="M41.645 19.5107C41.5336 19.4471 41.4858 19.3199 41.5336 19.2087L42.2012 17.8896C42.2646 17.7782 42.3918 17.7305 42.5191 17.7941C42.6303 17.8578 42.6779 17.9849 42.6303 18.096L41.9626 19.4152C41.8991 19.5265 41.772 19.5744 41.6448 19.5107H41.645Z" fill="#F3F3F3" />
		<path d="M41.645 19.5267C41.5177 19.463 41.4701 19.32 41.5336 19.1928L42.2012 17.8738C42.2646 17.7465 42.4079 17.6989 42.5349 17.7624C42.662 17.826 42.7097 17.9691 42.6461 18.0962L41.9787 19.4153C41.915 19.5425 41.772 19.5902 41.6448 19.5265L41.645 19.5267ZM42.5191 17.7942C42.4077 17.7466 42.2806 17.7783 42.233 17.8895L41.5654 19.2088C41.5178 19.3041 41.5654 19.4312 41.6607 19.4949C41.772 19.5425 41.8991 19.5108 41.9469 19.3996L42.6144 18.0803C42.662 17.985 42.6144 17.8579 42.5191 17.7942Z" fill="white" />
		<path d="M41.9628 21.863C41.8515 21.7836 41.8197 21.6406 41.8991 21.5452L43.7429 18.7956C43.8063 18.6843 43.9496 18.6684 44.0606 18.7321C44.172 18.8115 44.2037 18.9545 44.1243 19.0499L42.2806 21.7995C42.2171 21.9108 42.074 21.9426 41.9628 21.863Z" fill="#F3F3F3" />
		<path d="M41.9628 21.8789C41.8515 21.7995 41.8197 21.6405 41.8834 21.5293L43.7269 18.7796C43.8063 18.6683 43.9494 18.6365 44.0766 18.7161C44.1878 18.7955 44.2196 18.9545 44.1561 19.0657L42.3124 21.8154C42.233 21.9266 42.074 21.9583 41.9628 21.8789ZM44.0606 18.7479C43.9655 18.6843 43.8223 18.7002 43.7588 18.7955L41.915 21.5452C41.8515 21.6403 41.8832 21.7676 41.9787 21.8311C42.074 21.8948 42.2171 21.8789 42.2806 21.7836L44.1243 19.0498C44.1878 18.9545 44.1561 18.8114 44.0606 18.7479V18.7479Z" fill="white" />
		<path d="M44.2831 21.2746C44.188 21.1951 44.1561 21.052 44.2355 20.9567L45.1574 19.7964C45.2368 19.7013 45.3799 19.6852 45.4752 19.7648C45.5707 19.8442 45.6023 19.9872 45.5228 20.0826L44.6011 21.2428C44.5217 21.3381 44.3786 21.354 44.2833 21.2746H44.2831Z" fill="#F3F3F3" />
		<path d="M44.2674 21.2909C44.1561 21.2113 44.1402 21.0524 44.2198 20.9411L45.1415 19.781C45.2209 19.6696 45.3799 19.6537 45.4911 19.7492C45.6023 19.8286 45.6183 19.9876 45.5387 20.0988L44.617 21.2591C44.5376 21.3703 44.3786 21.3862 44.2674 21.2909V21.2909ZM45.4593 19.7809C45.3641 19.7015 45.2368 19.7174 45.1574 19.8127L44.2355 20.973C44.172 21.0683 44.188 21.1954 44.2831 21.2748C44.3786 21.3544 44.5057 21.3385 44.5851 21.2432L45.507 20.0829C45.5707 19.9876 45.5546 19.8445 45.4594 19.781L45.4593 19.7809Z" fill="white" />
		<path d="M44.1243 23.6589C44.029 23.5636 44.029 23.4205 44.1243 23.3409L46.4765 21.0047C46.5719 20.9094 46.7148 20.9251 46.7944 21.0047C46.8738 21.0841 46.8897 21.2431 46.7944 21.3225L44.4582 23.6589C44.3627 23.7542 44.2196 23.7542 44.1243 23.6589V23.6589Z" fill="#F3F3F3" />
		<path d="M44.1084 23.6746C44.0625 23.628 44.0369 23.5652 44.0369 23.4998C44.0369 23.4344 44.0625 23.3717 44.1084 23.325L46.4605 20.9886C46.5072 20.9427 46.57 20.917 46.6354 20.917C46.7009 20.917 46.7637 20.9427 46.8103 20.9886C46.8562 21.0352 46.8819 21.098 46.8819 21.1634C46.8819 21.2288 46.8562 21.2916 46.8103 21.3382L44.458 23.6745C44.4114 23.7203 44.3486 23.746 44.2832 23.746C44.2178 23.746 44.155 23.7203 44.1084 23.6745V23.6746ZM46.7944 21.0045C46.715 20.9249 46.5719 20.9249 46.4925 21.0045L44.1402 23.3408C44.0606 23.4203 44.0606 23.5634 44.1402 23.6428C44.2196 23.7224 44.3627 23.7224 44.4421 23.6428L46.7944 21.3066C46.8738 21.227 46.8738 21.0998 46.7944 21.0045Z" fill="white" />
		<path d="M46.5083 23.5318C46.4289 23.4365 46.4289 23.2935 46.5242 23.2139L47.6526 22.2604C47.7479 22.1809 47.891 22.1967 47.9706 22.2922C48.05 22.3875 48.05 22.5306 47.9547 22.61L46.8262 23.5637C46.7308 23.6431 46.5877 23.6272 46.5083 23.5318Z" fill="#F3F3F3" />
		<path d="M46.4924 23.5475C46.3971 23.4363 46.413 23.2773 46.5083 23.1979L47.6367 22.2442C47.732 22.1489 47.891 22.1648 47.9863 22.276C48.0818 22.3873 48.0659 22.5463 47.9706 22.6257L46.842 23.5794C46.7468 23.6745 46.5877 23.6588 46.4925 23.5475H46.4924ZM47.9547 22.292C47.8751 22.1966 47.7479 22.1966 47.6528 22.2601L46.5242 23.2138C46.4448 23.2932 46.4289 23.4204 46.5083 23.5157C46.5877 23.611 46.715 23.611 46.8102 23.5475L47.9388 22.5938C48.0341 22.5144 48.0341 22.3873 47.9547 22.292Z" fill="white" />
		<path d="M45.8725 25.8206C45.7931 25.7094 45.825 25.5663 45.9362 25.5027L48.7016 23.6591C48.8129 23.5954 48.9559 23.6273 49.0194 23.7228C49.099 23.834 49.0672 23.977 48.9559 24.0405L46.1905 25.8841C46.095 25.9478 45.952 25.9159 45.8725 25.8206V25.8206Z" fill="#F3F3F3" />
		<path d="M45.8566 25.8206C45.7772 25.7094 45.8091 25.5504 45.9203 25.471L48.6857 23.6273C48.797 23.5478 48.9559 23.5797 49.0353 23.7068C49.1149 23.8181 49.0829 23.977 48.9719 24.0563L46.2064 25.9002C46.095 25.9797 45.9362 25.9479 45.8566 25.8208V25.8206ZM49.0035 23.7386C48.94 23.6432 48.8129 23.6113 48.7176 23.675L45.952 25.5186C45.8568 25.5822 45.8248 25.7094 45.9044 25.8206C45.9679 25.9159 46.095 25.9478 46.1905 25.8843L48.9559 24.0405C49.0513 23.9611 49.0672 23.8338 49.0035 23.7386Z" fill="white" />
		<path d="M48.2408 26.1542C48.1771 26.0428 48.209 25.8999 48.3202 25.8362L49.6076 25.1052C49.7188 25.0415 49.8619 25.0893 49.9254 25.2003C49.989 25.3117 49.9572 25.4546 49.846 25.5183L48.5586 26.2495C48.4473 26.313 48.3043 26.2654 48.2406 26.154L48.2408 26.1542Z" fill="#F3F3F3" />
		<path d="M48.2249 26.1699C48.1612 26.0428 48.193 25.8997 48.3043 25.8362L49.5917 25.1052C49.7029 25.0415 49.8619 25.0893 49.9254 25.2003C49.989 25.3276 49.9572 25.4707 49.846 25.5342L48.5586 26.2654C48.4473 26.3289 48.2884 26.2812 48.2249 26.1699V26.1699ZM49.9095 25.2164C49.846 25.1052 49.7188 25.0734 49.6235 25.1368L48.3361 25.8681C48.2408 25.9316 48.209 26.0587 48.2565 26.154C48.3202 26.2653 48.4473 26.2971 48.5427 26.2336L49.8301 25.5024C49.9254 25.4548 49.9572 25.3276 49.9095 25.2164V25.2164Z" fill="white" />
		<path d="M47.1759 28.2681C47.1283 28.141 47.1759 28.0138 47.303 27.9663L50.3705 26.6948C50.4817 26.647 50.6248 26.7105 50.6724 26.8218C50.7201 26.9489 50.6724 27.0761 50.5452 27.1236L47.4779 28.3951C47.3665 28.4429 47.2236 28.3951 47.1759 28.2681Z" fill="#F3F3F3" />
		<path d="M47.1599 28.2837C47.1124 28.1567 47.1599 28.0136 47.2871 27.9499L50.3546 26.6785C50.4157 26.6554 50.4835 26.6575 50.543 26.6844C50.6026 26.7112 50.6491 26.7605 50.6724 26.8215C50.7201 26.9487 50.6724 27.0917 50.5452 27.1552L47.4779 28.4267C47.4168 28.4498 47.349 28.4477 47.2894 28.421C47.2298 28.3942 47.1833 28.3449 47.1599 28.2838V28.2837ZM50.6407 26.8374C50.593 26.7262 50.4658 26.6785 50.3705 26.7103L47.303 27.9818C47.1918 28.0294 47.144 28.1567 47.1918 28.2679C47.2394 28.3791 47.3665 28.4269 47.462 28.3951L50.5293 27.1236C50.6407 27.076 50.6884 26.9487 50.6407 26.8374Z" fill="white" />
		<path d="M49.4168 29.0628C49.3692 28.9355 49.4327 28.8085 49.5599 28.7607L50.9585 28.2997C51.0697 28.2521 51.2128 28.3315 51.2446 28.4428C51.2922 28.5699 51.2287 28.6971 51.1015 28.7448L49.7029 29.2058C49.5917 29.2534 49.4645 29.1899 49.4168 29.0626V29.0628Z" fill="#F3F3F3" />
		<path d="M49.4009 29.0784C49.3533 28.9512 49.4168 28.8082 49.56 28.7606L50.9585 28.2996C51.0856 28.252 51.2287 28.3314 51.2764 28.4587C51.324 28.5857 51.2605 28.7288 51.1173 28.7765L49.7188 29.2375C49.5917 29.2692 49.4486 29.2055 49.4009 29.0784ZM51.2446 28.4746C51.2128 28.3632 51.0856 28.2996 50.9744 28.3314L49.5758 28.7924C49.4645 28.8241 49.4168 28.9512 49.4486 29.0626C49.4804 29.1739 49.6076 29.2374 49.7188 29.2055L51.1175 28.7447C51.2287 28.6971 51.2764 28.5857 51.2446 28.4745V28.4746Z" fill="white" />
		<path d="M47.9865 30.9541C47.9547 30.827 48.0341 30.6998 48.1612 30.6839L51.4195 30.0482C51.5465 30.0163 51.6579 30.1117 51.6895 30.2388C51.7214 30.366 51.642 30.4931 51.5148 30.509L48.2565 31.1448C48.1294 31.1607 48.0022 31.0813 47.9863 30.9541H47.9865Z" fill="#F3F3F3" />
		<path d="M47.9547 30.9542C47.9228 30.8111 48.0182 30.684 48.1453 30.6521L51.4036 30.0164C51.5307 29.9846 51.6579 30.08 51.6895 30.2231C51.7214 30.366 51.6261 30.4932 51.4989 30.525L48.2406 31.1607C48.1136 31.1926 47.9863 31.0972 47.9547 30.954V30.9542ZM51.6579 30.2389C51.642 30.1276 51.5307 30.0482 51.4195 30.0641L48.1612 30.6999C48.05 30.7158 47.9706 30.8428 48.0022 30.9542C48.0182 31.0654 48.1294 31.1448 48.2408 31.1289L51.4989 30.4932C51.6101 30.4613 51.6895 30.3501 51.6579 30.2389Z" fill="white" />
		<path d="M50.0209 32.178C50.005 32.0508 50.0844 31.9396 50.2115 31.9237L51.6736 31.7488C51.8008 31.733 51.9122 31.8283 51.9279 31.9555C51.9438 32.0826 51.8644 32.1939 51.7373 32.2098L50.275 32.3845C50.1638 32.4004 50.0366 32.3051 50.0207 32.178H50.0209Z" fill="#F3F3F3" />
		<path d="M50.005 32.1779C49.989 32.0349 50.0844 31.9077 50.2115 31.8918L51.6736 31.7171C51.8008 31.7011 51.9279 31.7965 51.9438 31.9395C51.9598 32.0826 51.8644 32.2097 51.7373 32.2257L50.275 32.4004C50.148 32.4163 50.0207 32.321 50.005 32.1779ZM51.9279 31.9554C51.9122 31.8442 51.8009 31.7487 51.6895 31.7646L50.2274 31.9395C50.1162 31.9554 50.0366 32.0667 50.0525 32.1779C50.0684 32.2892 50.1797 32.3846 50.2909 32.3687L51.7532 32.1938C51.8644 32.1779 51.9438 32.0667 51.9281 31.9554H51.9279Z" fill="white" />
		<path d="M48.2408 33.7193C48.2408 33.5922 48.3359 33.481 48.4633 33.481H51.785C51.9122 33.481 52.0075 33.5922 52.0075 33.7193C52.0075 33.8465 51.9122 33.9577 51.785 33.9577H48.4633C48.3361 33.9577 48.2408 33.8465 48.2408 33.7193Z" fill="#F3F3F3" />
		<path d="M48.2249 33.7196C48.2249 33.5766 48.3361 33.4653 48.4633 33.4653H51.785C51.9122 33.4653 52.0234 33.5766 52.0234 33.7196C52.0234 33.8627 51.9122 33.9739 51.785 33.9739H48.4633C48.3361 33.9739 48.2249 33.8627 48.2249 33.7196ZM51.9916 33.7355C51.9916 33.6243 51.8963 33.5131 51.7849 33.5131H48.4634C48.3522 33.5131 48.2567 33.6082 48.2567 33.7355C48.2567 33.8468 48.3522 33.958 48.4634 33.958H51.7852C51.8964 33.9421 51.9918 33.8468 51.9918 33.7355H51.9916Z" fill="white" />
		<path d="M50.005 35.3245C50.0207 35.1974 50.1162 35.1021 50.2433 35.1021L51.7215 35.2133C51.8485 35.2292 51.9438 35.3404 51.9279 35.4676C51.9122 35.5947 51.8167 35.6901 51.6895 35.6901L50.2115 35.5788C50.1003 35.5629 50.0048 35.4517 50.0048 35.3245H50.005Z" fill="#F3F3F3" />
		<path d="M49.989 35.3248C50.005 35.1817 50.1162 35.0864 50.2433 35.0864L51.7215 35.1977C51.8485 35.2136 51.9598 35.3248 51.9438 35.4679C51.9281 35.6109 51.8167 35.7063 51.6895 35.7063L50.2115 35.595C50.0844 35.5791 49.989 35.452 49.989 35.3248ZM51.9281 35.4679C51.9438 35.3566 51.8485 35.2454 51.7373 35.2454L50.2591 35.1342C50.148 35.1342 50.0525 35.2136 50.0366 35.3409C50.0209 35.452 50.1162 35.5632 50.2274 35.5632L51.7056 35.6744C51.8167 35.6744 51.9122 35.5793 51.9281 35.4679V35.4679Z" fill="white" />
		<path d="M47.9547 36.4852C47.9865 36.358 48.0977 36.2785 48.2249 36.2945L51.483 36.9462C51.6101 36.9779 51.6897 37.0891 51.6579 37.2162C51.6261 37.3434 51.5148 37.423 51.3877 37.407L48.1294 36.7554C48.0182 36.7395 47.9388 36.6123 47.9547 36.4852V36.4852Z" fill="#F3F3F3" />
		<path d="M47.9388 36.4851C47.9706 36.342 48.0977 36.2626 48.2249 36.2783L51.483 36.9302C51.6101 36.9618 51.7055 37.089 51.6736 37.232C51.642 37.3751 51.5148 37.4547 51.3877 37.4388L48.1294 36.7871C48.0022 36.7553 47.9228 36.6281 47.9388 36.4852V36.4851ZM51.642 37.232C51.6579 37.1208 51.5944 37.0096 51.483 36.9777L48.2247 36.3261C48.1136 36.3103 48.0022 36.3738 47.9704 36.501C47.9547 36.6122 48.0182 36.7234 48.1296 36.7553L51.3877 37.4069C51.5148 37.4228 51.6101 37.3433 51.642 37.232Z" fill="white" />
		<path d="M49.3851 38.3923C49.3924 38.362 49.4056 38.3335 49.4239 38.3084C49.4423 38.2832 49.4654 38.2619 49.4919 38.2457C49.5185 38.2295 49.548 38.2186 49.5787 38.2138C49.6094 38.209 49.6408 38.2103 49.6711 38.2176L51.1015 38.6148C51.2287 38.6466 51.2922 38.7739 51.2605 38.9009C51.2532 38.9312 51.2401 38.9597 51.2217 38.9849C51.2034 39.0101 51.1803 39.0314 51.1537 39.0477C51.1272 39.0639 51.0976 39.0748 51.0669 39.0796C51.0361 39.0844 51.0047 39.0831 50.9744 39.0758L49.5439 38.6784C49.4168 38.6466 49.3533 38.5194 49.385 38.3923H49.3851Z" fill="#F3F3F3" />
		<path d="M49.369 38.3923C49.4009 38.2652 49.5439 38.1699 49.6711 38.2176L51.1015 38.6148C51.2287 38.6466 51.3083 38.7897 51.2764 38.9168C51.2446 39.044 51.1015 39.1393 50.9744 39.0917L49.5439 38.6944C49.4168 38.6625 49.3372 38.5354 49.3692 38.3925L49.369 38.3923ZM51.2287 38.9168C51.2605 38.8056 51.1969 38.6785 51.0856 38.6466L49.6552 38.2493C49.5439 38.2174 49.4327 38.2811 49.4009 38.4082C49.3692 38.5195 49.4327 38.6466 49.5439 38.6785L50.9744 39.0758C51.0856 39.0917 51.1969 39.0282 51.2287 38.9168Z" fill="white" />
		<path d="M47.144 39.1551C47.1916 39.0279 47.3348 38.9802 47.4459 39.0279L50.5135 40.2994C50.6248 40.347 50.6883 40.4902 50.6407 40.6013C50.593 40.7286 50.4499 40.7762 50.3387 40.7286L47.2712 39.4571C47.144 39.4095 47.0963 39.2663 47.144 39.1552V39.1551Z" fill="#F3F3F3" />
		<path d="M47.1281 39.139C47.1514 39.0779 47.1979 39.0285 47.2575 39.0017C47.3171 38.9749 47.3849 38.9728 47.4461 38.9959L50.5135 40.2674C50.6407 40.3151 50.6883 40.4582 50.6407 40.6013C50.6174 40.6623 50.5709 40.7117 50.5113 40.7385C50.4517 40.7653 50.3839 40.7674 50.3227 40.7443L47.2553 39.4728C47.1281 39.4092 47.0805 39.2661 47.1281 39.139ZM50.6089 40.5853C50.6564 40.4741 50.6089 40.347 50.4976 40.2992L47.4302 39.0277C47.3189 38.9802 47.2077 39.0436 47.1599 39.1549C47.1124 39.2661 47.1599 39.3933 47.2712 39.441L50.3387 40.7125C50.4499 40.7443 50.577 40.6966 50.6089 40.5853Z" fill="white" />
		<path d="M48.1771 41.3006C48.2408 41.1893 48.3678 41.1416 48.479 41.1893L49.7982 41.8569C49.9095 41.9045 49.9572 42.0475 49.8937 42.1747C49.8301 42.2859 49.7029 42.3338 49.5917 42.2859L48.2726 41.6185C48.1612 41.5549 48.1135 41.4118 48.1771 41.3006Z" fill="#F3F3F3" />
		<path d="M48.1612 41.2847C48.2249 41.1576 48.3679 41.11 48.4951 41.1735L49.8142 41.8411C49.9413 41.9047 49.989 42.0478 49.9254 42.1748C49.8619 42.3019 49.7187 42.3497 49.5917 42.286L48.2726 41.6186C48.1453 41.571 48.0977 41.4119 48.1612 41.2847V41.2847ZM49.8778 42.1589C49.9254 42.0476 49.8936 41.9205 49.7823 41.8729L48.4633 41.2053C48.3678 41.1578 48.2408 41.2053 48.1771 41.3007C48.1296 41.4119 48.1612 41.539 48.2725 41.5868L49.5915 42.2544C49.7029 42.3019 49.8301 42.2703 49.8778 42.1589Z" fill="white" />
		<path d="M45.8407 41.6029C45.9203 41.4916 46.0474 41.4598 46.1587 41.5392L48.9241 43.3829C49.0353 43.4464 49.0513 43.5897 48.9878 43.7007C48.9082 43.8121 48.781 43.8438 48.6698 43.7644L45.9044 41.9206C45.7931 41.8412 45.7613 41.6982 45.8407 41.6029Z" fill="#F3F3F3" />
		<path d="M45.8248 41.587C45.9044 41.4757 46.0633 41.4439 46.1746 41.5075L48.94 43.3511C49.0513 43.4305 49.0831 43.5736 49.0035 43.7007C48.9241 43.8121 48.7651 43.8438 48.6541 43.7803L45.8885 41.9366C45.7613 41.8572 45.7454 41.6982 45.8248 41.587ZM48.9559 43.6848C49.0194 43.5897 49.0035 43.4464 48.9084 43.3829L46.1428 41.5392C46.0474 41.4757 45.9203 41.5075 45.8566 41.6029C45.7931 41.6982 45.8091 41.8413 45.9042 41.9047L48.6698 43.7485C48.7651 43.8121 48.8923 43.7803 48.9559 43.685V43.6848Z" fill="white" />
		<path d="M46.4289 43.9072C46.5083 43.8117 46.6514 43.78 46.7467 43.8596L47.9069 44.7654C48.0022 44.8448 48.0182 44.9879 47.9387 45.0833C47.8593 45.1785 47.7163 45.2105 47.6208 45.1309L46.4605 44.225C46.3654 44.1456 46.3493 44.0025 46.4289 43.9072V43.9072Z" fill="#F3F3F3" />
		<path d="M46.413 43.8913C46.4924 43.78 46.6513 43.7641 46.7626 43.8437L47.9228 44.7495C48.0341 44.8289 48.05 44.9879 47.9704 45.0991C47.891 45.2105 47.732 45.2262 47.621 45.1468L46.4605 44.2409C46.3493 44.1615 46.3336 44.0025 46.413 43.8913ZM47.9387 45.0833C48.0182 44.9879 48.0022 44.8607 47.9069 44.7813L46.7467 43.8754C46.6513 43.8119 46.5242 43.8278 46.4448 43.9229C46.3652 44.0184 46.3811 44.1456 46.4765 44.225L47.6367 45.1309C47.732 45.1946 47.8592 45.1785 47.9386 45.0833H47.9387Z" fill="white" />
		<path d="M44.0606 43.7482C44.1561 43.6529 44.2992 43.6529 44.3786 43.7482L46.7308 46.0845C46.8262 46.18 46.8103 46.323 46.7308 46.4025C46.6356 46.4978 46.4924 46.4978 46.413 46.4025L44.0606 44.0662C43.9812 43.9866 43.9812 43.8277 44.0606 43.7482V43.7482Z" fill="#F3F3F3" />
		<path d="M44.0606 43.7323C44.1073 43.6864 44.1701 43.6606 44.2355 43.6606C44.301 43.6606 44.3638 43.6864 44.4104 43.7323L46.7626 46.0685C46.8085 46.1151 46.8342 46.178 46.8342 46.2434C46.8342 46.3088 46.8085 46.3716 46.7626 46.4183C46.7159 46.4641 46.6532 46.4898 46.5878 46.4898C46.5224 46.4898 46.4596 46.4641 46.413 46.4183L44.0606 44.082C43.9494 43.9865 43.9494 43.8277 44.0606 43.7323ZM46.7308 46.3865C46.8103 46.3071 46.8103 46.164 46.7308 46.0846L44.3786 43.7482C44.2992 43.6688 44.1561 43.6688 44.0767 43.7482C43.9971 43.8276 43.9971 43.9706 44.0767 44.05L46.4289 46.3865C46.5083 46.4819 46.6356 46.4819 46.7308 46.3865Z" fill="white" />
		<path d="M44.2037 46.1163C44.2992 46.0369 44.4421 46.0369 44.5217 46.1322L45.4913 47.2447C45.5705 47.3402 45.5548 47.4833 45.4593 47.5627C45.3641 47.6421 45.2209 47.6421 45.1415 47.5468L44.1719 46.4342C44.0925 46.3548 44.1084 46.2118 44.2037 46.1163V46.1163Z" fill="#F3F3F3" />
		<path d="M44.188 46.1162C44.2992 46.0211 44.4422 46.0368 44.5374 46.1321L45.507 47.2446C45.6023 47.3401 45.5864 47.4989 45.4752 47.5944C45.364 47.6897 45.2209 47.6738 45.1256 47.5785L44.156 46.466C44.0766 46.3548 44.0766 46.1958 44.1878 46.1162H44.188ZM45.4594 47.5626C45.5546 47.4832 45.5546 47.3559 45.4911 47.2607L44.5215 46.148C44.4421 46.0686 44.3149 46.0527 44.2196 46.1321C44.1243 46.2117 44.1243 46.3388 44.1878 46.434L45.1574 47.5467C45.2368 47.642 45.3641 47.642 45.4593 47.5626H45.4594Z" fill="white" />
		<path d="M41.915 45.5123C42.0263 45.4329 42.1693 45.4648 42.233 45.576L44.0764 48.3255C44.14 48.4368 44.1082 48.5798 44.0129 48.6435C43.9017 48.7229 43.7586 48.6911 43.6949 48.5798L41.8514 45.8301C41.7877 45.7191 41.8195 45.5758 41.9149 45.5123H41.915Z" fill="#F3F3F3" />
		<path d="M41.915 45.4967C42.0263 45.4173 42.1852 45.4491 42.2646 45.5604L44.1084 48.3101C44.1878 48.4211 44.156 48.5801 44.029 48.6595C43.9176 48.7391 43.7588 48.7073 43.6792 48.596L41.8356 45.8463C41.7562 45.7194 41.788 45.5763 41.915 45.4969V45.4967ZM44.0131 48.6279C44.1084 48.5642 44.1402 48.4371 44.0766 48.3417L42.233 45.592C42.1693 45.4969 42.0422 45.4808 41.9311 45.5445C41.8356 45.608 41.8038 45.7351 41.8675 45.8306L43.711 48.5801C43.7747 48.6595 43.9177 48.6913 44.0129 48.6277L44.0131 48.6279Z" fill="white" />
		<path d="M41.5813 47.8649C41.6926 47.8014 41.8356 47.8332 41.8991 47.9444L42.6303 49.2318C42.6938 49.3431 42.6461 49.4861 42.5349 49.5496C42.4236 49.6133 42.2806 49.5814 42.2171 49.4702L41.486 48.1828C41.4383 48.0716 41.4701 47.9285 41.5812 47.865L41.5813 47.8649Z" fill="#F3F3F3" />
		<path d="M41.5813 47.8489C41.7085 47.7852 41.8515 47.817 41.915 47.9283L42.6461 49.2157C42.7098 49.3269 42.6779 49.4859 42.5509 49.5494C42.4236 49.613 42.2806 49.5812 42.2171 49.47L41.486 48.1826C41.4224 48.0713 41.4542 47.9283 41.5812 47.8489H41.5813ZM42.5349 49.5336C42.6303 49.47 42.6779 49.3428 42.6144 49.2475L41.8834 47.9601C41.8197 47.8648 41.6926 47.8329 41.5972 47.8805C41.5018 47.9442 41.4542 48.0713 41.5177 48.1666L42.2489 49.454C42.2965 49.5494 42.4395 49.5971 42.5349 49.5335V49.5336Z" fill="white" />
		<path d="M39.4674 46.8157C39.5945 46.7682 39.7217 46.8157 39.7694 46.927L41.0568 49.9944C41.1044 50.1057 41.0409 50.2487 40.9297 50.2963C40.8184 50.3441 40.6754 50.2963 40.6278 50.1851L39.3404 47.1178C39.2927 47.0064 39.3561 46.8635 39.4674 46.8157Z" fill="#F3F3F3" />
		<path d="M39.4674 46.7998C39.5945 46.7523 39.7376 46.7998 39.8013 46.927L41.0886 49.9945C41.1117 50.0556 41.1096 50.1233 41.0828 50.1829C41.0559 50.2425 41.0066 50.289 40.9456 50.3122C40.8184 50.36 40.6754 50.3122 40.6119 50.1851L39.3245 47.1178C39.2767 47.0064 39.3404 46.8635 39.4674 46.7998V46.7998ZM40.9138 50.2806C41.025 50.2328 41.0727 50.1057 41.025 50.0104L39.7376 46.9429C39.69 46.8317 39.5629 46.7839 39.4516 46.8317C39.3404 46.8792 39.2925 47.0064 39.3404 47.1019L40.6276 50.1693C40.6913 50.2806 40.8025 50.3282 40.9138 50.2806Z" fill="white" />
		<path d="M38.6886 49.0724C38.8159 49.0248 38.9429 49.0883 38.9906 49.2155L39.4516 50.6141C39.4992 50.7254 39.4198 50.8684 39.3086 50.9002C39.1814 50.9478 39.0543 50.8843 39.0067 50.7572L38.5457 49.3586C38.4981 49.2473 38.5616 49.1202 38.6887 49.0724H38.6886Z" fill="#F3F3F3" />
		<path d="M38.6728 49.0569C38.734 49.0338 38.8017 49.036 38.8613 49.0628C38.9208 49.0896 38.9673 49.1389 38.9906 49.1999L39.4516 50.5986C39.4992 50.7257 39.4198 50.8688 39.2925 50.9165C39.2314 50.9396 39.1636 50.9374 39.1041 50.9106C39.0445 50.8838 38.998 50.8345 38.9747 50.7735L38.5139 49.3748C38.482 49.2477 38.5457 49.1046 38.6728 49.0569ZM39.2927 50.8845C39.4039 50.8529 39.4674 50.7257 39.4357 50.6145L38.9747 49.2159C38.943 49.1046 38.8159 49.0569 38.7047 49.0887C38.5933 49.1205 38.5298 49.2477 38.5616 49.3589L39.0224 50.7576C39.0305 50.7845 39.0442 50.8095 39.0626 50.8308C39.081 50.8522 39.1037 50.8694 39.1292 50.8814C39.1547 50.8934 39.1824 50.8999 39.2106 50.9005C39.2387 50.901 39.2667 50.8957 39.2927 50.8847V50.8845Z" fill="white" />
		<path d="M36.8133 47.6267C36.9403 47.5948 37.0676 47.6742 37.0834 47.8014L37.751 51.0597C37.7828 51.1867 37.6873 51.298 37.5602 51.3297C37.4332 51.3615 37.3059 51.2821 37.2901 51.155L36.6224 47.8967C36.6066 47.7855 36.686 47.6583 36.8132 47.6265L36.8133 47.6267Z" fill="#F3F3F3" />
		<path d="M36.8133 47.6101C36.9562 47.5785 37.0834 47.6738 37.1152 47.8009L37.7828 51.0592C37.8146 51.1862 37.7191 51.3293 37.592 51.3452C37.4489 51.377 37.3218 51.2817 37.2901 51.1545L36.6224 47.8962C36.5907 47.7691 36.6703 47.642 36.8132 47.6103L36.8133 47.6101ZM37.5602 51.3133C37.6716 51.2976 37.751 51.1862 37.735 51.059L37.0675 47.8009C37.0517 47.6897 36.9246 47.6103 36.8132 47.642C36.7019 47.6579 36.6225 47.7691 36.6385 47.8962L37.306 51.1545C37.3377 51.2658 37.4489 51.3293 37.5603 51.3135L37.5602 51.3133Z" fill="white" />
		<path d="M35.6054 49.6924C35.7325 49.6765 35.8437 49.7561 35.8756 49.8833L36.0662 51.3454C36.0821 51.4725 35.9868 51.5838 35.8595 51.5997C35.7325 51.6156 35.6213 51.5362 35.5894 51.409L35.3988 49.9467C35.3829 49.8196 35.4782 49.7084 35.6054 49.6924Z" fill="#F3F3F3" />
		<path d="M35.6054 49.6765C35.7484 49.6608 35.8756 49.7561 35.8915 49.8832L36.0821 51.3454C36.098 51.4725 36.0027 51.5996 35.8596 51.6156C35.7166 51.6315 35.5894 51.5362 35.5735 51.4088L35.3829 49.9467C35.367 49.8196 35.4623 49.6924 35.6054 49.6765ZM35.8437 51.5837C35.955 51.568 36.0505 51.4566 36.0345 51.3454L35.8437 49.8832C35.8278 49.772 35.7166 49.6924 35.6054 49.7083C35.4941 49.7243 35.3986 49.8355 35.4145 49.9467L35.6054 51.409C35.6213 51.5202 35.7325 51.5996 35.8437 51.5837Z" fill="white" />
		<path d="M33.9683 47.9126C34.0955 47.9126 34.2067 48.0081 34.2067 48.1352V51.4568C34.2067 51.584 34.0955 51.6795 33.9683 51.6795C33.8412 51.6795 33.73 51.584 33.73 51.4568V48.1352C33.7459 48.0081 33.8412 47.9126 33.9683 47.9126Z" fill="#F3F3F3" />
		<path d="M33.9683 47.8965C34.1114 47.8965 34.2226 48.0077 34.2226 48.1349V51.4566C34.2226 51.5838 34.1114 51.695 33.9683 51.695C33.8253 51.695 33.714 51.5838 33.714 51.4566V48.135C33.714 48.0079 33.8412 47.8965 33.9683 47.8965ZM33.9683 51.6634C34.0796 51.6634 34.1908 51.568 34.1908 51.4566V48.135C34.1908 48.0236 34.0955 47.9283 33.9683 47.9283C33.8571 47.9283 33.7459 48.0236 33.7459 48.135V51.4566C33.7616 51.568 33.8571 51.6634 33.9683 51.6634Z" fill="white" />
		<path d="M32.3789 49.6927C32.506 49.7086 32.6014 49.8039 32.6014 49.931L32.4901 51.4092C32.4744 51.5364 32.363 51.6317 32.2358 51.616C32.1087 51.5999 32.0134 51.5046 32.0134 51.3774L32.1246 49.8992C32.1405 49.7722 32.2517 49.6767 32.3789 49.6927Z" fill="#F3F3F3" />
		<path d="M32.3789 49.6765C32.522 49.6924 32.6173 49.8037 32.6173 49.9308L32.506 51.409C32.4901 51.5362 32.3789 51.6474 32.2358 51.6315C32.0929 51.6156 31.9975 51.5043 31.9975 51.3772L32.1087 49.899C32.1246 49.7561 32.2358 49.6608 32.3789 49.6765ZM32.2358 51.5996C32.3471 51.5996 32.4585 51.5202 32.4585 51.409L32.5697 49.9308C32.5697 49.8196 32.4901 49.7242 32.363 49.7083C32.2518 49.7083 32.1405 49.7877 32.1405 49.8991L32.0293 51.3772C32.0293 51.4884 32.1246 51.5839 32.236 51.5996H32.2358Z" fill="white" />
		<path d="M31.187 47.6265C31.3141 47.6582 31.3935 47.7694 31.3776 47.8966L30.726 51.1549C30.6941 51.282 30.5829 51.3616 30.4558 51.3296C30.3286 51.2979 30.2492 51.1867 30.2651 51.0594L30.9168 47.8013C30.9327 47.69 31.0598 47.6106 31.187 47.6265Z" fill="#F3F3F3" />
		<path d="M31.187 47.6103C31.3299 47.6421 31.4095 47.7694 31.3935 47.8964L30.7419 51.1547C30.7101 51.2818 30.5829 51.3772 30.44 51.3453C30.2969 51.3135 30.2174 51.1864 30.2333 51.0592L30.8849 47.8011C30.9168 47.6739 31.0439 47.5944 31.1868 47.6105L31.187 47.6103ZM30.44 51.3135C30.5512 51.3294 30.6625 51.2659 30.6943 51.1547L31.3458 47.8964C31.3617 47.7852 31.2982 47.6739 31.1711 47.6421C31.0598 47.6264 30.9486 47.6899 30.9168 47.8013L30.2651 51.0592C30.2492 51.1864 30.3286 51.2818 30.44 51.3135V51.3135Z" fill="white" />
		<path d="M29.2796 49.0569C29.4069 49.0887 29.4863 49.2159 29.4545 49.343L29.0571 50.7735C29.0255 50.9006 28.8983 50.9641 28.7712 50.9324C28.7409 50.9252 28.7123 50.912 28.6871 50.8937C28.662 50.8753 28.6406 50.8522 28.6244 50.8257C28.6081 50.7991 28.5973 50.7696 28.5925 50.7388C28.5876 50.708 28.5889 50.6766 28.5963 50.6463L28.9936 49.2159C29.0255 49.0887 29.1526 49.0252 29.2798 49.0569H29.2796Z" fill="#F3F3F3" />
		<path d="M29.2796 49.0409C29.4069 49.0725 29.5022 49.2156 29.4545 49.3427L29.0571 50.7732C29.0255 50.9004 28.8824 50.9799 28.7553 50.9479C28.6281 50.9163 28.5328 50.7732 28.5804 50.6461L28.9777 49.2156C29.0095 49.0885 29.1367 49.0089 29.2796 49.0407V49.0409ZM28.7553 50.9004C28.8665 50.9322 28.9936 50.8685 29.0255 50.7573L29.4227 49.3268C29.4545 49.2156 29.391 49.1044 29.2638 49.0725C29.1526 49.0407 29.0255 49.1044 28.9936 49.2156L28.5963 50.6461C28.5804 50.7573 28.6439 50.8685 28.7553 50.9004Z" fill="white" />
		<path d="M28.501 46.8158C28.6281 46.8634 28.6757 47.0065 28.6281 47.1177L27.3566 50.1852C27.309 50.2966 27.1658 50.3601 27.0547 50.2966C26.9433 50.2329 26.8797 50.1058 26.9274 49.9945L28.1989 46.9271C28.2465 46.8158 28.3897 46.7522 28.5008 46.8158H28.501Z" fill="#F3F3F3" />
		<path d="M28.501 46.7998C28.562 46.8231 28.6114 46.8696 28.6382 46.9292C28.665 46.9888 28.6671 47.0566 28.644 47.1178L27.3725 50.1851C27.3248 50.3122 27.1817 50.36 27.0387 50.3122C26.9776 50.2889 26.9283 50.2424 26.9015 50.1829C26.8747 50.1233 26.8726 50.0556 26.8956 49.9944L28.1671 46.927C28.2307 46.7998 28.3738 46.7363 28.501 46.7998V46.7998ZM27.0546 50.2806C27.1658 50.3281 27.293 50.2806 27.3407 50.1693L28.6122 47.1018C28.6598 46.9906 28.5963 46.8792 28.485 46.8316C28.3738 46.7841 28.2467 46.8316 28.1989 46.9429L26.9274 50.0103C26.8956 50.1057 26.9433 50.2328 27.0546 50.2806Z" fill="white" />
		<path d="M26.3553 47.8332C26.4666 47.8967 26.5142 48.0238 26.4666 48.1351L25.799 49.4543C25.7354 49.5655 25.6082 49.6133 25.4811 49.5496C25.3698 49.4861 25.3222 49.359 25.3698 49.2477L26.0376 47.9287C26.101 47.8173 26.2282 47.7695 26.3553 47.8332Z" fill="#F3F3F3" />
		<path d="M26.3553 47.8171C26.4825 47.8806 26.5301 48.0238 26.4666 48.1508L25.799 49.47C25.7354 49.5971 25.5923 49.6449 25.4653 49.5812C25.3382 49.5177 25.2904 49.3745 25.3541 49.2475L26.0215 47.9285C26.0851 47.8011 26.2282 47.7536 26.3553 47.8171ZM25.4812 49.5496C25.5925 49.5971 25.7196 49.5653 25.7672 49.4541L26.4347 48.135C26.4823 48.0395 26.4348 47.9124 26.3394 47.8489C26.2282 47.8013 26.101 47.833 26.0533 47.9442L25.3857 49.2633C25.3382 49.3588 25.3857 49.4859 25.4812 49.5494V49.5496Z" fill="white" />
		<path d="M26.0374 45.4808C26.1486 45.5602 26.1805 45.7033 26.101 45.7986L24.2573 48.5483C24.1938 48.6593 24.0506 48.6752 23.9395 48.6117C23.8283 48.5322 23.7965 48.3893 23.8759 48.2938L25.7196 45.5441C25.7831 45.433 25.9262 45.4012 26.0374 45.4806V45.4808Z" fill="#F3F3F3" />
		<path d="M26.0374 45.465C26.1486 45.5446 26.1805 45.7035 26.1168 45.8148L24.2732 48.5645C24.1938 48.6755 24.0508 48.7073 23.9236 48.6279C23.8124 48.5484 23.7805 48.3896 23.844 48.2782L25.6878 45.5286C25.7672 45.4174 25.9262 45.3856 26.0374 45.465V45.465ZM23.9395 48.5961C24.0347 48.6596 24.1779 48.6437 24.2414 48.5485L26.0851 45.7989C26.1486 45.7035 26.117 45.5764 26.0215 45.5127C25.9262 45.4492 25.7831 45.4651 25.7196 45.5603L23.8759 48.2941C23.8124 48.3896 23.844 48.5325 23.9395 48.596V48.5961Z" fill="white" />
		<path d="M23.7169 46.069C23.8124 46.1484 23.844 46.2914 23.7646 46.3868L22.8428 47.547C22.7634 47.6423 22.6203 47.6582 22.525 47.5788C22.4297 47.4994 22.3978 47.3564 22.4774 47.2609L23.3991 46.1006C23.4785 46.0055 23.6216 45.9894 23.7169 46.069Z" fill="#F3F3F3" />
		<path d="M23.7328 46.0529C23.844 46.1323 23.86 46.2912 23.7804 46.4025L22.8587 47.5627C22.7793 47.674 22.6203 47.6899 22.5091 47.5946C22.3978 47.515 22.3819 47.3562 22.4615 47.2448L23.3832 46.0847C23.4626 45.9733 23.6216 45.9575 23.7328 46.0529ZM22.5409 47.5627C22.636 47.6421 22.7634 47.6264 22.8428 47.5309L23.7646 46.3707C23.8283 46.2755 23.8122 46.1482 23.7171 46.0688C23.6216 45.9892 23.4944 46.0051 23.415 46.1006L22.4932 47.2607C22.4297 47.3562 22.4456 47.4991 22.5407 47.5627H22.5409Z" fill="white" />
		<path d="M23.8759 43.6849C23.9712 43.7801 23.9712 43.9233 23.8759 44.0027L21.5237 46.3389C21.4282 46.4344 21.2853 46.4185 21.2057 46.3389C21.1263 46.2595 21.1104 46.1005 21.2057 46.0211L23.542 43.6849C23.6375 43.5894 23.7805 43.5894 23.8759 43.6849V43.6849Z" fill="#F3F3F3" />
		<path d="M23.8918 43.6687C23.9376 43.7153 23.9632 43.7781 23.9632 43.8434C23.9632 43.9088 23.9376 43.9715 23.8918 44.0181L21.5395 46.3547C21.4928 46.4005 21.4301 46.4262 21.3647 46.4262C21.2994 46.4262 21.2366 46.4005 21.19 46.3547C21.1441 46.3081 21.1184 46.2453 21.1184 46.1798C21.1184 46.1144 21.1441 46.0516 21.19 46.0049L23.5422 43.6687C23.5888 43.6229 23.6516 43.5972 23.717 43.5972C23.7824 43.5972 23.8451 43.6229 23.8918 43.6687V43.6687ZM21.2058 46.3386C21.2852 46.4181 21.4282 46.4181 21.5076 46.3386L23.86 44.0022C23.9395 43.9228 23.9395 43.7798 23.86 43.7004C23.7805 43.6208 23.6375 43.6208 23.5581 43.7004L21.2058 46.0366C21.1263 46.116 21.1263 46.2433 21.2058 46.3385V46.3386Z" fill="white" />
		<path d="M21.4919 43.8118C21.5713 43.9069 21.5713 44.0502 21.476 44.1296L20.3475 45.0833C20.2522 45.1627 20.1092 45.1468 20.0296 45.0514C19.9502 44.956 19.9502 44.8131 20.0455 44.7335L21.1739 43.78C21.2694 43.7004 21.4123 43.7163 21.4919 43.8118Z" fill="#F3F3F3" />
		<path d="M21.5078 43.7959C21.6031 43.9073 21.5872 44.0661 21.4919 44.1457L20.3635 45.0992C20.2681 45.1947 20.1092 45.1788 20.0138 45.0675C19.9184 44.9561 19.9343 44.7973 20.0296 44.7178L21.1582 43.7642C21.2533 43.6689 21.4125 43.6848 21.5076 43.7961L21.5078 43.7959ZM20.0455 45.0516C20.1251 45.147 20.2522 45.147 20.3474 45.0835L21.476 44.1298C21.5554 44.0504 21.5713 43.923 21.4919 43.8279C21.4123 43.7324 21.2852 43.7324 21.19 43.7961L20.0614 44.7496C19.9661 44.829 19.9661 44.9563 20.0455 45.0515V45.0516Z" fill="white" />
		<path d="M22.1276 41.5233C22.207 41.6347 22.1752 41.7776 22.064 41.8413L19.2985 43.685C19.1873 43.7485 19.0442 43.7167 18.9807 43.6213C18.9012 43.5101 18.933 43.367 19.0442 43.3034L21.8098 41.4598C21.9053 41.3963 22.0482 41.428 22.1278 41.5233H22.1276Z" fill="#F3F3F3" />
		<path d="M22.1435 41.5231C22.2229 41.6345 22.1911 41.7933 22.0799 41.8729L19.3144 43.7164C19.2032 43.796 19.0442 43.764 18.9648 43.637C18.8852 43.5258 18.9172 43.3668 19.0283 43.2874L21.7939 41.4437C21.9051 41.3643 22.064 41.3961 22.1434 41.5231H22.1435ZM18.9966 43.6052C19.0601 43.7005 19.1873 43.7323 19.2826 43.6688L22.048 41.8251C22.1435 41.7616 22.1752 41.6345 22.0958 41.5232C22.0323 41.4278 21.9051 41.3961 21.8097 41.4596L19.0442 43.3033C18.9489 43.3827 18.933 43.5099 18.9966 43.6052V43.6052Z" fill="white" />
		<path d="M19.7594 41.1893C19.823 41.3005 19.7912 41.4436 19.68 41.5072L18.3926 42.2383C18.2813 42.3018 18.1383 42.2542 18.0748 42.143C18.0111 42.0317 18.043 41.8887 18.1542 41.825L19.4416 41.0939C19.5528 41.0303 19.6959 41.078 19.7595 41.1893H19.7594Z" fill="#F3F3F3" />
		<path d="M19.7755 41.1736C19.8389 41.3008 19.8071 41.4439 19.6959 41.5075L18.4085 42.2386C18.2973 42.3021 18.1383 42.2545 18.0748 42.1433C18.0111 42.0161 18.043 41.873 18.1542 41.8094L19.4416 41.0783C19.5528 41.0147 19.7118 41.0624 19.7753 41.1736H19.7755ZM18.0905 42.1273C18.1542 42.2386 18.2813 42.2704 18.3767 42.2067L19.6641 41.4757C19.7594 41.412 19.7912 41.2849 19.7436 41.1896C19.68 41.0783 19.5528 41.0465 19.4575 41.1101L18.1701 41.8412C18.0748 41.8888 18.043 42.0161 18.0907 42.1273H18.0905Z" fill="white" />
		<path d="M20.8243 39.0759C20.8719 39.2031 20.8243 39.3302 20.6972 39.3778L17.6297 40.6493C17.5184 40.697 17.3754 40.6335 17.3278 40.5221C17.2801 40.395 17.3278 40.2678 17.455 40.2202L20.5224 38.9488C20.6337 38.9012 20.7767 38.9488 20.8243 39.0759V39.0759Z" fill="#F3F3F3" />
		<path d="M20.8402 39.0598C20.8878 39.187 20.8402 39.33 20.7131 39.3935L17.6456 40.665C17.5845 40.688 17.5167 40.6859 17.4572 40.6591C17.3976 40.6323 17.3511 40.583 17.3278 40.5219C17.2801 40.3948 17.3278 40.2517 17.455 40.1882L20.5224 38.9167C20.5836 38.8937 20.6513 38.8958 20.7109 38.9226C20.7704 38.9495 20.8169 38.9988 20.8402 39.0598V39.0598ZM17.3595 40.506C17.4072 40.6174 17.5344 40.6652 17.6297 40.6332L20.6972 39.3617C20.8084 39.3141 20.8561 39.187 20.8084 39.0757C20.7608 38.9645 20.6337 38.9167 20.5382 38.9486L17.4707 40.2201C17.3595 40.2676 17.3119 40.3948 17.3595 40.5062V40.506Z" fill="white" />
		<path d="M18.5834 38.2809C18.631 38.4081 18.5675 38.5352 18.4403 38.5828L17.0417 39.0438C16.9304 39.0914 16.7874 39.012 16.7556 38.9007C16.708 38.7736 16.7715 38.6465 16.8986 38.5989L18.2973 38.1379C18.4085 38.0903 18.5356 38.1538 18.5834 38.2809Z" fill="#F3F3F3" />
		<path d="M18.5991 38.2652C18.6469 38.3923 18.5834 38.5354 18.4403 38.5831L17.0417 39.044C16.9145 39.0916 16.7715 39.0121 16.7237 38.885C16.6761 38.7579 16.7396 38.6148 16.8829 38.5672L18.2813 38.1062C18.4085 38.0745 18.5515 38.138 18.5993 38.2653L18.5991 38.2652ZM16.7557 38.8693C16.7875 38.9805 16.9147 39.0441 17.0259 39.0123L18.4246 38.5513C18.5358 38.5196 18.5835 38.3925 18.5517 38.2813C18.5199 38.17 18.3927 38.1064 18.2815 38.1382L16.8829 38.5992C16.7716 38.6468 16.7239 38.758 16.7557 38.8693Z" fill="white" />
		<path d="M20.0138 36.3896C20.0455 36.5167 19.9661 36.6439 19.8389 36.6598L16.5807 37.2955C16.4535 37.3273 16.3423 37.2319 16.3106 37.1047C16.2788 36.9776 16.3582 36.8504 16.4853 36.8345L19.7436 36.1988C19.8708 36.183 19.9979 36.2624 20.0137 36.3896H20.0138Z" fill="#F3F3F3" />
		<path d="M20.0455 36.3895C20.0773 36.5325 19.982 36.6597 19.8549 36.6913L16.5966 37.3271C16.4694 37.3589 16.3423 37.2636 16.3106 37.1205C16.2788 36.9775 16.3741 36.8503 16.5013 36.8186L19.7595 36.1829C19.8865 36.1511 20.0138 36.2464 20.0455 36.3895ZM16.3423 37.1048C16.3582 37.2158 16.4694 37.2954 16.5807 37.2795L19.8389 36.6438C19.9502 36.6278 20.0296 36.5007 19.9979 36.3895C19.982 36.2782 19.8708 36.1987 19.7594 36.2146L16.5013 36.8503C16.39 36.8821 16.3106 36.9934 16.3423 37.1046V37.1048Z" fill="white" />
		<path d="M17.9795 35.166C17.9952 35.293 17.9158 35.4044 17.7887 35.4203L16.3265 35.595C16.1992 35.6109 16.088 35.5156 16.0722 35.3883C16.0563 35.2613 16.1357 35.1501 16.2629 35.134L17.7252 34.9593C17.8364 34.9433 17.9635 35.0387 17.9795 35.166Z" fill="#F3F3F3" />
		<path d="M17.9954 35.1658C18.0111 35.3087 17.9158 35.4358 17.7887 35.4517L16.3265 35.6266C16.1992 35.6425 16.0722 35.5472 16.0563 35.4042C16.0404 35.2611 16.1357 35.1339 16.2629 35.118L17.7252 34.9431C17.8522 34.9272 17.9795 35.0227 17.9952 35.1656L17.9954 35.1658ZM16.0721 35.3882C16.088 35.4995 16.1994 35.595 16.3106 35.5789L17.7727 35.4042C17.884 35.3882 17.9635 35.277 17.9476 35.1658C17.9317 35.0544 17.8205 34.959 17.7093 34.975L16.247 35.1499C16.1357 35.1658 16.0563 35.277 16.0721 35.3882V35.3882Z" fill="white" />
		<path d="M19.7594 33.6241C19.7594 33.7514 19.6642 33.8627 19.5369 33.8627H16.2153C16.0881 33.8627 15.9928 33.7514 15.9928 33.6243C15.9928 33.4971 16.0881 33.3857 16.2153 33.3857H19.5371C19.6642 33.3857 19.7597 33.4971 19.7597 33.6243L19.7594 33.6241Z" fill="#F3F3F3" />
		<path d="M19.7755 33.6239C19.7755 33.7672 19.6641 33.8782 19.5369 33.8782H16.2153C16.0881 33.8782 15.9769 33.767 15.9769 33.6239C15.9769 33.481 16.0881 33.3696 16.2153 33.3696H19.5371C19.6642 33.3696 19.7755 33.481 19.7755 33.6239ZM16.0086 33.6082C16.0086 33.7194 16.1039 33.8306 16.2153 33.8306H19.5369C19.6481 33.8306 19.7436 33.7353 19.7436 33.6082C19.7436 33.4969 19.6481 33.3855 19.5369 33.3855H16.2153C16.1041 33.4015 16.0087 33.4969 16.0087 33.6082H16.0086Z" fill="white" />
		<path d="M17.9954 32.0189C17.9793 32.146 17.884 32.2413 17.7568 32.2413L16.2786 32.1301C16.1516 32.1142 16.0563 32.0029 16.0721 31.8758C16.088 31.7486 16.1835 31.6533 16.3106 31.6533L17.7887 31.7646C17.8999 31.7805 17.9954 31.8917 17.9954 32.0189Z" fill="#E2E2E2" />
		<path d="M18.0111 32.0187C17.9952 32.1617 17.884 32.257 17.7568 32.257L16.2786 32.1458C16.1516 32.1299 16.0404 32.0187 16.0563 31.8756C16.0721 31.7327 16.1835 31.6372 16.3106 31.6372L17.7887 31.7484C17.9158 31.7644 18.0111 31.8915 18.0111 32.0187ZM16.0721 31.8756C16.0563 31.9868 16.1516 32.0982 16.2629 32.0982L17.7411 32.2095C17.8521 32.2095 17.9476 32.1299 17.9635 32.0027C17.9795 31.8915 17.884 31.7803 17.7727 31.7803L16.2945 31.669C16.1835 31.669 16.088 31.7644 16.0721 31.8758V31.8756Z" fill="white" />
		<path d="M20.0455 30.8586C20.0137 30.9858 19.9024 31.0653 19.7753 31.0494L16.5172 30.3819C16.39 30.35 16.3105 30.2388 16.3423 30.1116C16.3741 29.9845 16.4853 29.9049 16.6125 29.921L19.8708 30.5727C19.982 30.6043 20.0614 30.7315 20.0455 30.8586V30.8586Z" fill="#F3F3F3" />
		<path d="M20.0614 30.8584C20.0296 31.0014 19.9024 31.081 19.7753 31.0651L16.5172 30.4134C16.39 30.3816 16.2947 30.2545 16.3265 30.1116C16.3582 29.9683 16.4853 29.8889 16.6125 29.9048L19.8708 30.5565C19.9979 30.5883 20.0773 30.7155 20.0614 30.8584V30.8584ZM16.3582 30.1114C16.3423 30.2226 16.4058 30.3339 16.5172 30.3657L19.7755 31.0174C19.8867 31.0333 19.9979 30.9698 20.0298 30.8425C20.0455 30.7312 19.982 30.62 19.8706 30.5882L16.6127 29.9367C16.4855 29.9208 16.3902 30.0002 16.3584 30.1114H16.3582Z" fill="white" />
		<path d="M18.6152 28.9514C18.6079 28.9817 18.5947 29.0102 18.5764 29.0354C18.558 29.0605 18.5349 29.0818 18.5084 29.0981C18.4818 29.1143 18.4523 29.1251 18.4215 29.1299C18.3907 29.1347 18.3593 29.1334 18.3291 29.1261L16.8986 28.7288C16.7715 28.6969 16.708 28.5698 16.7396 28.4426C16.7469 28.4124 16.7601 28.3838 16.7785 28.3587C16.7968 28.3335 16.8199 28.3122 16.8465 28.2959C16.8731 28.2797 16.9026 28.2689 16.9333 28.2641C16.9641 28.2593 16.9955 28.2606 17.0258 28.2679L18.4562 28.6653C18.5834 28.6969 18.6469 28.8241 18.6152 28.9512V28.9514Z" fill="#F3F3F3" />
		<path d="M18.631 28.9517C18.5993 29.0787 18.4562 29.1741 18.3291 29.1264L16.8986 28.729C16.7715 28.6972 16.6919 28.5541 16.7237 28.4272C16.7556 28.2998 16.8986 28.2045 17.0258 28.2523L18.4562 28.6496C18.5834 28.6815 18.6629 28.8086 18.631 28.9515V28.9517ZM16.7715 28.4268C16.7396 28.5382 16.8033 28.6654 16.9145 28.697L18.345 29.0944C18.4562 29.1262 18.5675 29.0626 18.5993 28.9354C18.631 28.8242 18.5675 28.697 18.4562 28.6654L17.0258 28.268C16.9145 28.2521 16.8033 28.3156 16.7715 28.427V28.4268Z" fill="white" />
		<path d="M20.8561 28.1889C20.8086 28.3158 20.6653 28.3636 20.5543 28.3158L17.4866 27.0444C17.3754 26.9968 17.3119 26.8537 17.3595 26.7425C17.4072 26.6153 17.5503 26.5676 17.6615 26.6153L20.729 27.8868C20.8561 27.9344 20.9039 28.0775 20.8561 28.1887V28.1889Z" fill="#F3F3F3" />
		<path d="M20.872 28.2046C20.8488 28.2657 20.8022 28.315 20.7426 28.3418C20.683 28.3687 20.6152 28.3708 20.5541 28.3477L17.4866 27.0762C17.3595 27.0286 17.3119 26.8855 17.3595 26.7425C17.3827 26.6814 17.4293 26.6321 17.4889 26.6052C17.5485 26.5784 17.6163 26.5763 17.6774 26.5994L20.7449 27.8709C20.872 27.9344 20.9196 28.0776 20.872 28.2046V28.2046ZM17.3913 26.7584C17.3437 26.8696 17.3913 26.9968 17.5025 27.0444L20.57 28.3158C20.6812 28.3636 20.7925 28.2999 20.8402 28.1887C20.8878 28.0775 20.8402 27.9503 20.729 27.9027L17.6615 26.6312C17.5503 26.5994 17.4231 26.6472 17.3913 26.7584V26.7584Z" fill="white" />
		<path d="M19.823 26.0429C19.7595 26.1541 19.6324 26.2018 19.5212 26.1541L18.2019 25.4867C18.0907 25.4389 18.043 25.2959 18.1066 25.1687C18.1701 25.0575 18.2973 25.0098 18.4085 25.0575L19.7275 25.7251C19.8389 25.7886 19.8867 25.9318 19.823 26.0429Z" fill="#F3F3F3" />
		<path d="M19.8389 26.0586C19.7753 26.1858 19.6322 26.2335 19.5051 26.1699L18.186 25.5023C18.0589 25.4388 18.0111 25.2958 18.0748 25.1686C18.1383 25.0415 18.2815 24.9937 18.4085 25.0574L19.7275 25.7249C19.8549 25.7725 19.9024 25.9317 19.8389 26.0586V26.0586ZM18.1224 25.1845C18.0748 25.2958 18.1066 25.4229 18.2178 25.4706L19.5369 26.1382C19.6324 26.1858 19.7595 26.1382 19.823 26.0427C19.8706 25.9315 19.8389 25.8044 19.7277 25.7566L18.3924 25.0894C18.2971 25.0418 18.1699 25.0735 18.1222 25.1847L18.1224 25.1845Z" fill="white" />
		<path d="M22.1593 25.741C22.0799 25.8524 21.9527 25.8842 21.8415 25.8046L19.0918 23.977C18.9807 23.9133 18.9648 23.7702 19.0283 23.659C19.092 23.5478 19.235 23.5159 19.3463 23.5954L22.1117 25.4391C22.207 25.5027 22.2389 25.6458 22.1593 25.741Z" fill="#F3F3F3" />
		<path d="M22.1752 25.7569C22.0958 25.8683 21.9368 25.8999 21.8257 25.8365L19.0761 23.9927C18.9648 23.9133 18.933 23.7702 19.0124 23.6433C19.092 23.5319 19.2509 23.5 19.3622 23.5637L22.1117 25.4073C22.2389 25.4868 22.2548 25.6456 22.1752 25.7569ZM19.0442 23.659C18.9807 23.7543 18.9967 23.8974 19.0918 23.9609L21.8574 25.8048C21.9527 25.8684 22.0799 25.8366 22.1435 25.7413C22.207 25.6458 22.1911 25.5027 22.096 25.4393L19.3302 23.5955C19.2349 23.5319 19.1077 23.5637 19.0441 23.659H19.0442Z" fill="white" />
		<path d="M21.5713 23.4363C21.4919 23.5317 21.3488 23.5635 21.2535 23.4839L20.0932 22.5781C19.9979 22.4985 19.982 22.3555 20.0614 22.2602C20.1408 22.1648 20.2839 22.133 20.3794 22.2126L21.5395 23.1184C21.6349 23.1979 21.6509 23.3408 21.5713 23.4363V23.4363Z" fill="#F3F3F3" />
		<path d="M21.5872 23.4519C21.5078 23.5633 21.3488 23.5793 21.2376 23.4997L20.0773 22.5939C19.9661 22.5145 19.9502 22.3555 20.0298 22.2444C20.1092 22.133 20.2681 22.1171 20.3792 22.1967L21.5395 23.1025C21.6509 23.1821 21.6668 23.3409 21.5872 23.4523V23.4519ZM20.0614 22.26C19.982 22.3554 19.9979 22.4825 20.0932 22.5619L21.2535 23.468C21.3488 23.5315 21.476 23.5156 21.5554 23.4203C21.6349 23.325 21.619 23.1978 21.5237 23.1184L20.3635 22.2123C20.2681 22.1488 20.1408 22.1647 20.0616 22.26H20.0614Z" fill="white" />
		<path d="M23.9394 23.5952C23.8442 23.6907 23.701 23.6907 23.6216 23.5952L21.2537 21.2589C21.1583 21.1636 21.1741 21.0206 21.2537 20.941C21.349 20.8458 21.492 20.8458 21.5714 20.941L23.9238 23.2774C24.0191 23.3568 24.0191 23.5158 23.9397 23.5954L23.9394 23.5952Z" fill="#F3F3F3" />
		<path d="M23.9394 23.6114C23.8927 23.6572 23.83 23.6828 23.7646 23.6828C23.6993 23.6828 23.6365 23.6572 23.5899 23.6114L21.2374 21.2748C21.1915 21.2282 21.1658 21.1654 21.1658 21.0999C21.1658 21.0345 21.1915 20.9717 21.2374 20.925C21.2841 20.8792 21.3468 20.8535 21.4122 20.8535C21.4776 20.8535 21.5404 20.8792 21.587 20.925L23.9394 23.2615C24.0506 23.3568 24.0506 23.5158 23.9394 23.6111V23.6114ZM21.2696 20.9569C21.19 21.0364 21.19 21.1795 21.2696 21.2587L23.6217 23.5952C23.7013 23.6747 23.8442 23.6747 23.9236 23.5952C24.0032 23.5158 24.0032 23.3727 23.9236 23.2933L21.5714 20.9411C21.492 20.8617 21.3647 20.8617 21.2696 20.957V20.9569Z" fill="white" />
		<path d="M23.7965 21.2272C23.7011 21.3068 23.5581 21.3068 23.4785 21.2113L22.5089 20.0988C22.4297 20.0035 22.4454 19.8604 22.5409 19.781C22.636 19.7014 22.7793 19.7014 22.8587 19.7967L23.8283 20.9094C23.9077 20.9888 23.8918 21.1319 23.7965 21.2272Z" fill="#F3F3F3" />
		<path d="M23.8124 21.2272C23.7011 21.3226 23.5581 21.3068 23.4626 21.2113L22.4931 20.0988C22.3978 20.0035 22.4137 19.8445 22.525 19.7492C22.6362 19.6537 22.7793 19.6696 22.8746 19.7651L23.8442 20.8775C23.9236 20.9889 23.9236 21.1478 23.8124 21.2272V21.2272ZM22.5409 19.781C22.4454 19.8604 22.4454 19.9876 22.5091 20.0829L23.4787 21.1954C23.5581 21.275 23.6852 21.2909 23.7805 21.2113C23.8759 21.1319 23.8759 21.0046 23.8124 20.9095L22.8428 19.7968C22.7634 19.7016 22.636 19.7016 22.5409 19.781V19.781Z" fill="white" />
		<path d="M26.0851 21.831C25.9739 21.9104 25.8308 21.8786 25.7672 21.7673L23.9077 19.0176C23.844 18.9064 23.8759 18.7633 23.9712 18.6998C24.0824 18.6204 24.2255 18.6523 24.2891 18.7635L26.1327 21.513C26.2123 21.6243 26.1805 21.7673 26.0851 21.8308V21.831Z" fill="#F3F3F3" />
		<path d="M26.0851 21.847C25.9739 21.9265 25.8149 21.8946 25.7354 21.7835L23.8918 19.0338C23.8124 18.9226 23.8442 18.7638 23.9712 18.6843C24.0824 18.6048 24.2414 18.6366 24.321 18.7478L26.1645 21.4974C26.2439 21.6245 26.2121 21.7676 26.0851 21.847ZM23.9869 18.716C23.8916 18.7795 23.8598 18.9067 23.9234 19.0021L25.767 21.7517C25.8307 21.847 25.9578 21.8629 26.0689 21.7992C26.1644 21.7357 26.1962 21.6086 26.1325 21.5133L24.2891 18.7795C24.2255 18.6843 24.0824 18.6524 23.9873 18.716H23.9869Z" fill="white" />
		<path d="M26.4188 19.4788C26.3076 19.5423 26.1645 19.5107 26.101 19.3994L25.3698 18.112C25.3063 18.0008 25.3539 17.8577 25.4653 17.7941C25.5765 17.7306 25.7196 17.7623 25.7831 17.8737L26.5142 19.1609C26.5619 19.2721 26.5301 19.4152 26.419 19.4788H26.4188Z" fill="#F3F3F3" />
		<path d="M26.4188 19.4948C26.2917 19.5583 26.1486 19.5266 26.0851 19.4152L25.3539 18.128C25.2904 18.0166 25.3222 17.8577 25.4494 17.7941C25.5765 17.7306 25.7196 17.7623 25.7831 17.8737L26.5142 19.1609C26.5778 19.2721 26.546 19.4152 26.419 19.4948H26.4188ZM25.4653 17.81C25.3698 17.8735 25.3222 18.0006 25.3857 18.0961L26.117 19.3835C26.1805 19.4787 26.3076 19.5107 26.4029 19.4629C26.4984 19.3994 26.546 19.2721 26.4825 19.1768L25.7513 17.8894C25.7037 17.7943 25.5606 17.7463 25.4653 17.81V17.81Z" fill="white" />
		<path d="M28.5326 20.5281C28.4056 20.5757 28.2783 20.5281 28.2307 20.4169L26.9433 17.3492C26.8958 17.238 26.9593 17.0949 27.0705 17.0472C27.1976 16.9996 27.3248 17.0472 27.3724 17.1584L28.6598 20.2259C28.7075 20.3371 28.644 20.4802 28.5326 20.5278V20.5281Z" fill="#F3F3F3" />
		<path d="M28.5326 20.5439C28.4056 20.5914 28.2626 20.5439 28.1989 20.4165L26.9115 17.3492C26.8884 17.2881 26.8905 17.2203 26.9173 17.1607C26.9442 17.1011 26.9935 17.0546 27.0546 17.0313C27.1817 16.9837 27.3248 17.0313 27.3884 17.1584L28.6757 20.2259C28.7234 20.3371 28.6599 20.4802 28.5328 20.5439H28.5326ZM27.0864 17.0631C26.9752 17.1107 26.9274 17.238 26.9752 17.3333L28.2624 20.4006C28.31 20.5119 28.4371 20.5594 28.5484 20.5119C28.6596 20.4643 28.7075 20.337 28.6596 20.2417L27.3724 17.1742C27.3087 17.0629 27.1975 17.0152 27.0862 17.0629L27.0864 17.0631Z" fill="white" />
		<path d="M29.3114 18.271C29.1843 18.3185 29.0571 18.2549 29.0095 18.1279L28.5485 16.7291C28.501 16.6179 28.5804 16.4748 28.6916 16.4431C28.8028 16.4113 28.9459 16.4591 28.9935 16.5862L29.4545 17.9848C29.5021 18.0961 29.4386 18.2232 29.3114 18.2708V18.271Z" fill="#F3F3F3" />
		<path d="M29.3273 18.287C29.2662 18.31 29.1985 18.3079 29.1389 18.2811C29.0793 18.2543 29.0328 18.2049 29.0095 18.1439L28.5485 16.7453C28.501 16.6181 28.5804 16.4752 28.7077 16.4275C28.7688 16.4045 28.8366 16.4066 28.8961 16.4334C28.9557 16.4602 29.0022 16.5095 29.0255 16.5705L29.4863 17.9692C29.5181 18.0963 29.4545 18.2394 29.3273 18.287V18.287ZM28.7075 16.4593C28.5963 16.491 28.5326 16.6181 28.5644 16.7294L29.0255 18.1282C29.0571 18.2394 29.1843 18.287 29.2957 18.2551C29.4069 18.2235 29.4704 18.0963 29.4386 17.9851L28.9777 16.5863C28.9696 16.5593 28.9559 16.5343 28.9375 16.513C28.9191 16.4917 28.8965 16.4744 28.871 16.4624C28.8455 16.4505 28.8178 16.444 28.7896 16.4434C28.7614 16.4428 28.7335 16.4482 28.7075 16.4592V16.4593Z" fill="white" />
		<path d="M31.187 19.7171C31.0598 19.7489 30.9327 19.6695 30.9168 19.5422L30.2492 16.2841C30.2174 16.1569 30.3129 16.0457 30.4398 16.0139C30.5672 15.982 30.6941 16.0614 30.7101 16.1888L31.3778 19.447C31.3935 19.5581 31.3141 19.6853 31.187 19.7171V19.7171Z" fill="#F3F3F3" />
		<path d="M31.187 19.7334C31.0439 19.7652 30.9168 19.6697 30.8849 19.5426L30.2174 16.2845C30.1855 16.1573 30.281 16.0143 30.4082 15.9984C30.5512 15.9665 30.6784 16.062 30.7101 16.1892L31.3778 19.4474C31.4095 19.5744 31.33 19.7017 31.187 19.7334V19.7334ZM30.44 16.0302C30.3286 16.0461 30.2492 16.1573 30.2651 16.2845L30.9327 19.5428C30.9486 19.6538 31.0756 19.7334 31.187 19.7016C31.2982 19.6857 31.3776 19.5744 31.3617 19.4473L30.6941 16.189C30.6625 16.0779 30.5512 16.0143 30.4398 16.0302H30.44Z" fill="white" />
		<path d="M32.3948 17.6509C32.2677 17.6669 32.1564 17.5875 32.1246 17.4603L31.934 15.998C31.918 15.8709 32.0134 15.7596 32.1407 15.7437C32.2677 15.7278 32.3789 15.8074 32.4107 15.9345L32.6014 17.3966C32.6173 17.5238 32.522 17.635 32.3948 17.6509V17.6509Z" fill="#F3F3F3" />
		<path d="M32.3948 17.6668C32.2517 17.6827 32.1246 17.5874 32.1087 17.4601L31.918 15.998C31.9021 15.8708 31.9975 15.7437 32.1405 15.7278C32.2836 15.712 32.4107 15.8073 32.4266 15.9345L32.6173 17.3966C32.6332 17.5238 32.5379 17.6509 32.3948 17.6668V17.6668ZM32.1564 15.7596C32.0452 15.7755 31.9497 15.8868 31.9656 15.998L32.1564 17.4603C32.1723 17.5715 32.2836 17.6509 32.3948 17.635C32.506 17.6193 32.6015 17.5079 32.5856 17.3966L32.3948 15.9345C32.3789 15.8233 32.2677 15.7437 32.1564 15.7596V15.7596Z" fill="white" />
		<path d="M34.1114 52.4738C44.5043 52.4738 52.9294 44.0487 52.9294 33.6559C52.9294 23.263 44.5043 14.8379 34.1114 14.8379C23.7185 14.8379 15.2934 23.263 15.2934 33.6559C15.2934 44.0487 23.7185 52.4738 34.1114 52.4738Z" fill="url(#paint3_linear_369_504)" fill-opacity="0.2" />
		<g filter="url(#filter1_d_369_504)">
			<path d="M47.144 21.7197L31.9656 31.4467H31.9497V31.4624L31.9338 31.4783L22.4615 47.1018L36.3842 35.8969L36.4001 35.8811V35.8652L47.1442 21.7199L47.144 21.7197Z" fill="black" fill-opacity="0.05" />
		</g>
		<path d="M46.8579 20.814L31.8544 31.4785L36.3046 35.8969L46.8579 20.814" fill="#CD151E" />
		<path d="M31.8703 31.4469L34.1114 33.656L46.8579 20.814L31.8703 31.4469V31.4469Z" fill="#FA5153" />
		<path d="M31.8703 31.4469L36.3205 35.8651L21.317 46.5299L31.8703 31.4468V31.4469Z" fill="#ACACAC" />
		<path d="M21.317 46.5299L34.1112 33.656L31.8701 31.4468L21.317 46.5299Z" fill="#EEEEEE" />
	</g>
	<defs>
		<filter id="filter0_d_369_504" x="9.65625" y="11.3281" width="48.6875" height="48.6875" filterUnits="userSpaceOnUse" color-interpolation-filters="sRGB">
			<feFlood flood-opacity="0" result="BackgroundImageFix" />
			<feColorMatrix in="SourceAlpha" type="matrix" values="0 0 0 0 0 0 0 0 0 0 0 0 0 0 0 0 0 0 127 0" result="hardAlpha" />
			<feOffset dy="2" />
			<feGaussianBlur stdDeviation="2" />
			<feColorMatrix type="matrix" values="0 0 0 0 0 0 0 0 0 0 0 0 0 0 0 0 0 0 0.266007 0" />
			<feBlend mode="normal" in2="BackgroundImageFix" result="effect1_dropShadow_369_504" />
			<feBlend mode="normal" in="SourceGraphic" in2="effect1_dropShadow_369_504" result="shape" />
		</filter>
		<filter id="filter1_d_369_504" x="18.4615" y="18.7197" width="32.6827" height="33.3823" filterUnits="userSpaceOnUse" color-interpolation-filters="sRGB">
			<feFlood flood-opacity="0" result="BackgroundImageFix" />
			<feColorMatrix in="SourceAlpha" type="matrix" values="0 0 0 0 0 0 0 0 0 0 0 0 0 0 0 0 0 0 127 0" result="hardAlpha" />
			<feOffset dy="1" />
			<feGaussianBlur stdDeviation="2" />
			<feColorMatrix type="matrix" values="0 0 0 0 0 0 0 0 0 0 0 0 0 0 0 0 0 0 1 0" />
			<feBlend mode="normal" in2="BackgroundImageFix" result="effect1_dropShadow_369_504" />
			<feBlend mode="normal" in="SourceGraphic" in2="effect1_dropShadow_369_504" result="shape" />
		</filter>
		<linearGradient id="paint0_linear_369_504" x1="6.5" y1="65.5" x2="70.5" y2="4.5" gradientUnits="userSpaceOnUse">
			<stop stop-color="#1955A5" />
			<stop offset="1" stop-color="#2CA8E7" />
		</linearGradient>
		<linearGradient id="paint1_linear_369_504" x1="34" y1="54.0156" x2="34" y2="13.3281" gradientUnits="userSpaceOnUse">
			<stop offset="0.25" stop-color="#DBDBDA" />
			<stop offset="1" stop-color="white" />
		</linearGradient>
		<radialGradient id="paint2_radial_369_504" cx="0" cy="0" r="1" gradientUnits="userSpaceOnUse" gradientTransform="translate(36.6439 29.5384) scale(22.97)">
			<stop stop-color="#2ABCE1" />
			<stop offset="0.11363" stop-color="#2ABBE1" />
			<stop offset="1" stop-color="#3375F8" />
		</radialGradient>
		<linearGradient id="paint3_linear_369_504" x1="33.7539" y1="28.275" x2="24.9708" y2="44.0328" gradientUnits="userSpaceOnUse">
			<stop stop-opacity="0" />
			<stop offset="1" />
		</linearGradient>
		<clipPath id="clip0_369_504">
			<rect width="42" height="42" fill="white" transform="translate(13 13)" />
		</clipPath>
	</defs>
</svg>
