<svg width="50" height="50" viewBox="0 0 50 50" fill="none" xmlns="http://www.w3.org/2000/svg">
	<path fill-rule="evenodd" clip-rule="evenodd" d="M32.5679 0C37.5875 0 40.0967 0 42.7988 0.854167C45.7488 1.92792 48.0721 4.25125 49.1458 7.20125C50 9.90292 50 12.4129 50 17.4321V32.5679C50 37.5875 50 40.0967 49.1458 42.7988C48.0721 45.7488 45.7488 48.0721 42.7988 49.1454C40.0967 50 37.5875 50 32.5679 50H17.4321C12.4125 50 9.90292 50 7.20125 49.1454C4.25125 48.0721 1.92792 45.7488 0.854167 42.7988C0 40.0967 0 37.5875 0 32.5679V17.4321C0 12.4129 0 9.90292 0.854167 7.20125C1.92792 4.25125 4.25125 1.92792 7.20125 0.854167C9.90292 0 12.4125 0 17.4321 0H32.5679Z" fill="url(#paint0_linear_1280_335)" />
	<path fill-rule="evenodd" clip-rule="evenodd" d="M11.4848 21.8155C9.63206 18.4581 8.92578 15.7516 8.92578 13.9234C8.92578 12.0953 9.37515 11.571 9.83113 11.1474C10.2871 10.7238 12.3433 9.45673 12.6936 9.22042C13.044 8.98411 14.3811 8.52487 15.2196 9.73054C16.0582 10.9362 17.6372 13.3569 18.7259 14.965C20.4342 17.2428 19.0732 18.2427 18.6336 18.8421C17.8247 19.9449 17.3589 20.2169 17.3589 21.571C17.3589 22.9252 21.1452 26.7724 22.0506 27.7203C22.949 28.661 26.7218 31.9668 27.8908 32.1435C29.0681 32.3216 30.6441 31.0758 30.9792 30.7599C32.6838 29.4518 33.646 30.4435 34.4312 30.8746C35.2164 31.3057 38.764 33.5152 39.8633 34.26C40.898 35.0048 40.8334 36.1558 40.8334 36.1558C40.8334 36.1558 40.0972 38.3037 38.4406 39.9475C38.0333 40.3516 37.3413 40.8277 35.5952 40.8277C33.8492 40.8277 31.9836 40.5089 27.55 38.0718C23.9223 36.0776 20.4641 32.9549 18.6534 31.1268C16.778 29.2987 13.6011 25.6505 11.4848 21.8155Z" fill="white" />
	<defs>
		<linearGradient id="paint0_linear_1280_335" x1="0" y1="0" x2="0" y2="50" gradientUnits="userSpaceOnUse">
			<stop stop-color="#67FF81" />
			<stop offset="1" stop-color="#01B41F" />
		</linearGradient>
	</defs>
</svg>
