<svg width="50" height="50" viewBox="0 0 50 50" fill="none" xmlns="http://www.w3.org/2000/svg">
	<path fill-rule="evenodd" clip-rule="evenodd" d="M32.5679 0C37.5875 0 40.0967 0 42.7988 0.854167C45.7487 1.92792 48.0721 4.25125 49.1458 7.20125C50 9.90292 50 12.4129 50 17.4321V32.5679C50 37.5875 50 40.0967 49.1458 42.7988C48.0721 45.7487 45.7487 48.0721 42.7988 49.1454C40.0967 50 37.5875 50 32.5679 50H17.4321C12.4125 50 9.90292 50 7.20125 49.1454C4.25125 48.0721 1.92792 45.7487 0.854167 42.7988C0 40.0967 0 37.5875 0 32.5679V17.4321C0 12.4129 0 9.90292 0.854167 7.20125C1.92792 4.25125 4.25125 1.92792 7.20125 0.854167C9.90292 0 12.4125 0 17.4321 0H32.5679Z" fill="url(#paint0_linear_369_3295)" />
	<path fill-rule="evenodd" clip-rule="evenodd" d="M43.3328 24.3753C43.3328 32.7747 35.1247 39.5837 24.9995 39.5837C23.775 39.5837 22.5785 39.4841 21.4212 39.2941C20.4019 39.1954 19.7965 39.2899 18.7517 39.6131C18.3653 39.7326 17.9139 39.974 17.3965 40.2506C16.2375 40.8703 14.7476 41.667 12.9163 41.667C12.8818 41.667 12.9978 41.5521 13.1964 41.3555C13.8538 40.7045 15.4163 39.1572 15.4163 37.917V37.343C10.167 34.6678 6.66615 29.8607 6.66615 24.3753C6.66615 15.976 14.8743 9.16699 24.9995 9.16699C35.1247 9.16699 43.3328 15.976 43.3328 24.3753Z" fill="white" />
	<defs>
		<linearGradient id="paint0_linear_369_3295" x1="0" y1="0" x2="0" y2="50" gradientUnits="userSpaceOnUse">
			<stop stop-color="#67FF81" />
			<stop offset="1" stop-color="#01B41F" />
		</linearGradient>
	</defs>
</svg>
