<svg width="10" height="10" viewBox="0 0 10 10" fill="none" xmlns="http://www.w3.org/2000/svg">
	<path d="M9.45948 1.31739L6.48298 9.35739C6.29498 9.86539 5.75348 10.1264 5.27398 9.93989C5.15524 9.89286 5.04751 9.82175 4.95759 9.73106C4.86767 9.64036 4.79749 9.53203 4.75148 9.41289L3.80798 7.02789C3.63067 6.57007 3.27919 6.20114 2.83048 6.00189L0.559477 5.01139C0.0869773 4.80489 -0.128023 4.23239 0.0784773 3.73239C0.127321 3.61166 0.199622 3.50182 0.291197 3.40921C0.382771 3.31661 0.491801 3.24308 0.611977 3.19289L8.26998 0.0678924C8.75348 -0.129608 9.28998 0.118392 9.46748 0.622392C9.54598 0.845392 9.54298 1.09239 9.45998 1.31739H9.45948Z" fill="white" />
</svg>
