<svg width="352" height="712" viewBox="0 0 352 712" fill="none" xmlns="http://www.w3.org/2000/svg">
	<g clip-path="url(#clip0_7_3)">
		<path d="M0.788809 137.346H5.81119C6.24819 137.346 6.6 137.712 6.6 138.166V163.994C6.6 164.449 6.24819 164.815 5.81119 164.815H0.788809C0.351809 164.815 0 164.449 0 163.994V138.166C0 137.712 0.351809 137.346 0.788809 137.346Z" fill="#121212" />
		<path d="M0.744154 138.444H5.85585C6.26811 138.444 6.6 138.781 6.6 139.199V162.961C6.6 163.38 6.26811 163.716 5.85585 163.716H0.744154C0.331893 163.716 0 163.38 0 162.961V139.199C0 138.781 0.331893 138.444 0.744154 138.444Z" fill="url(#paint0_linear_7_3)" />
		<path d="M0.788809 188.988H5.81119C6.24819 188.988 6.6 189.355 6.6 189.811V243.103C6.6 243.559 6.24819 243.926 5.81119 243.926H0.788809C0.351809 243.926 0 243.559 0 243.103V189.811C0 189.355 0.351809 188.988 0.788809 188.988Z" fill="#2E2E2E" />
		<path d="M0.744154 188.988H5.85585C6.26811 188.988 6.6 189.33 6.6 189.756V240.96C6.6 241.386 6.26811 241.728 5.85585 241.728H0.744154C0.331893 241.728 0 241.386 0 240.96V189.756C0 189.33 0.331893 188.988 0.744154 188.988Z" fill="url(#paint1_linear_7_3)" />
		<path d="M0.788809 257.111H5.81119C6.24819 257.111 6.6 257.478 6.6 257.934V311.226C6.6 311.682 6.24819 312.049 5.81119 312.049H0.788809C0.351809 312.049 0 311.682 0 311.226V257.934C0 257.478 0.351809 257.111 0.788809 257.111Z" fill="#0C0C0C" />
		<path d="M0.744154 258.21H5.85585C6.26811 258.21 6.6 258.553 6.6 258.978V310.183C6.6 310.608 6.26811 310.951 5.85585 310.951H0.744154C0.331893 310.951 0 310.608 0 310.183V258.978C0 258.553 0.331893 258.21 0.744154 258.21Z" fill="url(#paint2_linear_7_3)" />
		<path d="M351.211 226.346H346.189C345.752 226.346 345.4 226.712 345.4 227.166V311.229C345.4 311.683 345.752 312.049 346.189 312.049H351.211C351.648 312.049 352 311.683 352 311.229V227.166C352 226.712 351.648 226.346 351.211 226.346Z" fill="#443C46" />
		<path d="M351.256 226.346H346.144C345.732 226.346 345.4 226.688 345.4 227.115V309.083C345.4 309.509 345.732 309.852 346.144 309.852H351.256C351.668 309.852 352 309.509 352 309.083V227.115C352 226.688 351.668 226.346 351.256 226.346Z" fill="url(#paint3_linear_7_3)" />
		<path fill-rule="evenodd" clip-rule="evenodd" d="M63.0727 1.09875H287.827C320.839 1.09875 347.6 27.8183 347.6 60.7785V651.222C347.6 684.181 320.839 710.901 287.827 710.901H63.0727C30.0612 710.901 3.30005 684.181 3.30005 651.222V60.7785C3.30005 27.8183 30.0612 1.09875 63.0727 1.09875ZM61.0907 16.4815H290.909C314.321 16.4815 333.3 35.442 333.3 58.8311V654.268C333.3 677.657 314.321 696.617 290.909 696.617H61.0907C37.679 696.617 18.7 677.657 18.7 654.268V58.8311C18.7 35.442 37.679 16.4815 61.0907 16.4815Z" fill="#E8E4EA" />
		<path d="M287.827 0H63.0726V2.19753H287.827V0ZM348.7 60.7785C348.7 27.211 321.446 0 287.827 0V2.19753C320.232 2.19753 346.5 28.4256 346.5 60.7785H348.7ZM348.7 651.222V60.7785H346.5V651.222H348.7ZM287.827 712C321.446 712 348.7 684.789 348.7 651.222H346.5C346.5 683.574 320.232 709.802 287.827 709.802V712ZM63.0726 712H287.827V709.802H63.0726V712ZM2.19995 651.222C2.19995 684.789 29.454 712 63.0726 712V709.802C30.6682 709.802 4.39995 683.574 4.39995 651.222H2.19995ZM2.19995 60.7785V651.222H4.39995V60.7785H2.19995ZM63.0726 0C29.454 0 2.19995 27.211 2.19995 60.7785H4.39995C4.39995 28.4256 30.6682 2.19753 63.0726 2.19753V0ZM342.65 58.2346C342.65 34.2388 320.47 7.14197 296.45 7.14197C319.254 7.14197 342.65 35.4522 342.65 58.2346ZM289.85 707.056C313.87 707.056 343.2 678.86 343.2 654.864C343.2 677.647 312.654 707.056 289.85 707.056ZM11 653.216C11 677.212 34.8306 704.309 58.85 704.309C36.0459 704.309 11 675.999 11 653.216ZM63.0726 7.14197C39.0533 7.14197 8.79995 33.1401 8.79995 57.1358C8.79995 34.3534 40.2685 7.14197 63.0726 7.14197Z" fill="#272727" />
		<g filter="url(#filter0_f_7_3)">
			<path fill-rule="evenodd" clip-rule="evenodd" d="M64.4587 3.29633H286.441C319.003 3.29633 345.4 29.6728 345.4 62.2098V650.889C345.4 683.426 319.003 709.802 286.441 709.802H64.4587C31.8967 709.802 5.5 683.426 5.5 650.889V62.2098C5.5 29.6728 31.8967 3.29633 64.4587 3.29633ZM61.0907 16.4815H290.909C314.321 16.4815 333.3 35.442 333.3 58.8311V654.268C333.3 677.657 314.321 696.617 290.909 696.617H61.0907C37.679 696.617 18.7 677.657 18.7 654.268V58.8311C18.7 35.442 37.679 16.4815 61.0907 16.4815Z" fill="#49454B" />
		</g>
		<path fill-rule="evenodd" clip-rule="evenodd" d="M64.4587 3.29633H286.441C319.003 3.29633 345.4 29.6728 345.4 62.2098V650.889C345.4 683.426 319.003 709.802 286.441 709.802H64.4587C31.8967 709.802 5.5 683.426 5.5 650.889V62.2098C5.5 29.6728 31.8967 3.29633 64.4587 3.29633ZM61.0907 16.4815H290.909C314.321 16.4815 333.3 35.442 333.3 58.8311V654.268C333.3 677.657 314.321 696.617 290.909 696.617H61.0907C37.679 696.617 18.7 677.657 18.7 654.268V58.8311C18.7 35.442 37.679 16.4815 61.0907 16.4815Z" fill="#212121" />
		<g filter="url(#filter1_f_7_3)">
			<path fill-rule="evenodd" clip-rule="evenodd" d="M64.4769 5.49384H287.524C318.273 5.49384 343.2 30.3705 343.2 61.0574V652.041C343.2 682.728 318.273 707.605 287.524 707.605H64.4769C33.7275 707.605 8.80005 682.728 8.80005 652.041V61.0574C8.80005 30.3705 33.7275 5.49384 64.4769 5.49384ZM61.0907 16.4815H290.909C314.321 16.4815 333.3 35.442 333.3 58.8311V654.268C333.3 677.657 314.321 696.617 290.909 696.617H61.0907C37.679 696.617 18.7 677.657 18.7 654.268V58.8311C18.7 35.442 37.679 16.4815 61.0907 16.4815Z" fill="black" />
		</g>
		<path fill-rule="evenodd" clip-rule="evenodd" d="M64.4769 5.49384H287.524C318.273 5.49384 343.2 30.3705 343.2 61.0574V652.041C343.2 682.728 318.273 707.605 287.524 707.605H64.4769C33.7275 707.605 8.80005 682.728 8.80005 652.041V61.0574C8.80005 30.3705 33.7275 5.49384 64.4769 5.49384ZM61.0907 16.4815H290.909C314.321 16.4815 333.3 35.442 333.3 58.8311V654.268C333.3 677.657 314.321 696.617 290.909 696.617H61.0907C37.679 696.617 18.7 677.657 18.7 654.268V58.8311C18.7 35.442 37.679 16.4815 61.0907 16.4815Z" fill="black" />
		<path d="M276.1 1.09875H271.7V5.49382H276.1V1.09875Z" fill="url(#paint4_linear_7_3)" />
		<path d="M348.7 80.2099V75.8148H343.2V80.2099H348.7Z" fill="url(#paint5_linear_7_3)" />
		<path d="M3.30005 80.2099V75.8148H8.80005V80.2099H3.30005Z" fill="url(#paint6_linear_7_3)" />
		<path d="M75.9 710.901H80.3V706.506H75.9V710.901Z" fill="url(#paint7_linear_7_3)" />
		<path d="M3.30005 631.79V636.185H8.80005V631.79H3.30005Z" fill="url(#paint8_linear_7_3)" />
		<path d="M348.7 631.79V636.185H343.2V631.79H348.7Z" fill="url(#paint9_linear_7_3)" />
		<path d="M138.6 5.49384C142.486 5.49384 142.386 6.17505 143.191 6.94801C143.778 7.51178 144.534 7.69137 146.023 7.69137H207.077C208.565 7.69137 209.32 7.51178 209.907 6.94801C210.712 6.17505 210.614 5.49384 214.5 5.49384H138.6Z" fill="url(#paint10_linear_7_3)" />
		<path d="M208.045 30H146.955C139.8 30 134 35.5965 134 42.5C134 49.4035 139.8 55 146.955 55H208.045C215.2 55 221 49.4035 221 42.5C221 35.5965 215.2 30 208.045 30Z" fill="black" />
		<path d="M205.05 49.0864C208.392 49.0864 211.1 46.3808 211.1 43.0432C211.1 39.7056 208.392 37 205.05 37C201.708 37 199 39.7056 199 43.0432C199 46.3808 201.708 49.0864 205.05 49.0864Z" fill="#0A0A0A" />
		<path d="M205.05 46.8889C207.176 46.8889 208.9 45.1671 208.9 43.0432C208.9 40.9193 207.176 39.1975 205.05 39.1975C202.924 39.1975 201.2 40.9193 201.2 43.0432C201.2 45.1671 202.924 46.8889 205.05 46.8889Z" fill="#0A0D13" />
		<path d="M205.05 45.7901C206.569 45.7901 207.8 44.5603 207.8 43.0432C207.8 41.5261 206.569 40.2963 205.05 40.2963C203.531 40.2963 202.3 41.5261 202.3 43.0432C202.3 44.5603 203.531 45.7901 205.05 45.7901Z" fill="#091427" />
		<g filter="url(#filter2_f_7_3)">
			<path fill-rule="evenodd" clip-rule="evenodd" d="M203.001 40.2963C202.725 40.3338 202.331 40.8769 202.301 41.9444C202.273 43.012 202.637 43.5926 202.841 43.5926C203.045 43.5926 203.891 42.0381 203.001 40.2963Z" fill="#235A91" fill-opacity="0.556075" />
		</g>
		<g filter="url(#filter3_f_7_3)">
			<path fill-rule="evenodd" clip-rule="evenodd" d="M206.172 40.3816C205.678 40.554 205.584 41.459 205.602 41.9762C205.621 42.4934 206.268 43.851 207.047 43.5493C207.826 43.2477 207.96 42.1271 207.636 41.3729C207.313 40.6186 206.723 40.0798 206.172 40.3816Z" fill="#235A91" fill-opacity="0.556075" />
		</g>
	</g>
	<defs>
		<filter id="filter0_f_7_3" x="4.15987" y="1.9562" width="342.58" height="709.186" filterUnits="userSpaceOnUse" color-interpolation-filters="sRGB">
			<feFlood flood-opacity="0" result="BackgroundImageFix" />
			<feBlend mode="normal" in="SourceGraphic" in2="BackgroundImageFix" result="shape" />
			<feGaussianBlur stdDeviation="0.670065" result="effect1_foregroundBlur_7_3" />
		</filter>
		<filter id="filter1_f_7_3" x="7.47331" y="4.1671" width="337.053" height="704.765" filterUnits="userSpaceOnUse" color-interpolation-filters="sRGB">
			<feFlood flood-opacity="0" result="BackgroundImageFix" />
			<feBlend mode="normal" in="SourceGraphic" in2="BackgroundImageFix" result="shape" />
			<feGaussianBlur stdDeviation="0.663367" result="effect1_foregroundBlur_7_3" />
		</filter>
		<filter id="filter2_f_7_3" x="202.084" y="40.0806" width="1.5319" height="3.72761" filterUnits="userSpaceOnUse" color-interpolation-filters="sRGB">
			<feFlood flood-opacity="0" result="BackgroundImageFix" />
			<feBlend mode="normal" in="SourceGraphic" in2="BackgroundImageFix" result="shape" />
			<feGaussianBlur stdDeviation="0.107828" result="effect1_foregroundBlur_7_3" />
		</filter>
		<filter id="filter3_f_7_3" x="205.384" y="40.0806" width="2.63163" height="3.72758" filterUnits="userSpaceOnUse" color-interpolation-filters="sRGB">
			<feFlood flood-opacity="0" result="BackgroundImageFix" />
			<feBlend mode="normal" in="SourceGraphic" in2="BackgroundImageFix" result="shape" />
			<feGaussianBlur stdDeviation="0.107828" result="effect1_foregroundBlur_7_3" />
		</filter>
		<linearGradient id="paint0_linear_7_3" x1="5.85585" y1="138.444" x2="5.85585" y2="163.716" gradientUnits="userSpaceOnUse">
			<stop />
			<stop offset="0.08" stop-color="#090909" />
			<stop offset="0.14" stop-color="#414141" />
			<stop offset="0.86" stop-color="#0C0C0C" />
			<stop offset="0.928265" stop-color="#1A1A1A" />
			<stop offset="1" stop-color="#1B1B1B" />
		</linearGradient>
		<linearGradient id="paint1_linear_7_3" x1="5.85585" y1="188.988" x2="5.85585" y2="241.728" gradientUnits="userSpaceOnUse">
			<stop stop-color="#0F0F0F" />
			<stop offset="0.08" stop-color="#4A4A4A" />
			<stop offset="0.14" stop-color="#282828" />
			<stop offset="0.86" stop-color="#363636" />
			<stop offset="0.928265" stop-color="#151515" />
			<stop offset="1" stop-color="#242424" />
		</linearGradient>
		<linearGradient id="paint2_linear_7_3" x1="5.85585" y1="258.21" x2="5.85585" y2="310.951" gradientUnits="userSpaceOnUse">
			<stop />
			<stop offset="0.08" stop-color="#343434" />
			<stop offset="0.14" stop-color="#353535" />
			<stop offset="0.86" stop-color="#212121" />
			<stop offset="0.928265" stop-color="#252525" />
			<stop offset="1" stop-color="#3D3D3D" />
		</linearGradient>
		<linearGradient id="paint3_linear_7_3" x1="351.256" y1="226.346" x2="351.256" y2="309.852" gradientUnits="userSpaceOnUse">
			<stop />
			<stop offset="0.08" />
			<stop offset="0.14" />
			<stop offset="0.86" stop-color="#282828" />
			<stop offset="0.928265" stop-color="#2C2C2C" />
			<stop offset="1" stop-color="#262626" />
		</linearGradient>
		<linearGradient id="paint4_linear_7_3" x1="271.7" y1="1.09875" x2="271.7" y2="5.49382" gradientUnits="userSpaceOnUse">
			<stop stop-color="#0F0F0F" />
			<stop offset="1" stop-color="#3D3D3D" />
		</linearGradient>
		<linearGradient id="paint5_linear_7_3" x1="348.7" y1="75.8148" x2="343.2" y2="75.8148" gradientUnits="userSpaceOnUse">
			<stop />
			<stop offset="1" stop-color="#484848" />
		</linearGradient>
		<linearGradient id="paint6_linear_7_3" x1="3.30002" y1="75.8148" x2="8.80002" y2="75.8148" gradientUnits="userSpaceOnUse">
			<stop />
			<stop offset="1" stop-color="#2C2C2C" />
		</linearGradient>
		<linearGradient id="paint7_linear_7_3" x1="80.3" y1="710.901" x2="80.3" y2="706.506" gradientUnits="userSpaceOnUse">
			<stop />
			<stop offset="1" stop-color="#424242" />
		</linearGradient>
		<linearGradient id="paint8_linear_7_3" x1="3.30003" y1="636.185" x2="8.80003" y2="636.185" gradientUnits="userSpaceOnUse">
			<stop stop-color="#111111" />
			<stop offset="1" stop-color="#343434" />
		</linearGradient>
		<linearGradient id="paint9_linear_7_3" x1="348.7" y1="636.185" x2="343.2" y2="636.185" gradientUnits="userSpaceOnUse">
			<stop stop-color="#090909" />
			<stop offset="1" stop-color="#373737" />
		</linearGradient>
		<linearGradient id="paint10_linear_7_3" x1="146.077" y1="5.49384" x2="146.077" y2="7.69137" gradientUnits="userSpaceOnUse">
			<stop />
			<stop offset="1" stop-color="#212121" />
		</linearGradient>
		<clipPath id="clip0_7_3">
			<rect width="352" height="712" fill="white" />
		</clipPath>
	</defs>
</svg>
