<svg width="50" height="50" viewBox="0 0 50 50" fill="none" xmlns="http://www.w3.org/2000/svg">
	<path fill-rule="evenodd" clip-rule="evenodd" d="M32.5679 0C37.5875 0 40.0967 0 42.7988 0.854167C45.7487 1.92792 48.0721 4.25125 49.1458 7.20125C50 9.90292 50 12.4129 50 17.4321V32.5679C50 37.5875 50 40.0967 49.1458 42.7988C48.0721 45.7487 45.7487 48.0721 42.7988 49.1454C40.0967 50 37.5875 50 32.5679 50H17.4321C12.4125 50 9.90292 50 7.20125 49.1454C4.25125 48.0721 1.92792 45.7487 0.854167 42.7988C0 40.0967 0 37.5875 0 32.5679V17.4321C0 12.4129 0 9.90292 0.854167 7.20125C1.92792 4.25125 4.25125 1.92792 7.20125 0.854167C9.90292 0 12.4125 0 17.4321 0H32.5679Z" fill="url(#paint0_linear_369_3294)" />
	<path fill-rule="evenodd" clip-rule="evenodd" d="M25 46.6668C36.9662 46.6668 46.6667 36.9663 46.6667 25.0002C46.6667 13.034 36.9662 3.3335 25 3.3335C13.0338 3.3335 3.33333 13.034 3.33333 25.0002C3.33333 36.9663 13.0338 46.6668 25 46.6668Z" fill="#2E2E30" />
	<g filter="url(#filter0_d_369_3294)">
		<path fill-rule="evenodd" clip-rule="evenodd" d="M26.6421 13.4799C26.5847 13.4719 26.5274 13.4643 26.4701 13.4571L26.3362 11.8713C26.2948 11.3804 26.1645 11.3722 26.0447 11.8458L25.6557 13.3832C25.4696 13.3728 25.2842 13.3669 25.0995 13.3653L24.7729 11.8056C24.6719 11.3233 24.5416 11.3311 24.4804 11.8158L24.2819 13.3874C24.0902 13.3993 23.8996 13.4159 23.7101 13.4372L23.2242 11.9262C23.0734 11.4572 22.9447 11.4785 22.9344 11.9669L22.9011 13.5569C22.7182 13.5906 22.5366 13.6287 22.3563 13.671L21.6892 12.2288C21.4823 11.7816 21.3571 11.8185 21.4065 12.3045L21.5671 13.8857C21.3897 13.9408 21.2139 14 21.0399 14.0633L20.2007 12.7111C19.9409 12.2925 19.8211 12.3443 19.9293 12.8207L20.2813 14.3697C20.1118 14.4452 19.9443 14.5246 19.7789 14.6079L18.7797 13.3664C18.4709 12.9825 18.3583 13.0486 18.5238 13.5082L19.0614 15.0014C18.902 15.0962 18.7449 15.1947 18.5903 15.2969L17.4464 14.1854C17.093 13.8421 16.9893 13.9213 17.2096 14.3574L17.9239 15.7714C17.7719 15.8878 17.6228 16.0079 17.4767 16.1316L16.2293 15.1508C15.842 14.8463 15.7471 14.936 16.0118 15.3466L16.8718 16.681C16.7386 16.8108 16.6083 16.9438 16.4813 17.08L15.1251 16.2595C14.7035 16.0044 14.6204 16.105 14.9331 16.4803L15.9457 17.6957C15.8283 17.8406 15.7142 17.9885 15.6036 18.1392L14.1599 17.4912C13.7104 17.2894 13.6401 17.3994 13.9963 17.7338L15.145 18.8126C15.0453 18.9707 14.9491 19.1316 14.8567 19.2951L13.3474 18.8286C12.8767 18.6832 12.8203 18.8009 13.2145 19.0894L14.4817 20.0168C14.4012 20.1861 14.3246 20.3577 14.252 20.5317L12.6989 20.253C12.214 20.1659 12.1724 20.2896 12.5988 20.528L13.9657 21.2918C13.9039 21.475 13.8465 21.6604 13.7935 21.8479L12.2287 21.7337C11.7373 21.6978 11.7089 21.8252 12.1579 22.0177L13.6002 22.6358C13.5618 22.8197 13.5276 23.0055 13.4977 23.1929L11.9322 23.2702C11.4401 23.2945 11.4274 23.4244 11.8965 23.5607L13.3976 23.9968C13.3805 24.1865 13.3681 24.3757 13.3603 24.5642L11.8196 24.8311C11.3342 24.9151 11.3374 25.0456 11.8196 25.1237L13.3548 25.3723C13.3602 25.5635 13.3702 25.7538 13.3848 25.9431L11.8928 26.3943C11.4212 26.5369 11.4403 26.666 11.9285 26.6848L13.4748 26.7442C13.5037 26.9396 13.5375 27.1337 13.5761 27.3263L12.1503 27.9264C11.6962 28.1175 11.7287 28.2439 12.2161 28.2115L13.7614 28.1089C13.8122 28.2945 13.8676 28.4785 13.9273 28.6607L12.5877 29.4287C12.1603 29.6738 12.2079 29.7953 12.6878 29.7037L14.2037 29.4146C14.2763 29.5933 14.3532 29.77 14.4344 29.9445L13.2 30.8688C12.8056 31.1641 12.8677 31.2789 13.3328 31.1295L14.7972 30.6593C14.8906 30.8286 14.9881 30.9955 15.0896 31.1598L13.9785 32.2261C13.6231 32.5673 13.6987 32.6737 14.1422 32.4688L15.5333 31.826C15.6461 31.9835 15.7629 32.1383 15.8835 32.2901L14.9124 33.4818C14.6012 33.8637 14.6892 33.9601 15.1044 33.7026L16.4014 32.8985C16.536 33.0462 16.6745 33.1905 16.8168 33.3313L15.9818 34.6085C15.7122 35.0209 15.8098 35.1075 16.1958 34.8081L17.402 33.8725C17.5498 34 17.7008 34.124 17.8552 34.2442L17.1838 35.6101C16.9665 36.0523 17.0739 36.1264 17.4205 35.7822L18.4989 34.7113C18.6612 34.8208 18.8265 34.9264 18.9948 35.0279L18.496 36.4623C18.3342 36.9277 18.4498 36.9881 18.752 36.6042L19.6882 35.4145C19.8627 35.5041 20.0399 35.5895 20.2198 35.6705L19.9 37.153C19.7961 37.6346 19.9182 37.6805 20.1713 37.2627L20.9534 35.9713C21.1375 36.0395 21.3239 36.1033 21.5127 36.1625L21.3759 37.6726C21.3315 38.1633 21.4583 38.1939 21.6586 37.7483L22.2763 36.3738C22.4723 36.4209 22.6704 36.4632 22.8705 36.5005L22.8923 38.0096C22.8994 38.5022 23.0287 38.5195 23.1813 38.0554L23.6533 36.6197C23.8506 36.643 24.0473 36.6612 24.2434 36.6745L24.4487 38.1686C24.5158 38.6567 24.6463 38.6581 24.7412 38.1789L25.0338 36.7012C25.2327 36.7012 25.4307 36.6961 25.6277 36.686L26.0131 38.1422C26.1392 38.6185 26.2689 38.6039 26.3046 38.1167L26.4146 36.6188C26.6123 36.5951 26.8087 36.5664 27.0036 36.5328L27.5634 37.9305C27.7466 38.3879 27.8735 38.3577 27.8497 37.8697L27.7764 36.3723C27.9698 36.3252 28.1614 36.2732 28.3513 36.2165L29.0778 37.5367C29.3154 37.9684 29.4377 37.9229 29.3545 37.4415L29.0995 35.965C29.2905 35.8935 29.4794 35.8171 29.6659 35.7359L30.5237 36.9689C30.8051 37.3734 30.922 37.3153 30.789 36.8453L30.379 35.3964C30.5551 35.3051 30.7287 35.2094 30.8997 35.1094L31.9035 36.2312C32.2321 36.5983 32.341 36.5264 32.1517 36.0761L31.5681 34.6878C31.732 34.5766 31.8929 34.4613 32.0509 34.342L33.1863 35.3351C33.5571 35.6594 33.6565 35.5748 33.4137 35.1509L32.6654 33.8443C32.8148 33.7148 32.9609 33.5815 33.1037 33.4444L34.3539 34.2933C34.7616 34.57 34.8499 34.474 34.5572 34.0828L33.6556 32.8776C33.7885 32.7315 33.9178 32.582 34.0433 32.4291L35.39 33.1205C35.8283 33.3455 35.9043 33.2394 35.5662 32.8868L34.5246 31.8006C34.6421 31.6359 34.7555 31.4677 34.8646 31.2964L36.2722 31.8416C36.7316 32.0196 36.796 31.9061 36.4229 31.5908L35.2672 30.6141C35.3612 30.4415 35.451 30.2661 35.5366 30.088L37.0045 30.4588C37.4822 30.5794 37.5323 30.4589 37.1235 30.1914L35.8553 29.3616C35.9278 29.1798 35.9959 28.9955 36.0594 28.8089L37.5679 28.9988C38.0567 29.0603 38.0918 28.9346 37.6534 28.7189L36.29 28.0481C36.34 27.86 36.3856 27.6698 36.4266 27.4777L37.9544 27.4823C38.4471 27.4838 38.4666 27.3548 38.0052 27.1941L36.5664 26.6931L36.5715 26.6568C36.5978 26.4697 36.6195 26.283 36.6367 26.0968L38.1556 25.9418C38.6457 25.8918 38.6516 25.7615 38.176 25.6499L36.6831 25.2998C36.6878 25.1048 36.6876 24.9105 36.6826 24.7172L38.176 24.3772C38.6564 24.2678 38.6463 24.1377 38.1607 24.0849L36.6345 23.9192C36.6161 23.7257 36.5929 23.5334 36.565 23.3424L38.0109 22.8211C38.4744 22.654 38.4486 22.5261 37.9601 22.5329L36.422 22.5544C36.3809 22.3654 36.3352 22.178 36.2849 21.9922L37.6627 21.2954C38.1024 21.0731 38.0611 20.9493 37.5771 21.0156L36.0487 21.225C35.9858 21.0433 35.9185 20.8635 35.8469 20.6857L37.1362 19.8217C37.5455 19.5475 37.4895 19.4296 37.0172 19.5544L35.5208 19.9498C35.4349 19.7728 35.3447 19.5982 35.2502 19.4261L36.4426 18.4317C36.8209 18.1162 36.7529 18.0048 36.2962 18.1783L34.8376 18.7324C34.7349 18.5724 34.6283 18.4151 34.518 18.2604L35.5855 17.1226C35.9226 16.7633 35.8415 16.6611 35.4094 16.8889L34.0259 17.6184C33.9057 17.4723 33.7819 17.329 33.6547 17.1888L34.5794 15.9243C34.8702 15.5266 34.7772 15.435 34.3761 15.7138L33.0897 16.6078C32.9537 16.4773 32.8145 16.35 32.6721 16.226L33.4383 14.8535C33.6785 14.4234 33.5751 14.3438 33.2109 14.6694L32.0418 15.7147C31.8919 15.6015 31.7391 15.4917 31.5834 15.3856L32.1785 13.9255C32.3644 13.4692 32.2521 13.4028 31.9303 13.7704L30.8962 14.9517C30.7296 14.8545 30.5603 14.7612 30.3882 14.6721L30.8267 13.1602C30.9639 12.6871 30.8453 12.6327 30.5637 13.0319L29.6528 14.3232C29.4817 14.2492 29.3083 14.1792 29.1327 14.1132L29.3846 12.5534C29.4632 12.0671 29.3388 12.0276 29.1079 12.4582L28.3598 13.8535C28.182 13.8006 28.0022 13.7517 27.8205 13.707L27.8807 12.1218C27.8994 11.6294 27.7711 11.6055 27.5945 12.0609L27.021 13.5394C26.8955 13.5177 26.7692 13.4978 26.6421 13.4799ZM34.4901 26.3338C33.7535 31.575 28.9075 35.2268 23.6663 34.4902C18.425 33.7535 14.7733 28.9076 15.5099 23.6663C16.2465 18.4251 21.0925 14.7734 26.3337 15.51C31.575 16.2466 35.2267 21.0926 34.4901 26.3338Z" fill="url(#paint1_linear_369_3294)" />
	</g>
	<g filter="url(#filter1_dd_369_3294)">
		<path fill-rule="evenodd" clip-rule="evenodd" d="M24.7083 7.50246C24.8054 7.50088 24.9026 7.50008 25 7.50008C25.2203 7.50008 25.4397 7.50415 25.658 7.51222L26.1319 5.49204C26.2972 4.78732 26.4904 4.79607 26.5645 5.52229L26.7754 7.58903C27.0923 7.62096 27.4067 7.66134 27.7183 7.70994L28.4348 5.76281C28.6847 5.08349 28.8754 5.11572 28.8605 5.84557L28.8181 7.91781C29.1289 7.98698 29.4366 8.06442 29.741 8.14988L30.6895 6.30449C31.0204 5.6607 31.2057 5.71593 31.1019 6.43851L30.8077 8.48684C31.1145 8.59471 31.4173 8.71089 31.7159 8.8351L32.8473 7.10619C33.2437 6.50051 33.4222 6.57481 33.2435 7.28258L32.7346 9.29776C33.0195 9.43839 33.3001 9.58654 33.576 9.74196L34.912 8.16112C35.3792 7.60826 35.5474 7.70376 35.2837 8.38448L34.5332 10.3222C34.7991 10.4953 35.06 10.6754 35.3157 10.8622L36.8373 9.45325C37.3684 8.96145 37.5237 9.07674 37.179 9.72025L36.1982 11.5515C36.4416 11.7544 36.6794 11.9637 36.9114 12.1793L38.596 10.9644C39.1831 10.541 39.3232 10.6744 38.9027 11.2711L37.7071 12.9676C37.9249 13.1975 38.1365 13.4333 38.3417 13.6748L40.1634 12.6733C40.7977 12.3246 40.9205 12.4741 40.4304 13.0151L39.0392 14.5508C39.2326 14.8102 39.419 15.0752 39.5981 15.3454L41.5052 14.5438C42.1725 14.2633 42.279 14.4247 41.735 14.9116L40.1862 16.2977C40.344 16.5724 40.4945 16.8517 40.6375 17.1355L42.6283 16.5722C43.3248 16.3752 43.4108 16.5484 42.8116 16.9653L41.1086 18.1501C41.2326 18.4415 41.349 18.7369 41.4575 19.0362L43.5032 18.7195C44.2186 18.6088 44.2828 18.7912 43.6372 19.132L41.8045 20.0994C41.893 20.4031 41.9734 20.7102 42.0455 21.0205L44.1177 20.9554C44.8412 20.9327 44.8827 21.1216 44.2004 21.3811L42.2638 22.1178C42.3154 22.4292 42.3588 22.7434 42.3937 23.0601L44.4629 23.2485C45.1838 23.3141 45.202 23.5066 44.4932 23.6811L42.481 24.1764C42.4936 24.4493 42.5 24.724 42.5 25.0001C42.5 25.0492 42.4998 25.0982 42.4994 25.1472L44.5308 25.5495C45.2409 25.6901 45.2389 25.8835 44.5157 25.9829L42.4549 26.2662C42.4322 26.584 42.401 26.8994 42.3615 27.2123L44.3291 27.8593C45.0167 28.0854 44.9911 28.2771 44.2612 28.2876L42.186 28.3176C42.1259 28.6305 42.0576 28.9404 41.9811 29.2471L41.9811 29.2471L43.8551 30.129C44.51 30.4372 44.4613 30.6244 43.7355 30.5459L41.6757 30.3231C41.579 30.6265 41.4742 30.9262 41.3616 31.2222L43.1155 32.3267C43.728 32.7125 43.6569 32.8923 42.9461 32.7259L40.9304 32.2542C40.7956 32.5498 40.6528 32.841 40.5023 33.1275L42.1255 34.4049C42.6944 34.8526 42.6048 35.024 41.9153 34.7842L39.9503 34.101C39.785 34.372 39.6125 34.6381 39.4332 34.8991L40.8916 36.3678C41.4017 36.8815 41.2919 37.0407 40.6367 36.7187L38.77 35.8012C38.5742 36.0505 38.3717 36.2943 38.163 36.5324L39.4338 38.1709C39.8775 38.7428 39.7491 38.8875 39.1381 38.488L37.3981 37.3506C37.1746 37.575 36.9451 37.7933 36.7097 38.0054L37.7726 39.7886C38.1433 40.4103 37.9982 40.5382 37.4404 40.0673L35.8542 38.7282C35.606 38.9247 35.3522 39.1147 35.0933 39.2978L35.9314 41.1982C36.2235 41.8605 36.064 41.9697 35.5677 41.4344L34.1592 39.9147C33.8836 40.0843 33.603 40.2464 33.3176 40.4009L33.9494 42.3687C34.1706 43.0579 34.0005 43.1499 33.5629 42.5656L32.3169 40.9017C32.0294 41.0342 31.7376 41.1592 31.4419 41.2763L31.8293 43.3074C31.9649 44.0184 31.7849 44.089 31.4218 43.4557L30.3891 41.6546C30.0882 41.7519 29.7836 41.8413 29.4757 41.9225L29.6129 43.9884C29.6609 44.7106 29.4735 44.7587 29.1903 44.0859L28.3851 42.1729H28.3851C28.0753 42.2336 27.7626 42.2862 27.4472 42.3303L27.3314 44.402C27.2909 45.1247 27.0991 45.1497 26.9 44.4473L26.3338 42.45C26.0198 42.4737 25.7035 42.4891 25.385 42.4959L25.0168 44.5425C24.8886 45.2549 24.6952 45.2563 24.5832 44.5349L24.2648 42.4849C23.9396 42.4715 23.6168 42.4492 23.2964 42.4182L22.7189 44.406C22.5169 45.1011 22.3244 45.0822 22.2884 44.3531L22.1858 42.275C21.8715 42.2242 21.56 42.165 21.2515 42.0977L20.4361 44.0001C20.1509 44.6654 19.9622 44.6232 20.0153 43.8952L20.1664 41.824C19.8605 41.7363 19.558 41.6404 19.2592 41.5367L18.2174 43.3266C17.8533 43.9522 17.6711 43.8874 17.8125 43.1712L18.2145 41.1359C17.9215 41.0126 17.6326 40.8815 17.3481 40.7429L16.094 42.395C15.6563 42.9716 15.4834 42.885 15.7111 42.1914L16.3579 40.2208C16.0821 40.0639 15.811 39.8997 15.5448 39.7284L15.5448 39.7284L14.0958 41.2184C13.5911 41.7374 13.43 41.6304 13.7406 40.9697L14.6227 39.0927C14.3622 38.9005 14.1072 38.7013 13.8579 38.4953L12.2662 39.8215C11.7101 40.2848 11.561 40.1615 11.9389 39.5369L13.0174 37.7542C12.7868 37.5375 12.562 37.3146 12.3435 37.0857L10.5996 38.2095C9.99119 38.6016 9.85829 38.4611 10.3095 37.8872L11.5956 36.2512C11.3921 36.0089 11.195 35.7611 11.0046 35.5079L9.13571 36.4114C8.48401 36.7264 8.36922 36.5707 8.88696 36.0561L10.3603 34.5917C10.1866 34.3271 10.0199 34.0576 9.86049 33.7834L7.89503 34.4524C7.20979 34.6857 7.11483 34.5172 7.69143 34.0695L9.32908 32.798C9.18788 32.5148 9.05414 32.2272 8.92811 31.9355L6.89509 32.3602C6.18654 32.5082 6.11281 32.3294 6.73967 31.9553L8.51747 30.8944C8.40868 30.5902 8.30806 30.2821 8.2159 29.9704L6.15808 30.1794C5.43794 30.2525 5.38331 30.067 6.04584 29.7605L7.93326 28.8873C7.86345 28.5795 7.80174 28.2686 7.74839 27.9548L5.67643 27.9114C4.95274 27.8962 4.92113 27.7054 5.61608 27.4819L7.59611 26.8452H7.59611C7.56329 26.532 7.53873 26.2163 7.52266 25.8985L5.46683 25.6022C4.75038 25.4989 4.74225 25.3057 5.45926 25.1685L7.50138 24.778C7.50534 24.4597 7.5178 24.1434 7.53853 23.8294L5.53223 23.2843C4.83371 23.0945 4.8492 22.9017 5.57757 22.853L7.64791 22.7145C7.68997 22.392 7.74082 22.0722 7.8002 21.7555L7.8002 21.7555L5.87207 21.0076C5.19721 20.7458 5.23276 20.5557 5.96223 20.5834L8.04179 20.6623C8.12042 20.354 8.20722 20.049 8.30197 19.7475L6.47886 18.7699C5.84093 18.4278 5.89939 18.2434 6.62005 18.3598L8.67174 18.6911C8.78638 18.3946 8.90885 18.1021 9.03892 17.8136L7.34648 16.6197C6.755 16.2024 6.83548 16.0266 7.53659 16.2299L9.53164 16.8085C9.68042 16.5281 9.8366 16.2523 9.99992 15.9812L8.46274 14.5873C7.92652 14.1011 8.02784 13.9364 8.69894 14.2236L10.6083 15.0409C10.7889 14.7805 10.9763 14.5252 11.1704 14.2753L11.1704 14.2753L9.81194 12.7015C9.33897 12.1535 9.45961 12.0023 10.0907 12.3692L11.8855 13.4127C12.0998 13.1704 12.3206 12.9341 12.5479 12.704L11.3657 11.003C10.9526 10.4086 11.0884 10.2709 11.6777 10.7018L13.3603 11.932C13.5965 11.7215 13.8384 11.5173 14.0858 11.3197L13.1192 9.48609C12.7816 8.84578 12.9331 8.72563 13.4655 9.2251L14.9829 10.6487C15.2423 10.4674 15.5068 10.2929 15.7761 10.1255L15.04 8.18747C14.783 7.51079 14.948 7.41001 15.4156 7.97063L16.7455 9.56528L16.7455 9.56528C17.0245 9.41576 17.308 9.27359 17.5958 9.13901L17.1013 7.12549C16.9286 6.42253 17.1047 6.34261 17.5005 6.95603L18.6242 8.69784C18.9188 8.58252 19.2173 8.47495 19.5195 8.3754L19.2739 6.31511C19.1882 5.59635 19.3727 5.53849 19.6908 6.19557L20.593 8.05968C20.9055 7.97862 21.2213 7.90598 21.5403 7.84202L21.5114 5.77451C21.5014 5.05073 21.6909 5.01248 21.9385 5.6992L22.6445 7.65724C22.9569 7.61521 23.272 7.58143 23.5894 7.55611L23.8132 5.49597C23.8914 4.77635 24.0842 4.76149 24.2463 5.47327L24.7083 7.50246ZM27.1248 23.9959C26.2058 23.9651 25.0763 23.1504 24.6213 22.3551L19.32 13.173C18.7483 12.174 19.4025 11.0549 20.2819 10.5472C20.8711 10.207 22.8249 9.58675 25.413 9.58884C32.691 9.78026 38.7125 15.0155 40.1104 21.9274C40.2362 23.0839 39.2536 24.0096 38.2148 23.9941L27.1248 23.9959ZM17.6101 14.0978L23.0921 23.5229C23.5398 24.3257 23.5161 25.7749 23.0549 26.5666L17.7536 35.7487C17.1742 36.7432 15.7364 36.8555 14.857 36.3478C14.272 36.01 12.7752 34.6453 11.489 32.4308C10.2744 30.227 9.58333 27.6943 9.58333 25.0001C9.58333 20.4555 11.5404 16.3921 14.6688 13.5705C15.6796 13.0058 17.0835 13.1533 17.6101 14.0978ZM39.9438 27.9539C39.9438 26.9385 39.1649 25.9489 38.0139 25.9444H27.4113C26.4951 25.9409 25.3633 26.5776 24.8919 27.3666L19.4705 36.8267C18.8784 37.8179 19.3495 39.0734 20.4987 39.6206C22.2296 40.5568 26.7263 40.5209 30.1835 39.5237C32.8368 38.5766 35.1545 36.9231 36.9102 34.7896C39.2236 31.8603 39.9438 28.8246 39.9438 27.9539ZM25 25.8334C25.4602 25.8334 25.8333 25.4603 25.8333 25.0001C25.8333 24.5398 25.4602 24.1667 25 24.1667C24.5398 24.1667 24.1667 24.5398 24.1667 25.0001C24.1667 25.4603 24.5398 25.8334 25 25.8334Z" fill="url(#paint2_linear_369_3294)" />
	</g>
	<defs>
		<filter id="filter0_d_369_3294" x="10.4568" y="10.4482" width="29.0739" height="29.0884" filterUnits="userSpaceOnUse" color-interpolation-filters="sRGB">
			<feFlood flood-opacity="0" result="BackgroundImageFix" />
			<feColorMatrix in="SourceAlpha" type="matrix" values="0 0 0 0 0 0 0 0 0 0 0 0 0 0 0 0 0 0 127 0" result="hardAlpha" />
			<feOffset />
			<feGaussianBlur stdDeviation="0.5" />
			<feColorMatrix type="matrix" values="0 0 0 0 0 0 0 0 0 0 0 0 0 0 0 0 0 0 0.2 0" />
			<feBlend mode="normal" in2="BackgroundImageFix" result="effect1_dropShadow_369_3294" />
			<feBlend mode="normal" in="SourceGraphic" in2="effect1_dropShadow_369_3294" result="shape" />
		</filter>
		<filter id="filter1_dd_369_3294" x="2.92548" y="3.94775" width="44.1353" height="44.1284" filterUnits="userSpaceOnUse" color-interpolation-filters="sRGB">
			<feFlood flood-opacity="0" result="BackgroundImageFix" />
			<feColorMatrix in="SourceAlpha" type="matrix" values="0 0 0 0 0 0 0 0 0 0 0 0 0 0 0 0 0 0 127 0" result="hardAlpha" />
			<feOffset dy="1" />
			<feGaussianBlur stdDeviation="1" />
			<feColorMatrix type="matrix" values="0 0 0 0 0 0 0 0 0 0 0 0 0 0 0 0 0 0 0.2 0" />
			<feBlend mode="normal" in2="BackgroundImageFix" result="effect1_dropShadow_369_3294" />
			<feColorMatrix in="SourceAlpha" type="matrix" values="0 0 0 0 0 0 0 0 0 0 0 0 0 0 0 0 0 0 127 0" result="hardAlpha" />
			<feOffset dy="1" />
			<feColorMatrix type="matrix" values="0 0 0 0 0 0 0 0 0 0 0 0 0 0 0 0 0 0 0.2 0" />
			<feBlend mode="normal" in2="effect1_dropShadow_369_3294" result="effect2_dropShadow_369_3294" />
			<feBlend mode="normal" in="SourceGraphic" in2="effect2_dropShadow_369_3294" result="shape" />
		</filter>
		<linearGradient id="paint0_linear_369_3294" x1="0" y1="0" x2="0" y2="50" gradientUnits="userSpaceOnUse">
			<stop stop-color="#D3D7DD" />
			<stop offset="1" stop-color="#888C90" />
		</linearGradient>
		<linearGradient id="paint1_linear_369_3294" x1="19.8654" y1="7.08069" x2="7.42933" y2="29.2717" gradientUnits="userSpaceOnUse">
			<stop stop-color="#AFB0B3" />
			<stop offset="1" stop-color="#B5B7BA" />
		</linearGradient>
		<linearGradient id="paint2_linear_369_3294" x1="4.92548" y1="4.94775" x2="4.92548" y2="45.0764" gradientUnits="userSpaceOnUse">
			<stop stop-color="#D9DADB" />
			<stop offset="1" stop-color="#7D8082" />
		</linearGradient>
	</defs>
</svg>
