<svg width="26" height="12" viewBox="0 0 26 12" fill="none" xmlns="http://www.w3.org/2000/svg">
<path opacity="0.35" fill-rule="evenodd" clip-rule="evenodd" d="M4.67191 1.40796H19.5679C20.6504 1.40796 21.5279 2.28548 21.5279 3.36796V8.46396C21.5279 9.54644 20.6504 10.424 19.5679 10.424H4.67191C3.58944 10.424 2.71191 9.54644 2.71191 8.46396V3.36796C2.71191 2.28548 3.58944 1.40796 4.67191 1.40796ZM4.67202 2.19188C4.02253 2.19188 3.49602 2.71839 3.49602 3.36788V8.46387C3.49602 9.11336 4.02253 9.63987 4.67202 9.63987H19.568C20.2175 9.63987 20.744 9.11336 20.744 8.46387V3.36788C20.744 2.71839 20.2175 2.19188 19.568 2.19188H4.67202Z" fill="white"/>
<path opacity="0.4" fill-rule="evenodd" clip-rule="evenodd" d="M22.312 3.99487C23.0101 4.35173 23.488 5.07795 23.488 5.91579C23.488 6.75363 23.0101 7.47984 22.312 7.8367V3.99487Z" fill="white"/>
<path fill-rule="evenodd" clip-rule="evenodd" d="M5.06427 2.97583H19.1763C19.6093 2.97583 19.9603 3.32684 19.9603 3.75983V8.07183C19.9603 8.50482 19.6093 8.85583 19.1763 8.85583H5.06427C4.63128 8.85583 4.28027 8.50482 4.28027 8.07183V3.75983C4.28027 3.32684 4.63128 2.97583 5.06427 2.97583Z" fill="white"/>
</svg>
