<svg width="17" height="12" viewBox="0 0 17 12" fill="none" xmlns="http://www.w3.org/2000/svg">
<path opacity="0.25" fill-rule="evenodd" clip-rule="evenodd" d="M12.9359 1.80005H13.7199C14.1528 1.80005 14.5039 2.15106 14.5039 2.58405V8.85605C14.5039 9.28904 14.1528 9.64005 13.7199 9.64005H12.9359C12.5029 9.64005 12.1519 9.28904 12.1519 8.85605V2.58405C12.1519 2.15106 12.5029 1.80005 12.9359 1.80005Z" fill="white"/>
<path fill-rule="evenodd" clip-rule="evenodd" d="M10.1919 3.36792H9.40787C8.97488 3.36792 8.62387 3.71893 8.62387 4.15192V8.85592C8.62387 9.28891 8.97488 9.63992 9.40787 9.63992H10.1919C10.6249 9.63992 10.9759 9.28891 10.9759 8.85592V4.15192C10.9759 3.71893 10.6249 3.36792 10.1919 3.36792ZM5.87974 4.93591H6.66374C7.09673 4.93591 7.44774 5.28692 7.44774 5.71991V8.85591C7.44774 9.2889 7.09673 9.63991 6.66374 9.63991H5.87974C5.44675 9.63991 5.09574 9.2889 5.09574 8.85591V5.71991C5.09574 5.28692 5.44675 4.93591 5.87974 4.93591ZM2.35187 6.11189H3.13587C3.56886 6.11189 3.91987 6.4629 3.91987 6.89589V8.85589C3.91987 9.28888 3.56886 9.63989 3.13587 9.63989H2.35187C1.91888 9.63989 1.56787 9.28888 1.56787 8.85589V6.89589C1.56787 6.4629 1.91888 6.11189 2.35187 6.11189Z" fill="white"/>
</svg>
