<svg width="12" height="12" viewBox="0 0 12 12" fill="none" xmlns="http://www.w3.org/2000/svg">
<path fill-rule="evenodd" clip-rule="evenodd" d="M10.9947 3.77804C9.49647 2.49826 7.60363 1.80005 5.62428 1.80005C3.63906 1.80005 1.74098 2.50243 0.240882 3.78912L0.113484 3.8984C0.0104598 3.98676 0.00454603 4.14385 0.100636 4.23967L0.984161 5.12074C1.06992 5.20626 1.20705 5.21209 1.2998 5.13417L1.40925 5.04221C2.59063 4.04968 4.07388 3.50945 5.62428 3.50945C7.1694 3.50945 8.64791 4.04599 9.82753 5.03235L9.93694 5.12384C10.0297 5.20141 10.1666 5.19543 10.2522 5.11006L11.1358 4.22886C11.232 4.1329 11.226 3.97555 11.1226 3.88727L10.9947 3.77804ZM5.62447 4.52036C6.87169 4.52036 8.06919 4.93411 9.04471 5.70033L9.18258 5.80861C9.29249 5.89495 9.30215 6.05762 9.20321 6.15628L8.31668 7.04035C8.23468 7.12212 8.10494 7.13151 8.01196 7.06241L7.90389 6.98209C7.24502 6.49242 6.45055 6.22975 5.62447 6.22975C4.79331 6.22975 3.9942 6.49568 3.33314 6.99097L3.22496 7.07203C3.13198 7.1417 3.00176 7.13252 2.91952 7.05051L2.03331 6.16677C1.93459 6.06832 1.94396 5.90605 2.05337 5.81956L2.19045 5.71119C3.1683 4.93813 4.37124 4.52036 5.62447 4.52036ZM5.62441 7.24067C6.12578 7.24067 6.61294 7.37241 7.04219 7.62362L7.21611 7.72541C7.34797 7.80257 7.37116 7.98317 7.26305 8.09098L5.77809 9.57181C5.68688 9.66277 5.539 9.66277 5.44779 9.57181L3.97237 8.10049C3.86474 7.99316 3.88717 7.81348 4.01791 7.73575L4.18988 7.6335C4.62307 7.37593 5.11642 7.24067 5.62441 7.24067Z" fill="white"/>
</svg>
