<svg width="23" height="23" viewBox="0 0 23 23" fill="none" xmlns="http://www.w3.org/2000/svg">
<g clip-path="url(#clip0_558_981)">
<path opacity="0.5" d="M13.5197 1.50937C12.926 -0.503125 10.074 -0.503125 9.48031 1.50937L9.33656 1.99812C9.24786 2.29942 9.09284 2.57703 8.88288 2.81062C8.67291 3.0442 8.41333 3.22783 8.12316 3.34803C7.83299 3.46823 7.5196 3.52196 7.20597 3.50528C6.89233 3.4886 6.5864 3.40193 6.31062 3.25163L5.865 3.00725C4.02069 2.00387 2.00387 4.02069 3.00869 5.86356L3.25163 6.31062C3.89275 7.48937 3.28469 8.95706 1.99812 9.33656L1.50937 9.48031C-0.503125 10.074 -0.503125 12.926 1.50937 13.5197L1.99812 13.6634C2.29942 13.7521 2.57703 13.9072 2.81062 14.1171C3.0442 14.3271 3.22783 14.5867 3.34803 14.8768C3.46823 15.167 3.52196 15.4804 3.50528 15.794C3.4886 16.1077 3.40193 16.4136 3.25163 16.6894L3.00725 17.135C2.00387 18.9793 4.02069 20.9961 5.86356 19.9913L6.31062 19.7484C6.5864 19.5981 6.89233 19.5114 7.20597 19.4947C7.5196 19.478 7.83299 19.5318 8.12316 19.652C8.41333 19.7722 8.67291 19.9558 8.88288 20.1894C9.09284 20.423 9.24786 20.7006 9.33656 21.0019L9.48031 21.4906C10.074 23.5031 12.926 23.5031 13.5197 21.4906L13.6634 21.0019C13.7521 20.7006 13.9072 20.423 14.1171 20.1894C14.3271 19.9558 14.5867 19.7722 14.8768 19.652C15.167 19.5318 15.4804 19.478 15.794 19.4947C16.1077 19.5114 16.4136 19.5981 16.6894 19.7484L17.135 19.9927C18.9793 20.9961 20.9961 18.9793 19.9913 17.1364L19.7484 16.6894C19.5981 16.4136 19.5114 16.1077 19.4947 15.794C19.478 15.4804 19.5318 15.167 19.652 14.8768C19.7722 14.5867 19.9558 14.3271 20.1894 14.1171C20.423 13.9072 20.7006 13.7521 21.0019 13.6634L21.4906 13.5197C23.5031 12.926 23.5031 10.074 21.4906 9.48031L21.0019 9.33656C20.7006 9.24786 20.423 9.09284 20.1894 8.88288C19.9558 8.67291 19.7722 8.41333 19.652 8.12316C19.5318 7.83299 19.478 7.5196 19.4947 7.20597C19.5114 6.89233 19.5981 6.5864 19.7484 6.31062L19.9927 5.865C20.9961 4.02069 18.9793 2.00387 17.1364 3.00869L16.6894 3.25163C16.4136 3.40193 16.1077 3.4886 15.794 3.50528C15.4804 3.52196 15.167 3.46823 14.8768 3.34803C14.5867 3.22783 14.3271 3.0442 14.1171 2.81062C13.9072 2.57703 13.7521 2.29942 13.6634 1.99812L13.5197 1.50937V1.50937ZM11.5 15.7119C10.3829 15.7119 9.31163 15.2681 8.52175 14.4782C7.73188 13.6884 7.28813 12.6171 7.28813 11.5C7.28813 10.3829 7.73188 9.31163 8.52175 8.52175C9.31163 7.73188 10.3829 7.28813 11.5 7.28813C12.6167 7.28813 13.6876 7.73172 14.4772 8.52133C15.2668 9.31094 15.7104 10.3819 15.7104 11.4986C15.7104 12.6152 15.2668 13.6862 14.4772 14.4758C13.6876 15.2654 12.6167 15.709 11.5 15.709V15.7119Z" fill="white"/>
</g>
<defs>
<clipPath id="clip0_558_981">
<rect width="23" height="23" fill="white"/>
</clipPath>
</defs>
</svg>
