<svg width="25" height="25" viewBox="0 0 25 25" fill="none" xmlns="http://www.w3.org/2000/svg">
<g opacity="0.5" clip-path="url(#clip0_560_2360)">
<path d="M14.4106 6.94423C15.9447 6.94423 17.1884 5.70057 17.1884 4.16645C17.1884 2.63233 15.9447 1.38867 14.4106 1.38867C12.8765 1.38867 11.6328 2.63233 11.6328 4.16645C11.6328 5.70057 12.8765 6.94423 14.4106 6.94423Z" fill="white"/>
<path d="M17.2508 18.2153C17.1741 18.1637 17.0878 18.1279 16.9971 18.1101C16.9063 18.0923 16.8129 18.0928 16.7223 18.1115C16.6318 18.1303 16.5459 18.1669 16.4697 18.2193C16.3935 18.2718 16.3285 18.3389 16.2786 18.4167C15.6073 19.4109 14.7849 20.2942 13.8411 21.0348C13.6119 21.2084 12.7578 21.8681 12.3966 21.7292C12.1466 21.6528 12.2925 21.1598 12.3411 20.9514L12.7091 19.8612C12.8619 19.4167 15.5216 11.5278 15.8133 10.625C16.2439 9.3056 16.0564 8.00699 14.0911 8.31949C13.5564 8.37504 8.13276 9.07643 8.03554 9.08338C7.94434 9.0893 7.85521 9.11314 7.77322 9.15351C7.69123 9.19389 7.618 9.25002 7.55771 9.31869C7.49742 9.38737 7.45124 9.46725 7.42182 9.55377C7.3924 9.64029 7.3803 9.73176 7.38623 9.82296C7.39216 9.91416 7.41599 10.0033 7.45637 10.0853C7.49674 10.1673 7.55287 10.2405 7.62155 10.3008C7.69022 10.3611 7.7701 10.4073 7.85663 10.4367C7.94315 10.4661 8.03462 10.4782 8.12581 10.4723C8.12581 10.4723 10.2091 10.2014 10.4383 10.1806C10.5557 10.1691 10.6739 10.1919 10.7786 10.2461C10.8834 10.3003 10.9702 10.3837 11.0286 10.4862C11.1544 10.8751 11.1372 11.2963 10.98 11.6737C10.7994 12.3681 7.94526 20.4098 7.85498 20.875C7.75815 21.2644 7.78504 21.6742 7.9319 22.0476C8.07875 22.421 8.33829 22.7393 8.67443 22.9584C9.30534 23.3789 10.0565 23.5813 10.8133 23.5348C11.5491 23.5258 12.2768 23.3798 12.9591 23.1042C14.6883 22.4098 16.4939 20.5625 17.4453 19.1112C17.5272 18.9637 17.5526 18.7915 17.5169 18.6266C17.4811 18.4617 17.3865 18.3155 17.2508 18.2153Z" fill="white"/>
</g>
<defs>
<clipPath id="clip0_560_2360">
<rect width="25" height="25" fill="white"/>
</clipPath>
</defs>
</svg>
