<svg width="25" height="16" viewBox="0 0 25 16" fill="none" xmlns="http://www.w3.org/2000/svg">
	<path fill-rule="evenodd" clip-rule="evenodd" d="M10.814 0.0280771C8.54071 0.191361 6.72529 0.587709 5.76497 1.13052C5.31601 1.38431 4.69833 1.96692 4.36138 2.45447C4.22798 2.64749 3.97408 3.06986 3.79717 3.39303L3.47555 3.98064H2.904C2.25204 3.98064 2.01776 4.05783 1.80621 4.3424C1.62613 4.58472 1.63473 5.00214 1.82515 5.25893C2.00795 5.50541 1.97513 5.55867 1.46555 5.84304C0.544826 6.35682 0.342986 6.78331 0.120174 8.68595C-0.113228 10.6789 -0.00596968 12.5631 0.436055 14.2357C0.577432 14.7707 0.727156 14.995 1.02775 15.1223C1.19099 15.1914 1.23903 15.2426 1.26491 15.3749C1.30618 15.5858 1.52601 15.8379 1.74554 15.9259C1.99193 16.0247 5.08094 16.0247 5.32733 15.9259C5.54597 15.8383 5.7667 15.5861 5.80749 15.3773C5.83905 15.2159 5.84464 15.2131 6.23997 15.1581C6.46022 15.1275 6.8987 15.0444 7.21432 14.9735C8.09822 14.7749 10.6426 14.5926 12.5307 14.5926C14.4378 14.5926 16.9624 14.7729 17.8567 14.9729C18.1723 15.0435 18.5956 15.1257 18.7974 15.1557L19.1642 15.2101L19.2408 15.4358C19.2916 15.5852 19.3852 15.7135 19.5178 15.8154L19.7182 15.9692L21.3698 15.9847C22.4413 15.9949 23.0884 15.9815 23.2122 15.9466C23.4479 15.8802 23.7093 15.6036 23.7544 15.3728C23.7809 15.2371 23.8235 15.1878 23.9511 15.1451C24.3422 15.0143 24.49 14.7356 24.7082 13.7166C24.9658 12.5141 25.004 12.1236 24.9997 10.7383C24.9941 8.91932 24.8005 7.3945 24.4895 6.71988C24.3435 6.40323 23.9287 6.0239 23.4741 5.79144C23.0526 5.57589 23.0136 5.50181 23.1937 5.25893C23.3841 5.00214 23.3927 4.58472 23.2127 4.3424C23.0009 4.05758 22.767 3.98064 22.1127 3.98064H21.5389L21.2517 3.44253C20.6345 2.28593 19.9839 1.53938 19.2228 1.11435C18.3443 0.6239 16.8157 0.264194 14.8049 0.0746797C14.0424 0.00279855 11.5681 -0.0260841 10.814 0.0280771ZM14.0745 1.62969C15.9861 1.75808 17.4587 2.04465 18.2939 2.45086C18.8258 2.70955 19.2652 3.23245 19.7829 4.22306C20.1197 4.86754 20.1471 5.07623 19.9163 5.24076C19.7883 5.33207 19.7222 5.33232 17.3601 5.25002C14.2248 5.14085 10.8135 5.141 7.71332 5.25052C5.28565 5.33622 5.23619 5.33607 5.10488 5.24246C4.86272 5.06972 4.8947 4.86929 5.2808 4.14077C5.95435 2.86979 6.38448 2.4861 7.50162 2.16003C9.09782 1.69406 11.7936 1.47656 14.0745 1.62969ZM3.78721 7.41312C4.60391 7.63807 5.3482 7.93661 5.65881 8.16396C5.83942 8.29616 5.88762 8.47972 5.76664 8.57473C5.65354 8.66358 4.54105 8.75098 3.45818 8.75608C2.44382 8.76089 2.40761 8.75753 2.15668 8.6359C1.76103 8.44408 1.68445 8.30988 1.68445 7.80826C1.68445 7.32802 1.73417 7.24468 2.05912 7.18005C2.40667 7.11102 2.96211 7.18591 3.78721 7.41312ZM23.2562 7.2654C23.3144 7.31981 23.3341 7.45276 23.3332 7.78489C23.3318 8.31549 23.2615 8.44228 22.8622 8.6359C22.611 8.75768 22.576 8.76089 21.5607 8.75513C20.4467 8.74887 19.3652 8.66543 19.2545 8.57728C18.8976 8.29301 19.7969 7.78058 21.3514 7.38253C22.3335 7.13105 23.0642 7.08615 23.2562 7.2654ZM14.7005 10.5105C16.8225 10.7889 17.9254 11.1098 18.2278 11.5368C18.4583 11.8622 18.3412 12.2051 17.9051 12.4822C17.4522 12.7701 17.5398 12.7656 12.4573 12.7656H7.78818L7.47663 12.6452C7.049 12.4799 6.72091 12.1764 6.68392 11.9118C6.66008 11.7414 6.67839 11.6835 6.80021 11.5446C7.21698 11.0694 8.08298 10.8094 10.0587 10.5662C10.6175 10.4974 11.1804 10.4316 11.3096 10.4199C11.8265 10.3732 14.121 10.4345 14.7005 10.5105Z" fill="#B2EF30" />
</svg>
