<svg width="20" height="13" viewBox="0 0 20 13" fill="none" xmlns="http://www.w3.org/2000/svg">
	<path fill-rule="evenodd" clip-rule="evenodd" d="M20 6.5C20 6.30848 19.9247 6.12481 19.7908 5.98938C19.6569 5.85396 19.4752 5.77788 19.2858 5.77788L2.43969 5.77788L6.93512 1.23429C7.06923 1.0987 7.14458 0.914792 7.14458 0.723032C7.14458 0.531272 7.06923 0.347365 6.93512 0.21177C6.801 0.0761757 6.61911 -9.53674e-07 6.42944 -9.53674e-07C6.23977 -9.53674e-07 6.05787 0.0761757 5.92376 0.21177L0.209835 5.98874C0.14332 6.05582 0.0905476 6.1355 0.0545406 6.22324C0.0185337 6.31097 0 6.40502 0 6.5C0 6.59498 0.0185337 6.68903 0.0545406 6.77676C0.0905476 6.8645 0.14332 6.94418 0.209835 7.01126L5.92376 12.7882C6.05787 12.9238 6.23977 13 6.42944 13C6.61911 13 6.801 12.9238 6.93512 12.7882C7.06923 12.6526 7.14458 12.4687 7.14458 12.277C7.14458 12.0852 7.06923 11.9013 6.93512 11.7657L2.43969 7.22212L19.2858 7.22212C19.4752 7.22212 19.6569 7.14604 19.7908 7.01062C19.9247 6.87519 20 6.69152 20 6.5Z" fill="white" />
</svg>
