<svg width="11" height="11" viewBox="0 0 11 11" fill="none" xmlns="http://www.w3.org/2000/svg">
	<g clip-path="url(#clip0_369_3110)">
		<path d="M8.36413 6.14625C8.00388 6.87637 7.51575 7.60375 7.01663 8.25688C6.54314 8.87261 6.03687 9.46242 5.5 10.0238C4.96312 9.46243 4.45685 8.87262 3.98338 8.25688C3.48425 7.60375 2.99613 6.87637 2.63588 6.14625C2.2715 5.40856 2.0625 4.71763 2.0625 4.125C2.0625 3.21332 2.42466 2.33898 3.06932 1.69432C3.71398 1.04966 4.58832 0.6875 5.5 0.6875C6.41168 0.6875 7.28602 1.04966 7.93068 1.69432C8.57534 2.33898 8.9375 3.21332 8.9375 4.125C8.9375 4.71763 8.72781 5.40856 8.36413 6.14625ZM5.5 11C5.5 11 9.625 7.09088 9.625 4.125C9.625 3.03098 9.1904 1.98177 8.41682 1.20818C7.64323 0.434597 6.59402 0 5.5 0C4.40598 0 3.35677 0.434597 2.58318 1.20818C1.8096 1.98177 1.375 3.03098 1.375 4.125C1.375 7.09088 5.5 11 5.5 11Z" fill="#B2EF30" />
		<path d="M5.5 5.5C5.13533 5.5 4.78559 5.35513 4.52773 5.09727C4.26987 4.83941 4.125 4.48967 4.125 4.125C4.125 3.76033 4.26987 3.41059 4.52773 3.15273C4.78559 2.89487 5.13533 2.75 5.5 2.75C5.86467 2.75 6.21441 2.89487 6.47227 3.15273C6.73013 3.41059 6.875 3.76033 6.875 4.125C6.875 4.48967 6.73013 4.83941 6.47227 5.09727C6.21441 5.35513 5.86467 5.5 5.5 5.5ZM5.5 6.1875C6.04701 6.1875 6.57161 5.9702 6.95841 5.58341C7.3452 5.19661 7.5625 4.67201 7.5625 4.125C7.5625 3.57799 7.3452 3.05339 6.95841 2.66659C6.57161 2.2798 6.04701 2.0625 5.5 2.0625C4.95299 2.0625 4.42839 2.2798 4.04159 2.66659C3.6548 3.05339 3.4375 3.57799 3.4375 4.125C3.4375 4.67201 3.6548 5.19661 4.04159 5.58341C4.42839 5.9702 4.95299 6.1875 5.5 6.1875Z" fill="#B2EF30" />
	</g>
	<defs>
		<clipPath id="clip0_369_3110">
			<rect width="11" height="11" fill="white" />
		</clipPath>
	</defs>
</svg>
