<svg width="15" height="20" viewBox="0 0 15 20" fill="none" xmlns="http://www.w3.org/2000/svg">
	<path d="M0 11.69C0 16.023 3.34465 19.5 7.50424 19.5C11.6638 19.5 15 16.023 15 11.69C15 11.2664 14.7114 10.9575 14.2954 10.9575C13.8964 10.9575 13.6333 11.2664 13.6333 11.69C13.6333 15.2376 10.9083 18.0792 7.50424 18.0792C4.10017 18.0792 1.36672 15.2376 1.36672 11.69C1.36672 8.15118 4.10017 5.31839 7.50424 5.31839C8.14941 5.31839 8.75212 5.37134 9.25297 5.49489L6.71477 8.10706C6.58744 8.24826 6.51952 8.42476 6.51952 8.61008C6.51952 9.01602 6.80815 9.31607 7.19015 9.31607C7.40238 9.31607 7.56367 9.24547 7.68251 9.1131L11.18 5.45959C11.3328 5.30957 11.3922 5.13307 11.3922 4.9301C11.3922 4.73595 11.3158 4.5418 11.18 4.4006L7.68251 0.711798C7.56367 0.570599 7.39389 0.5 7.19015 0.5C6.80815 0.5 6.51952 0.817696 6.51952 1.22364C6.51952 1.40896 6.58744 1.58546 6.70628 1.72666L8.96435 4.04761C8.52292 3.95936 8.02207 3.89758 7.50424 3.89758C3.34465 3.89758 0 7.36577 0 11.69Z" fill="white" />
</svg>
