<svg width="17" height="17" viewBox="0 0 17 17" fill="none" xmlns="http://www.w3.org/2000/svg">
<path d="M16.3342 7.47456C16.9679 7.47456 17.2325 6.6604 16.7177 6.28511L8.8858 0.588037C8.77395 0.506092 8.6389 0.461914 8.50025 0.461914C8.3616 0.461914 8.22655 0.506092 8.1147 0.588037L0.282769 6.28511C-0.231977 6.65835 0.0325734 7.47456 0.668316 7.47456H1.93775V15.1445H0.461187C0.370952 15.1445 0.297124 15.2183 0.297124 15.3085V16.3749C0.297124 16.4652 0.370952 16.539 0.461187 16.539H16.5393C16.6295 16.539 16.7034 16.4652 16.7034 16.3749V15.3085C16.7034 15.2183 16.6295 15.1445 16.5393 15.1445H15.0627V7.47456H16.3342ZM5.81373 15.1445H3.41431V7.47456H5.81373V15.1445ZM9.6897 15.1445H7.29029V7.47456H9.6897V15.1445ZM13.5862 15.1445H11.1663V7.47456H13.5862V15.1445Z" fill="white" fill-opacity="0.28"/>
</svg>
