<svg xmlns="http://www.w3.org/2000/svg" width="745" height="745" viewBox="0 0 745 745" fill="none">
                <path d="M686 372.5C686 545.641 545.641 686 372.5 686C199.359 686 59 545.641 59 372.5C59 199.359 199.359 59 372.5 59C545.641 59 686 199.359 686 372.5ZM72.8464 372.5C72.8464 537.994 207.006 672.154 372.5 672.154C537.994 672.154 672.154 537.994 672.154 372.5C672.154 207.006 537.994 72.8464 372.5 72.8464C207.006 72.8464 72.8464 207.006 72.8464 372.5Z" fill="white" fill-opacity="0.15" />
                <g filter="url(#filter0_d_940_477)">
                  <path d="M686 372.5C686 545.641 545.641 686 372.5 686C199.359 686 59 545.641 59 372.5C59 199.359 199.359 59 372.5 59C545.641 59 686 199.359 686 372.5ZM61.845 372.5C61.845 544.07 200.93 683.155 372.5 683.155C544.07 683.155 683.155 544.07 683.155 372.5C683.155 200.93 544.07 61.845 372.5 61.845C200.93 61.845 61.845 200.93 61.845 372.5Z" fill="#B2EF30" />
                </g>
                <defs>
                  <filter id="filter0_d_940_477" x="0" y="0" width="745" height="745" filterUnits="userSpaceOnUse" color-interpolation-filters="sRGB">
                    <feFlood flood-opacity="0" result="BackgroundImageFix" />
                    <feColorMatrix in="SourceAlpha" type="matrix" values="0 0 0 0 0 0 0 0 0 0 0 0 0 0 0 0 0 0 127 0" result="hardAlpha" />
                    <feOffset />
                    <feGaussianBlur stdDeviation="29.5" />
                    <feComposite in2="hardAlpha" operator="out" />
                    <feColorMatrix type="matrix" values="0 0 0 0 0.6975 0 0 0 0 0.9375 0 0 0 0 0.1875 0 0 0 0.55 0" />
                    <feBlend mode="normal" in2="BackgroundImageFix" result="effect1_dropShadow_940_477" />
                    <feBlend mode="normal" in="SourceGraphic" in2="effect1_dropShadow_940_477" result="shape" />
                  </filter>
                </defs>
              </svg>