<svg width="32" height="32" viewBox="0 0 32 32" fill="none" xmlns="http://www.w3.org/2000/svg">
<circle r="15.3913" transform="matrix(-1 0 0 1 15.9271 16.0725)" fill="#FD9B08"/>
<g clip-path="url(#clip0_656_977)">
<path d="M17.9889 14.7496L13.8639 13.7004C13.3865 13.5809 13.0542 13.1924 13.0542 12.7607C13.0542 12.2195 13.5583 11.7812 14.1809 11.7812H16.7132C17.1792 11.7812 17.6375 11.9041 18.0194 12.1299C18.2524 12.266 18.5656 12.2328 18.7642 12.0635L20.0934 10.9346C20.3646 10.7055 20.3264 10.3236 20.0247 10.1211C19.0889 9.48359 17.9201 9.12832 16.7208 9.125V7.53125C16.7208 7.23906 16.4458 7 16.1097 7H14.8875C14.5514 7 14.2764 7.23906 14.2764 7.53125V9.125H14.1809C11.7479 9.125 9.79236 10.9412 10.0177 13.0961C10.1781 14.6268 11.5226 15.8719 13.2184 16.3035L17.1333 17.2996C17.6108 17.4225 17.9431 17.8076 17.9431 18.2393C17.9431 18.7805 17.4389 19.2188 16.8163 19.2188H14.284C13.8181 19.2188 13.3597 19.0959 12.9778 18.8701C12.7448 18.734 12.4316 18.7672 12.233 18.9365L10.9038 20.0654C10.6326 20.2945 10.6708 20.6764 10.9726 20.8789C11.9083 21.5164 13.0771 21.8717 14.2764 21.875V23.4688C14.2764 23.7609 14.5514 24 14.8875 24H16.1097C16.4458 24 16.7208 23.7609 16.7208 23.4688V21.8684C18.5007 21.8385 20.1698 20.9188 20.758 19.4545C21.5792 17.4092 20.2003 15.3107 17.9889 14.7496V14.7496Z" fill="white"/>
</g>
<defs>
<clipPath id="clip0_656_977">
<rect width="11" height="17" fill="white" transform="translate(10 7)"/>
</clipPath>
</defs>
</svg>
