<svg width="31" height="31" viewBox="0 0 31 31" fill="none" xmlns="http://www.w3.org/2000/svg">
<path d="M25.834 15.5003C25.5234 15.5025 25.2158 15.5607 24.9259 15.6721L21.8285 13.1366C21.9047 12.8602 21.959 12.5734 21.959 12.2712C21.959 10.4809 20.5201 9.04199 18.7298 9.04199C16.9396 9.04199 15.5007 10.4809 15.5007 12.2712C15.5007 12.7827 15.6298 13.2593 15.8391 13.6881L12.0816 18.1289C11.9312 18.1007 11.7787 18.0856 11.6257 18.0837C11.3944 18.0837 11.1762 18.1224 10.9643 18.1792L7.65378 14.8687C7.7119 14.6582 7.75065 14.4399 7.75065 14.2087C7.75065 12.7775 6.59848 11.6253 5.16732 11.6253C3.73615 11.6253 2.58398 12.7775 2.58398 14.2087C2.58398 15.6398 3.73615 16.792 5.16732 16.792C5.39853 16.792 5.61682 16.7532 5.82865 16.6964L9.13919 20.007C9.0771 20.2216 9.04451 20.4436 9.04232 20.667C9.04232 22.0982 10.1945 23.2503 11.6257 23.2503C13.0568 23.2503 14.209 22.0982 14.209 20.667C14.209 20.3609 14.147 20.0728 14.0501 19.8003L17.8127 15.3544C18.1059 15.4396 18.4095 15.5003 18.7298 15.5003C19.2396 15.4975 19.7413 15.3731 20.1933 15.1374L23.292 17.6729C23.2677 17.8086 23.2539 17.9459 23.2507 18.0837C23.2507 19.5148 24.4028 20.667 25.834 20.667C27.2652 20.667 28.4173 19.5148 28.4173 18.0837C28.4173 16.6525 27.2652 15.5003 25.834 15.5003Z" fill="url(#paint0_linear_560_2366)"/>
<defs>
<linearGradient id="paint0_linear_560_2366" x1="15.5007" y1="23.7476" x2="14.8841" y2="11.7733" gradientUnits="userSpaceOnUse">
<stop stop-color="#BCFF2E"/>
<stop offset="1" stop-color="#9FD52C"/>
</linearGradient>
</defs>
</svg>
