<svg width="195" height="53" viewBox="0 0 195 53" fill="none" xmlns="http://www.w3.org/2000/svg">
<path d="M56.0384 11.7183V20.7306L48.0161 11.7183H43.2109V26.1544H47.6036V17.5753L55.2341 26.1544H60.4517V11.7183H56.0384ZM67.3404 22.5454V20.7306H76.9713V17.1216H67.3404V15.3274H77.7756V11.7183H62.9477V26.1544H77.7756V22.5454H67.3404ZM98.8971 11.7183L96.0305 20.3181L93.1639 11.7183H89.3899L86.5233 20.3181L83.6567 11.7183H78.8516L83.6567 26.1544H88.4619L91.2666 17.7196L94.0713 26.1544H98.8971L103.702 11.7183H98.8971ZM121.352 11.7183H116.134L112.525 16.7091L108.916 11.7183H103.719L110.318 20.8749V26.1544H114.732V20.8749L121.352 11.7183ZM147.227 11.3059H131.183C125.161 11.3059 121.964 13.3063 121.964 18.9158C121.964 24.9377 125.553 26.5462 131.183 26.5462H147.227C153.229 26.5462 156.446 24.9377 156.446 18.9158C156.446 13.3063 153.229 11.3059 147.227 11.3059ZM147.227 22.9372H131.183C128.357 22.9372 126.769 22.1329 126.769 18.9158C126.769 15.7192 128.357 14.9149 131.183 14.9149H147.227C150.073 14.9149 151.62 15.7192 151.62 18.9158C151.62 22.1329 150.012 22.9372 147.227 22.9372ZM170.02 26.1544H174.99L172.557 21.5349C173.938 20.545 174.846 18.9364 174.846 17.1216C174.846 14.1312 172.412 11.7183 169.422 11.7183H158.409V26.1544H162.802V22.5454H168.123L170.02 26.1544ZM162.802 15.3274H168.618C169.628 15.3274 170.433 16.1317 170.433 17.1216C170.433 18.1115 169.628 18.9364 168.618 18.9364H162.802V15.3274ZM185.87 17.9877L192.489 11.7183H186.88L181.25 17.0184V11.7183H176.857V26.1544H181.25V22.3392L182.776 20.9162L187.272 26.1544H192.881L185.87 17.9877Z" fill="white"/>
<path d="M50.8716 42.9868L48.9576 40.2221H48.8441H46.845V42.9868H44.5481V33.062H48.8441C49.7232 33.062 50.4841 33.2085 51.1268 33.5015C51.779 33.7946 52.28 34.2105 52.6297 34.7492C52.9795 35.288 53.1543 35.926 53.1543 36.6633C53.1543 37.4006 52.9747 38.0386 52.6156 38.5774C52.2658 39.1067 51.7649 39.5131 51.1127 39.7967L53.3387 42.9868H50.8716ZM50.8291 36.6633C50.8291 36.1056 50.6495 35.6803 50.2903 35.3873C49.9311 35.0848 49.4065 34.9336 48.7165 34.9336H46.845V38.3931H48.7165C49.4065 38.3931 49.9311 38.2418 50.2903 37.9393C50.6495 37.6369 50.8291 37.2115 50.8291 36.6633ZM69.9889 43.157C68.9586 43.157 68.0276 42.9348 67.1958 42.4906C66.3735 42.0463 65.726 41.4367 65.2534 40.6616C64.7902 39.877 64.5587 38.998 64.5587 38.0244C64.5587 37.0508 64.7902 36.1765 65.2534 35.4014C65.726 34.6169 66.3735 34.0025 67.1958 33.5583C68.0276 33.114 68.9586 32.8919 69.9889 32.8919C71.0192 32.8919 71.9455 33.114 72.7679 33.5583C73.5902 34.0025 74.2377 34.6169 74.7103 35.4014C75.1829 36.1765 75.4192 37.0508 75.4192 38.0244C75.4192 38.998 75.1829 39.877 74.7103 40.6616C74.2377 41.4367 73.5902 42.0463 72.7679 42.4906C71.9455 42.9348 71.0192 43.157 69.9889 43.157ZM69.9889 41.2004C70.575 41.2004 71.1043 41.068 71.5769 40.8034C72.0495 40.5292 72.4181 40.1512 72.6828 39.6691C72.9569 39.187 73.094 38.6388 73.094 38.0244C73.094 37.41 72.9569 36.8618 72.6828 36.3797C72.4181 35.8977 72.0495 35.5243 71.5769 35.2597C71.1043 34.9855 70.575 34.8485 69.9889 34.8485C69.4029 34.8485 68.8736 34.9855 68.401 35.2597C67.9284 35.5243 67.555 35.8977 67.2809 36.3797C67.0162 36.8618 66.8839 37.41 66.8839 38.0244C66.8839 38.6388 67.0162 39.187 67.2809 39.6691C67.555 40.1512 67.9284 40.5292 68.401 40.8034C68.8736 41.068 69.4029 41.2004 69.9889 41.2004ZM87.3538 33.062H89.6507V41.1153H94.6272V42.9868H87.3538V33.062ZM113.804 41.1436V42.9868H106.119V33.062H113.619V34.9052H108.402V37.0603H113.01V38.8468H108.402V41.1436H113.804ZM130.136 33.062C131.015 33.062 131.775 33.2085 132.418 33.5015C133.07 33.7946 133.571 34.2105 133.921 34.7492C134.271 35.288 134.446 35.926 134.446 36.6633C134.446 37.3911 134.271 38.0291 133.921 38.5774C133.571 39.1161 133.07 39.532 132.418 39.8251C131.775 40.1086 131.015 40.2504 130.136 40.2504H128.136V42.9868H125.839V33.062H130.136ZM130.008 38.3789C130.698 38.3789 131.223 38.2324 131.582 37.9393C131.941 37.6369 132.12 37.2115 132.12 36.6633C132.12 36.1056 131.941 35.6803 131.582 35.3873C131.223 35.0848 130.698 34.9336 130.008 34.9336H128.136V38.3789H130.008ZM146.294 33.062H148.591V41.1153H153.567V42.9868H146.294V33.062ZM171.678 40.8601H167.07L166.191 42.9868H163.838L168.261 33.062H170.53L174.968 42.9868H172.557L171.678 40.8601ZM170.955 39.1161L169.381 35.3164L167.808 39.1161H170.955ZM190.36 39.4706V42.9868H188.064V39.4422L184.221 33.062H186.66L189.311 37.4715L191.963 33.062H194.217L190.36 39.4706Z" fill="white"/>
<path fill-rule="evenodd" clip-rule="evenodd" d="M16.7698 38.261C18.9673 39.5263 20.7761 40.5949 20.7894 40.6359C20.8026 40.6768 20.1545 41.0887 19.349 41.5512L17.8845 42.3923L15.6603 41.1057C14.437 40.3981 13.2565 39.7213 13.0371 39.6017L12.6382 39.3843L10.0852 40.8544C8.68095 41.663 7.48661 42.3245 7.43104 42.3245C7.26804 42.3245 4.52339 40.7418 4.5227 40.6475C4.52244 40.6002 4.91892 40.3389 5.40378 40.067C5.88865 39.795 7.68106 38.7634 9.38688 37.7747C11.0927 36.7858 12.5527 35.9731 12.6314 35.9687C12.7101 35.9642 14.5723 36.9957 16.7698 38.261ZM4.41863 41.7372C5.92975 42.6098 9.54282 44.692 11.1244 45.6017C11.938 46.0696 12.6293 46.4525 12.6608 46.4525C12.7225 46.4525 13.0056 46.2912 17.6145 43.6308C19.2966 42.6599 20.9388 41.714 21.2639 41.5291L21.8548 41.1928L23.2002 41.9672C23.9401 42.3932 24.5554 42.7736 24.5675 42.8126C24.5796 42.8516 24.0184 43.2094 23.3205 43.6078C22.6224 44.0062 21.1015 44.8798 19.9406 45.5492C13.7155 49.1387 12.7006 49.7204 12.6641 49.7204C12.6422 49.7204 10.5196 48.5085 7.94719 47.0273C5.37475 45.546 2.69893 44.0077 2.00084 43.6088C1.30274 43.2098 0.730945 42.8577 0.730084 42.8261C0.728791 42.7773 3.386 41.2065 3.46991 41.2065C3.48628 41.2065 3.91317 41.4453 4.41863 41.7372ZM10.4752 49.563C11.5639 50.1872 11.8269 50.3727 11.7385 50.4534C11.562 50.6146 7.83321 52.7304 7.7256 52.7304C7.61955 52.7304 5.2307 51.3884 5.05874 51.2322C4.97733 51.1583 5.43523 50.8567 6.99718 49.9553C8.12199 49.3063 9.05528 48.775 9.07131 48.7749C9.08724 48.7746 9.719 49.1293 10.4752 49.563ZM18.4037 50.0013C19.8927 50.8611 20.3429 51.159 20.2624 51.2312C20.0799 51.3946 17.7156 52.7304 17.6088 52.7304C17.4923 52.7304 13.584 50.5082 13.5207 50.4059C13.4586 50.3058 16.1721 48.767 16.3158 48.8207C16.3834 48.846 17.323 49.3773 18.4037 50.0013Z" fill="#A3D930"/>
<path d="M0.000976562 7.15244L4.09779 4.7897L7.99379 21.0277V2.54278L12.1308 0.11666V34.6251L8.4356 36.7561L4.09779 19.4294V39.2579L0.000976562 41.6206V7.15244Z" fill="#A3D930"/>
<path d="M13.3262 0L17.3025 22.446V36.7614L21.8412 39.379V25.0172L25.938 7.27353L21.5198 4.72548L19.4313 16.4002L17.423 2.36274L13.3262 0Z" fill="#A3D930"/>
<path d="M27.4588 7.72474L22.9674 25.9821V39.5147L25.3006 40.9729V26.682L29.5004 8.94967L27.4588 7.72474Z" fill="#A3D930"/>
<path d="M2.6846 12.191L2.04297 40.4228L4.14285 39.2562V21.3489L8.40095 36.748L12.1341 34.6481V0.116699L10.0342 1.34163V31.4983L2.6846 12.191Z" fill="#A3D930"/>
</svg>
