<svg width="25" height="25" viewBox="0 0 25 25" fill="none" xmlns="http://www.w3.org/2000/svg">
<path d="M16.1257 12.1851V6.27423C16.1257 4.09018 14.3673 2.31299 12.2059 2.31299C12.1365 2.3134 12.0675 2.32167 12 2.33762C10.9885 2.38666 10.0346 2.82265 9.33555 3.5554C8.63655 4.28814 8.24597 5.26155 8.24463 6.27423V12.1851C8.24463 14.3583 10.012 16.1256 12.1852 16.1256C14.3584 16.1256 16.1257 14.3583 16.1257 12.1851ZM10.2149 12.1851V6.27423C10.2149 5.18762 11.0986 4.30395 12.1852 4.30395C12.239 4.30397 12.2928 4.29902 12.3458 4.28918C13.3555 4.36306 14.1555 5.22506 14.1555 6.27423V12.1851C14.1555 13.2717 13.2718 14.1553 12.1852 14.1553C11.0986 14.1553 10.2149 13.2717 10.2149 12.1851Z" fill="url(#paint0_linear_468_1149)"/>
<path d="M6.27399 12.1851H4.30371C4.30371 16.1965 7.31922 19.5105 11.1997 19.9982V22.0364H13.17V19.9982C17.0504 19.5105 20.0659 16.1975 20.0659 12.1851H18.0956C18.0956 15.4449 15.4446 18.0959 12.1848 18.0959C8.92499 18.0959 6.27399 15.4449 6.27399 12.1851Z" fill="url(#paint1_linear_468_1149)"/>
<defs>
<linearGradient id="paint0_linear_468_1149" x1="8.24463" y1="2.31299" x2="20.6418" y2="5.78378" gradientUnits="userSpaceOnUse">
<stop stop-color="white" stop-opacity="0.33"/>
<stop offset="1" stop-color="white" stop-opacity="0.28"/>
</linearGradient>
<linearGradient id="paint1_linear_468_1149" x1="4.30371" y1="12.1851" x2="20.8458" y2="25.1719" gradientUnits="userSpaceOnUse">
<stop stop-color="white" stop-opacity="0.33"/>
<stop offset="1" stop-color="white" stop-opacity="0.28"/>
</linearGradient>
</defs>
</svg>
