<svg width="43" height="61" viewBox="0 0 43 61" fill="none" xmlns="http://www.w3.org/2000/svg">
<path fill-rule="evenodd" clip-rule="evenodd" d="M3.99385 0.213879C4.25576 0.335245 4.61078 0.588947 4.7828 0.777554C4.95483 0.966162 6.02117 2.51532 7.15252 4.22017C11.3557 10.5541 14.4242 14.8572 15.6157 16.0887C16.381 16.8795 17.1324 17.4108 17.9985 17.7734C18.5524 18.0053 18.8505 18.0411 20.2443 18.0424C22.0747 18.0441 21.1914 18.2325 33.6123 15.1893C40.6369 13.4681 40.5382 13.4837 41.4583 13.9501C42.8672 14.6643 43.0888 16.8755 41.8491 17.852C41.4637 18.1555 41.601 18.103 31.4351 21.8441L22.923 24.9766L22.5281 26.1033C21.3198 29.5509 20.8915 32.3371 20.7848 37.4437C20.7345 39.8567 20.7002 40.2089 20.4225 41.1682C20.1178 42.2217 20.1167 42.2403 20.2421 44.3856C20.523 49.1913 21.3007 53.605 21.9877 54.293C22.1143 54.4199 22.4236 54.4717 23.0526 54.4717C24.588 54.4717 26.8415 53.8711 29.7625 52.6835C30.8775 52.2302 31.0793 52.1843 31.7081 52.2414C34.1413 52.4624 35.2511 55.4255 33.5417 57.1371C33.2068 57.4726 32.5087 57.9022 31.4311 58.4359C26.7923 60.7338 22.7259 61.5209 19.9387 60.6606C17.7059 59.9715 16.3924 58.7237 15.1281 56.0908C14.1619 54.0785 13.268 51.2151 12.6829 48.2578C12.571 47.6926 12.4385 47.1636 12.3884 47.0824C12.3384 47.0012 12.0494 46.9068 11.7465 46.8727L11.1955 46.8105L10.6217 48.048C10.3059 48.7287 9.86771 49.7379 9.64759 50.2909C9.2696 51.2404 9.25948 51.3032 9.46401 51.4235C10.4077 51.9783 10.9617 52.85 11.0442 53.9102C11.0995 54.6226 11.0761 54.7017 10.4208 56.0083C9.29567 58.2522 7.73218 59.6036 5.79414 60.0074C5.03734 60.165 3.92992 60.0968 3.3155 59.8546C2.84727 59.6701 2.04677 58.9072 1.78772 58.3987C1.0977 57.0444 1.15032 53.2182 1.90963 49.5241C2.38452 47.2133 3.44395 43.6183 4.35303 41.2331C4.7178 40.2756 4.75495 40.061 4.75852 38.8905C4.77447 33.6347 6.61321 25.5434 8.88161 20.7461C9.17257 20.1308 9.41067 19.5827 9.41067 19.5282C9.41067 19.4736 7.47526 15.8009 5.10972 11.3664C2.74417 6.93197 0.760185 3.08734 0.700779 2.82279C0.549822 2.15026 0.832095 1.22976 1.34009 0.737258C2.10594 -0.00501055 3.0993 -0.20089 3.99385 0.213879ZM23.5878 0.646173C25.8202 1.18899 27.7857 2.75364 28.8095 4.80257C29.4648 6.11423 29.6894 7.06311 29.6873 8.51212C29.684 10.7674 28.9887 12.4463 27.3874 14.0659C26.2731 15.1929 25.523 15.6731 24.166 16.1288C21.2605 17.1042 18.0152 16.2714 15.8571 13.9963C14.18 12.2283 13.3803 9.81103 13.6997 7.47478C13.9562 5.59932 14.6738 4.14971 16.0215 2.78428C17.5779 1.20746 19.4089 0.45697 21.6566 0.474614C22.3531 0.480099 23.2221 0.557354 23.5878 0.646173Z" fill="white"/>
</svg>
