<svg width="22" height="22" viewBox="0 0 22 22" fill="none" xmlns="http://www.w3.org/2000/svg">
<path fill-rule="evenodd" clip-rule="evenodd" d="M6.23563 1.58514C6.37174 1.1768 6.75388 0.901367 7.18431 0.901367H13.9161C14.5805 0.901367 15.0602 1.53727 14.8776 2.17609L14.5601 3.28734H15.6583C17.3152 3.28734 18.6583 4.63049 18.6583 6.28734V6.72798C20.2812 7.32123 21.4395 8.87892 21.4395 10.7072V17.1498C21.4395 19.489 19.5432 21.3853 17.2041 21.3853H4.796C2.45682 21.3853 0.560547 19.489 0.560547 17.1498V16.6129H4.43807C5.92064 16.6129 7.12251 15.4111 7.12251 13.9285C7.12251 12.4459 5.92064 11.2441 4.43807 11.2441H0.560547V10.7072C0.560547 10.0684 0.701943 9.46269 0.955141 8.91959V6.28734C0.955141 4.63049 2.29829 3.28734 3.95514 3.28734H5.63094H5.66822L6.23563 1.58514ZM1.95514 7.56569C2.66259 6.92555 3.58726 6.52103 4.60536 6.47593L5.33489 4.28734H3.95514C2.85057 4.28734 1.95514 5.18277 1.95514 6.28734V7.56569ZM5.66086 6.47172H12.5607L12.9081 5.42936L13.9161 1.90137L7.18431 1.90137L6.67488 3.42964V4.28734H6.38898L5.66086 6.47172ZM13.6148 6.47172H17.2041C17.3575 6.47172 17.5091 6.47988 17.6583 6.49579V6.28734C17.6583 5.18278 16.7629 4.28734 15.6583 4.28734H14.2744L13.8667 5.71452L13.8637 5.72497L13.8602 5.73528L13.6148 6.47172ZM2.35017 13.0337V14.8233H4.43807C4.93226 14.8233 5.33288 14.4227 5.33288 13.9285C5.33288 13.4343 4.93226 13.0337 4.43807 13.0337H2.35017Z" fill="#9CD12B"/>
</svg>
