<svg viewBox="0 0 16 15" fill="none" xmlns="http://www.w3.org/2000/svg">
    <path fill-rule="evenodd" clip-rule="evenodd" d="M7.73581 0.0466481C7.67769 0.0718754 7.60412 0.121949 7.57231 0.157884C7.54051 0.193854 7.02752 1.19789 6.43237 2.38908C5.83722 3.58028 5.34022 4.56529 5.32793 4.57804C5.31564 4.59075 4.19616 4.75945 2.84017 4.95288C1.08337 5.20349 0.344415 5.3219 0.269184 5.36476C0.0315169 5.50032 -0.0722072 5.85046 0.054375 6.09001C0.0815651 6.14147 0.814608 6.86461 1.68332 7.69701C2.55203 8.52937 3.35411 9.30189 3.46568 9.41368L3.66855 9.61695L3.2458 12.0423C2.80097 14.5944 2.80375 14.569 2.94513 14.7813C3.03244 14.9124 3.26775 15.0132 3.44163 14.9939C3.54891 14.982 4.20059 14.6619 5.77801 13.8465C6.98121 13.2245 7.98224 12.7157 8.00253 12.7157C8.02285 12.7157 9.01885 13.2224 10.2159 13.8417C11.4129 14.4611 12.4416 14.9775 12.5018 14.9894C12.6758 15.0236 12.8487 14.9743 12.9791 14.8533C13.2154 14.634 13.2234 14.7342 12.7537 12.0401L12.3314 9.61727L12.499 9.44826C12.5912 9.35529 13.3934 8.5827 14.2816 7.73142C15.1699 6.88013 15.9187 6.14151 15.9458 6.09005C16.0721 5.84966 15.9685 5.50091 15.7299 5.36386C15.6531 5.31968 14.9411 5.20543 13.159 4.95125C11.8034 4.75792 10.6843 4.58965 10.672 4.57731C10.6597 4.56497 10.1627 3.58028 9.56755 2.38908C8.9724 1.19789 8.45941 0.193819 8.42761 0.157849C8.29433 0.00707445 7.95319 -0.0477811 7.73581 0.0466481Z" fill="white" fill-opacity="0.25"/>
</svg>
